<svg width="40" height="40" viewBox="0 0 40 40" fill="none" xmlns="http://www.w3.org/2000/svg">
<mask id="mask0_3145_3745" style="mask-type:alpha" maskUnits="userSpaceOnUse" x="0" y="0" width="40" height="40">
<path fill-rule="evenodd" clip-rule="evenodd" d="M20 40C31.0457 40 40 31.0457 40 20C40 8.9543 31.0457 0 20 0C8.9543 0 0 8.9543 0 20C0 31.0457 8.9543 40 20 40Z" fill="white"/>
</mask>
<g mask="url(#mask0_3145_3745)">
<rect width="40" height="40" fill="#3C94A8" fill-opacity="0.1"/>
</g>
<path fill-rule="evenodd" clip-rule="evenodd" d="M15.3604 9.7317C15.3604 9.32759 15.6883 9 16.0929 9C16.4975 9 16.8255 9.32759 16.8255 9.7317V11.9269H23.1738V9.7317C23.1738 9.32759 23.5018 9 23.9064 9C24.311 9 24.6389 9.32759 24.6389 9.7317V11.9269H29.7674C30.172 11.9269 30.5 12.2545 30.5 12.6586V16.5609V28.2683C30.5 28.6724 30.172 29 29.7674 29H10.2326C9.82798 29 9.5 28.6724 9.5 28.2683V16.5609V12.6586C9.5 12.2545 9.82798 11.9269 10.2326 11.9269H15.3604V9.7317ZM10.9648 17.2926V27.5367H29.0346V17.2926H10.9648ZM29.0346 15.8292H10.9648V13.3904H15.3604V14.2029C15.3604 14.607 15.6883 14.9346 16.0929 14.9346C16.4975 14.9346 16.8255 14.607 16.8255 14.2029V13.3904H23.1738V14.2029C23.1738 14.607 23.5018 14.9346 23.9064 14.9346C24.311 14.9346 24.6389 14.607 24.6389 14.2029V13.3904H29.0346V15.8292ZM25.3426 19.946C25.6287 19.6603 26.0925 19.6603 26.3786 19.946C26.6647 20.2317 26.6647 20.695 26.3786 20.9808L22.4716 24.8832C22.1855 25.169 21.7217 25.169 21.4356 24.8832L19.4821 22.932C19.1961 22.6462 19.1961 22.183 19.4821 21.8972C19.7682 21.6115 20.2321 21.6115 20.5181 21.8972L21.9536 23.331L25.3426 19.946Z" fill="#3C94A8"/>
</svg>
