<svg width="40" height="40" viewBox="0 0 40 40" fill="none" xmlns="http://www.w3.org/2000/svg">
<mask id="mask0_3145_2195" style="mask-type:alpha" maskUnits="userSpaceOnUse" x="0" y="0" width="40" height="40">
<path fill-rule="evenodd" clip-rule="evenodd" d="M20 40C31.0457 40 40 31.0457 40 20C40 8.9543 31.0457 0 20 0C8.9543 0 0 8.9543 0 20C0 31.0457 8.9543 40 20 40Z" fill="white"/>
</mask>
<g mask="url(#mask0_3145_2195)">
<rect width="40" height="40" fill="#FFEBEB"/>
</g>
<path fill-rule="evenodd" clip-rule="evenodd" d="M20.8606 12.5061C22.0828 11.1093 23.4792 10.25 25.05 10.25C28.2252 10.25 30.8 12.8248 30.8 16C30.8 17.4533 30.1045 19.1109 28.844 20.9597C27.9873 22.2162 26.8845 23.5362 25.5931 24.8922C24.4831 26.0577 23.296 27.1855 22.109 28.234C21.6936 28.601 21.3075 28.9321 20.9606 29.222C20.7513 29.3969 20.6007 29.5199 20.5185 29.5857C20.2446 29.8048 19.8554 29.8048 19.5815 29.5857C19.4993 29.5199 19.3487 29.3969 19.1394 29.222C18.7925 28.9321 18.4064 28.601 17.991 28.234C16.804 27.1855 15.6169 26.0577 14.5069 24.8922C13.2155 23.5362 12.1128 22.2162 11.256 20.9597C9.99552 19.1109 9.3 17.4533 9.3 16C9.3 12.8248 11.8748 10.25 15.05 10.25C16.6208 10.25 18.0172 11.1093 19.2394 12.5061C19.5348 12.8436 19.8052 13.1969 20.05 13.5546C20.2949 13.1969 20.5652 12.8436 20.8606 12.5061ZM21.116 27.1098C22.2727 26.088 23.4294 24.9892 24.5069 23.8578C25.7465 22.5562 26.7991 21.2962 27.6046 20.1147C28.7108 18.4924 29.3 17.088 29.3 16C29.3 13.6532 27.3968 11.75 25.05 11.75C23.9958 11.75 22.9547 12.3907 21.9894 13.4939C21.6351 13.8988 21.3184 14.3357 21.0454 14.7725C20.883 15.0323 20.7732 15.2306 20.7208 15.3354C20.4444 15.8882 19.6556 15.8882 19.3792 15.3354C19.3268 15.2306 19.217 15.0323 19.0546 14.7725C18.7816 14.3357 18.4649 13.8988 18.1106 13.4939C17.1453 12.3907 16.1042 11.75 15.05 11.75C12.7032 11.75 10.8 13.6532 10.8 16C10.8 17.088 11.3892 18.4924 12.4954 20.1147C13.3009 21.2962 14.3535 22.5562 15.5931 23.8578C16.6706 24.9892 17.8273 26.088 18.984 27.1098C19.3685 27.4493 19.7266 27.757 20.05 28.0281C20.3734 27.757 20.7316 27.4493 21.116 27.1098Z" fill="#FF5752"/>
</svg>
