<svg width="24" height="24" viewBox="0 0 24 24" fill="none" xmlns="http://www.w3.org/2000/svg">
<rect x="2" y="2" width="20" height="20" rx="10" fill="#9E9D9D" fill-opacity="0.4"/>
<path fill-rule="evenodd" clip-rule="evenodd" d="M9.08503 9.08503C8.97166 9.19841 8.97166 9.38223 9.08503 9.49561L11.5894 12L9.08503 14.5044C8.97166 14.6178 8.97166 14.8016 9.08503 14.915C9.19841 15.0283 9.38223 15.0283 9.49561 14.915L12 12.4106L14.5044 14.915C14.6178 15.0283 14.8016 15.0283 14.915 14.915C15.0283 14.8016 15.0283 14.6178 14.915 14.5044L12.4106 12L14.915 9.49561C15.0283 9.38223 15.0283 9.19841 14.915 9.08503C14.8016 8.97166 14.6178 8.97166 14.5044 9.08503L12 11.5894L9.49561 9.08503C9.38223 8.97166 9.19841 8.97166 9.08503 9.08503Z" fill="#9E9D9D"/>
<path d="M9.08503 9.49561L9.43859 9.14206V9.14206L9.08503 9.49561ZM11.5894 12L11.943 12.3536L12.2965 12L11.943 11.6464L11.5894 12ZM9.08503 14.5044L8.73148 14.1508H8.73148L9.08503 14.5044ZM9.49561 14.915L9.14206 14.5614H9.14206L9.49561 14.915ZM12 12.4106L12.3536 12.057L12 11.7035L11.6464 12.057L12 12.4106ZM12.4106 12L12.057 11.6464L11.7035 12L12.057 12.3536L12.4106 12ZM14.915 9.49561L14.5614 9.14206V9.14206L14.915 9.49561ZM14.5044 9.08503L14.1508 8.73148V8.73148L14.5044 9.08503ZM12 11.5894L11.6464 11.943L12 12.2965L12.3536 11.943L12 11.5894ZM9.49561 9.08503L9.14206 9.43859H9.14206L9.49561 9.08503ZM9.43859 9.14206C9.52047 9.22394 9.52047 9.3567 9.43859 9.43859L8.73148 8.73148C8.42284 9.04012 8.42284 9.54052 8.73148 9.84917L9.43859 9.14206ZM11.943 11.6464L9.43859 9.14206L8.73148 9.84917L11.2359 12.3536L11.943 11.6464ZM9.43859 14.8579L11.943 12.3536L11.2359 11.6464L8.73148 14.1508L9.43859 14.8579ZM9.43859 14.5614C9.52047 14.6433 9.52047 14.7761 9.43859 14.8579L8.73148 14.1508C8.42284 14.4595 8.42284 14.9599 8.73148 15.2685L9.43859 14.5614ZM9.14206 14.5614C9.22394 14.4795 9.3567 14.4795 9.43859 14.5614L8.73148 15.2685C9.04012 15.5772 9.54052 15.5772 9.84917 15.2685L9.14206 14.5614ZM11.6464 12.057L9.14206 14.5614L9.84917 15.2685L12.3536 12.7641L11.6464 12.057ZM14.8579 14.5614L12.3536 12.057L11.6464 12.7641L14.1508 15.2685L14.8579 14.5614ZM14.5614 14.5614C14.6433 14.4795 14.7761 14.4795 14.8579 14.5614L14.1508 15.2685C14.4595 15.5772 14.9599 15.5772 15.2685 15.2685L14.5614 14.5614ZM14.5614 14.8579C14.4795 14.7761 14.4795 14.6433 14.5614 14.5614L15.2685 15.2685C15.5772 14.9599 15.5772 14.4595 15.2685 14.1508L14.5614 14.8579ZM12.057 12.3536L14.5614 14.8579L15.2685 14.1508L12.7641 11.6464L12.057 12.3536ZM14.5614 9.14206L12.057 11.6464L12.7641 12.3536L15.2685 9.84917L14.5614 9.14206ZM14.5614 9.43859C14.4795 9.3567 14.4795 9.22394 14.5614 9.14206L15.2685 9.84917C15.5772 9.54052 15.5772 9.04012 15.2685 8.73148L14.5614 9.43859ZM14.8579 9.43859C14.7761 9.52047 14.6433 9.52047 14.5614 9.43859L15.2685 8.73148C14.9599 8.42284 14.4595 8.42284 14.1508 8.73148L14.8579 9.43859ZM12.3536 11.943L14.8579 9.43859L14.1508 8.73148L11.6464 11.2359L12.3536 11.943ZM9.14206 9.43859L11.6464 11.943L12.3536 11.2359L9.84917 8.73148L9.14206 9.43859ZM9.43859 9.43859C9.3567 9.52047 9.22394 9.52047 9.14206 9.43859L9.84917 8.73148C9.54052 8.42284 9.04012 8.42284 8.73148 8.73148L9.43859 9.43859Z" fill="#151616"/>
</svg>
