<svg width="7" height="12" viewBox="0 0 7 12" fill="none" xmlns="http://www.w3.org/2000/svg">
<g clip-path="url(#clip0_3266_9177)">
<path fill-rule="evenodd" clip-rule="evenodd" d="M0.490178 1.30084C0.197284 1.00794 0.197284 0.533071 0.490178 0.240178C0.783071 -0.0527155 1.25794 -0.0527155 1.55084 0.240178L6.78033 5.46967C7.07322 5.76256 7.07322 6.23744 6.78033 6.53033L1.55084 11.7598C1.25794 12.0527 0.783071 12.0527 0.490178 11.7598C0.197284 11.4669 0.197284 10.9921 0.490178 10.6992L5.18934 6L0.490178 1.30084Z" fill="#9E9D9D"/>
<mask id="mask0_3266_9177" style="mask-type:alpha" maskUnits="userSpaceOnUse" x="0" y="0" width="7" height="12">
<path fill-rule="evenodd" clip-rule="evenodd" d="M0.490178 1.30084C0.197284 1.00794 0.197284 0.533071 0.490178 0.240178C0.783071 -0.0527155 1.25794 -0.0527155 1.55084 0.240178L6.78033 5.46967C7.07322 5.76256 7.07322 6.23744 6.78033 6.53033L1.55084 11.7598C1.25794 12.0527 0.783071 12.0527 0.490178 11.7598C0.197284 11.4669 0.197284 10.9921 0.490178 10.6992L5.18934 6L0.490178 1.30084Z" fill="white"/>
</mask>
<g mask="url(#mask0_3266_9177)">
</g>
</g>
<defs>
<clipPath id="clip0_3266_9177">
<rect width="6.72949" height="11.959" fill="white" transform="translate(0.270508 0.0205078)"/>
</clipPath>
</defs>
</svg>
