<svg width="29" height="29" viewBox="0 0 29 29" fill="none" xmlns="http://www.w3.org/2000/svg">
<path fill-rule="evenodd" clip-rule="evenodd" d="M19.7884 7.86419C19.7884 8.13246 19.7523 8.37142 19.6794 8.58094C19.6072 8.79136 19.4809 9.01958 19.3027 9.26749L12.0032 19.3069H12.0341C12.2399 19.1214 12.4421 18.9853 12.6384 18.8997C12.8347 18.8134 13.0527 18.7707 13.2939 18.7707H19.6943V21.4638H8.35842V20.2662C8.35842 19.9845 8.39826 19.739 8.47794 19.5285C8.55679 19.319 8.69593 19.0801 8.89512 18.812L16.1637 8.81367H16.1435C15.9359 9.00599 15.7316 9.14354 15.5285 9.22617C15.3257 9.30881 15.1003 9.35396 14.8529 9.35989H8.70931V6.66673H19.7884V7.86419ZM27.1372 0.0655823H0.993874C0.480403 0.0655823 0.0655518 0.480412 0.0655518 0.993427V27.1378C0.0655518 27.6502 0.480403 28.0656 0.993874 28.0656H19.6819C24.3123 28.0656 28.0656 24.3139 28.0656 19.6864V0.993427C28.0656 0.480412 27.6499 0.0655823 27.1372 0.0655823Z" fill="url(#paint0_linear_3264_168)"/>
<defs>
<linearGradient id="paint0_linear_3264_168" x1="0.0466947" y1="0.0452235" x2="5.09046" y2="19.5021" gradientUnits="userSpaceOnUse">
<stop stop-color="#56C8D4"/>
<stop offset="1" stop-color="#2B7A92"/>
</linearGradient>
</defs>
</svg>
