<svg width="40" height="40" viewBox="0 0 40 40" fill="none" xmlns="http://www.w3.org/2000/svg">
<path fill-rule="evenodd" clip-rule="evenodd" d="M21.3386 6.5H13.0931C11.1727 6.5 9.60419 8.00657 9.50499 9.90226L9.50001 10.0931V17.8988H11.2346V10.0931C11.2346 9.11555 11.9893 8.31428 12.9479 8.24019L13.0931 8.2346H20.4032V12.8189C20.4032 14.7393 21.9097 16.3078 23.8054 16.407L23.9963 16.412H28.5806V17.8988H30.3178L30.3183 15.5187L30.2958 15.3843L30.2592 15.2529L30.2334 15.0949L30.1913 15.0286L30.1196 14.9411L21.953 6.77421L21.8752 6.7084L21.7948 6.65364L21.6895 6.66894L21.5418 6.58424C21.5012 6.56094 21.4585 6.54182 21.4218 6.52755L21.3386 6.5ZM12.9023 32.7617C11.2151 32.6735 9.83618 31.4213 9.55322 29.7931H11.3404C11.5955 30.515 12.2839 31.0321 13.0931 31.0321H26.7221L26.8673 31.0265C27.6128 30.9689 28.2351 30.4714 28.4748 29.7931H30.2619C29.9684 31.4823 28.4952 32.7667 26.7221 32.7667H13.0931L12.9023 32.7617ZM27.3598 14.6774L22.1378 9.4554V12.8189L22.1434 12.9641C22.2175 13.9227 23.0187 14.6774 23.9963 14.6774H27.3598ZM20.6204 28.154C23.3484 28.154 24.7124 26.24 24.7124 24.15C24.7124 22.06 23.3484 20.146 20.6204 20.146C17.8924 20.146 16.5284 22.06 16.5284 24.15C16.5284 26.24 17.8924 28.154 20.6204 28.154ZM15.7144 24.15C15.7144 26.383 14.4164 28 11.6774 28H8.79541V20.3H11.6774C14.4164 20.3 15.7144 21.917 15.7144 24.15ZM10.4454 26.548H11.6774C13.2064 26.548 14.0314 25.734 14.0314 24.15C14.0314 22.566 13.2064 21.752 11.6774 21.752H10.4454V26.548ZM18.2114 24.15C18.2114 25.503 19.0144 26.625 20.6204 26.625C22.2154 26.625 23.0184 25.503 23.0184 24.15C23.0184 22.797 22.2154 21.675 20.6204 21.675C19.0144 21.675 18.2114 22.797 18.2114 24.15ZM29.6624 28.154C30.4764 28.154 31.2354 27.978 31.8954 27.659V26.042C31.4334 26.46 30.7074 26.68 29.9154 26.68C28.5734 26.68 27.1874 25.932 27.1984 24.238C27.1984 22.379 28.5624 21.609 29.9154 21.609C30.6304 21.609 31.3454 21.829 31.8404 22.214V20.641C31.1804 20.311 30.4104 20.146 29.6404 20.146C27.5834 20.146 25.5154 21.422 25.5044 24.238C25.5044 26.922 27.6054 28.154 29.6624 28.154Z" fill="#3C94A8"/>
</svg>
