<svg width="40" height="40" viewBox="0 0 40 40" fill="none" xmlns="http://www.w3.org/2000/svg">
<path fill-rule="evenodd" clip-rule="evenodd" d="M21.3386 6.5H13.0931C11.1727 6.5 9.60418 8.00657 9.50499 9.90226L9.50001 10.0931V17.8988H11.2346V10.0931C11.2346 9.11555 11.9893 8.31428 12.9479 8.24019L13.0931 8.2346H20.4032V12.8189C20.4032 14.7393 21.9097 16.3078 23.8054 16.407L23.9963 16.412H28.5806V17.8988H30.3178L30.3183 15.5187L30.2958 15.3843L30.2592 15.2529L30.2334 15.0949L30.1913 15.0286L30.1196 14.9411L21.953 6.77421L21.8752 6.7084L21.7948 6.65364L21.6895 6.66894L21.5418 6.58424C21.5012 6.56094 21.4585 6.54182 21.4218 6.52755L21.3386 6.5ZM12.9023 32.7617C11.2151 32.6735 9.83618 31.4213 9.55321 29.7931H11.3404C11.5955 30.515 12.2839 31.0321 13.0931 31.0321H26.7221L26.8673 31.0265C27.6128 30.9689 28.2351 30.4714 28.4748 29.7931H30.2619C29.9684 31.4823 28.4952 32.7667 26.7221 32.7667H13.0931L12.9023 32.7617ZM27.3598 14.6774L22.1378 9.4554V12.8189L22.1434 12.9641C22.2175 13.9227 23.0187 14.6774 23.9963 14.6774H27.3598ZM20.9834 24.15C20.9834 26.24 19.6194 28.154 16.8914 28.154C14.1634 28.154 12.7994 26.24 12.7994 24.15C12.7994 22.06 14.1634 20.146 16.8914 20.146C19.6194 20.146 20.9834 22.06 20.9834 24.15ZM7.94841 28C10.6874 28 11.9854 26.383 11.9854 24.15C11.9854 21.917 10.6874 20.3 7.94841 20.3H5.06641V28H7.94841ZM7.94841 26.548H6.71641V21.752H7.94841C9.47741 21.752 10.3024 22.566 10.3024 24.15C10.3024 25.734 9.47741 26.548 7.94841 26.548ZM16.8914 26.625C15.2854 26.625 14.4824 25.503 14.4824 24.15C14.4824 22.797 15.2854 21.675 16.8914 21.675C18.4864 21.675 19.2894 22.797 19.2894 24.15C19.2894 25.503 18.4864 26.625 16.8914 26.625ZM28.1664 27.659C27.5064 27.978 26.7474 28.154 25.9334 28.154C23.8764 28.154 21.7754 26.922 21.7754 24.238C21.7864 21.422 23.8544 20.146 25.9114 20.146C26.6814 20.146 27.4514 20.311 28.1114 20.641V22.214C27.6164 21.829 26.9014 21.609 26.1864 21.609C24.8334 21.609 23.4694 22.379 23.4694 24.238C23.4584 25.932 24.8444 26.68 26.1864 26.68C26.9784 26.68 27.7044 26.46 28.1664 26.042V27.659ZM30.4324 28L32.3024 25.195L34.1614 28H36.0974L33.3364 24.007L35.9324 20.3H33.9964L32.3024 22.83L30.5974 20.3H28.6724L31.2684 24.007L28.5074 28H30.4324Z" fill="#3C94A8"/>
</svg>
