<svg width="40" height="40" viewBox="0 0 40 40" fill="none" xmlns="http://www.w3.org/2000/svg">
<path fill-rule="evenodd" clip-rule="evenodd" d="M21.4438 6.5H13.125C11.1875 6.5 9.6051 8.01995 9.50502 9.93248L9.5 10.125V18H11.25V10.125C11.25 9.13878 12.0114 8.33039 12.9785 8.25564L13.125 8.25H20.5V12.875C20.5 14.8125 22.0199 16.3949 23.9325 16.495L24.125 16.5H28.75V18H30.5026L30.5032 15.5988L30.4805 15.4632L30.4436 15.3306L30.4175 15.1713L30.3751 15.1043L30.3027 15.0161L22.0636 6.77664L21.9851 6.71025L21.904 6.655L21.7978 6.67044L21.6488 6.58498C21.6078 6.56148 21.5647 6.54219 21.5277 6.52779L21.4438 6.5ZM12.9325 32.995C11.2303 32.9059 9.83916 31.6427 9.55368 30H11.3567C11.6141 30.7282 12.3086 31.25 13.125 31.25H26.875L27.0215 31.2444C27.7737 31.1862 28.4015 30.6843 28.6433 30H30.4463C30.1502 31.7042 28.6639 33 26.875 33H13.125L12.9325 32.995ZM27.5184 14.75L22.25 9.48164V12.875L22.2556 13.0215C22.3304 13.9886 23.1388 14.75 24.125 14.75H27.5184ZM12.0844 28V25.305H13.2944L15.3734 28H17.2764L14.9774 25.096C15.9124 24.799 16.6604 24.128 16.6604 22.808C16.6604 20.861 15.0984 20.3 13.6024 20.3H10.4344V28H12.0844ZM13.6794 23.93H12.0844V21.752H13.6794C14.3724 21.752 14.9774 22.049 14.9774 22.841C14.9774 23.622 14.3724 23.93 13.6794 23.93ZM21.5224 21.785V28H19.8834V21.785H17.5184V20.3H23.8874V21.785H21.5224ZM26.5054 28V25.063H29.9704V23.578H26.5054V21.785H30.2894V20.3H24.8554V28H26.5054Z" fill="#3C94A8"/>
</svg>
