<svg width="24" height="24" viewBox="0 0 24 24" fill="none" xmlns="http://www.w3.org/2000/svg">
<path fill-rule="evenodd" clip-rule="evenodd" d="M15.7657 18.0774C16.0781 18.4028 16.0781 18.9305 15.7657 19.2559C15.4533 19.5814 14.9467 19.5814 14.6343 19.2559L8.23431 12.5893C7.9219 12.2638 7.9219 11.7362 8.23431 11.4107L14.6343 4.74408C14.9467 4.41864 15.4533 4.41864 15.7657 4.74408C16.0781 5.06951 16.0781 5.59715 15.7657 5.92259L9.93137 12L15.7657 18.0774Z" fill="#151616"/>
<mask id="mask0_3145_337" style="mask-type:alpha" maskUnits="userSpaceOnUse" x="8" y="4" width="8" height="16">
<path fill-rule="evenodd" clip-rule="evenodd" d="M15.7657 18.0774C16.0781 18.4028 16.0781 18.9305 15.7657 19.2559C15.4533 19.5814 14.9467 19.5814 14.6343 19.2559L8.23431 12.5893C7.9219 12.2638 7.9219 11.7362 8.23431 11.4107L14.6343 4.74408C14.9467 4.41864 15.4533 4.41864 15.7657 4.74408C16.0781 5.06951 16.0781 5.59715 15.7657 5.92259L9.93137 12L15.7657 18.0774Z" fill="white"/>
</mask>
<g mask="url(#mask0_3145_337)">
</g>
</svg>
