<svg width="24" height="24" viewBox="0 0 24 24" fill="none" xmlns="http://www.w3.org/2000/svg">
<path fill-rule="evenodd" clip-rule="evenodd" d="M12.8604 4.50612C14.0826 3.10932 15.479 2.25 17.0498 2.25C20.225 2.25 22.7998 4.82479 22.7998 8C22.7998 9.4533 22.1043 11.1109 20.8438 12.9597C19.9871 14.2162 18.8843 15.5362 17.5929 16.8922C16.4829 18.0577 15.2958 19.1855 14.1088 20.234C13.6934 20.601 13.3073 20.9321 12.9604 21.222C12.7511 21.3969 12.6005 21.5199 12.5183 21.5857C12.2444 21.8048 11.8552 21.8048 11.5813 21.5857C11.4991 21.5199 11.3485 21.3969 11.1392 21.222C10.7923 20.9321 10.4062 20.601 9.99078 20.234C8.80379 19.1855 7.61668 18.0577 6.5067 16.8922C5.21527 15.5362 4.11256 14.2162 3.25583 12.9597C1.99532 11.1109 1.2998 9.4533 1.2998 8C1.2998 4.82479 3.87459 2.25 7.0498 2.25C8.62064 2.25 10.017 3.10932 11.2392 4.50612C11.5346 4.84365 11.805 5.1969 12.0498 5.55463C12.2947 5.1969 12.565 4.84365 12.8604 4.50612ZM13.1158 19.1098C14.2725 18.088 15.4292 16.9892 16.5067 15.8578C17.7463 14.5562 18.7989 13.2962 19.6044 12.1147C20.7106 10.4924 21.2998 9.08802 21.2998 8C21.2998 5.65321 19.3966 3.75 17.0498 3.75C15.9956 3.75 14.9545 4.39068 13.9892 5.49388C13.6349 5.8988 13.3182 6.33571 13.0452 6.7725C12.8828 7.03232 12.773 7.23057 12.7206 7.33541C12.4442 7.8882 11.6554 7.8882 11.379 7.33541C11.3266 7.23057 11.2168 7.03232 11.0544 6.7725C10.7814 6.33571 10.4647 5.8988 10.1104 5.49388C9.14507 4.39068 8.10397 3.75 7.0498 3.75C4.70302 3.75 2.7998 5.65321 2.7998 8C2.7998 9.08802 3.38904 10.4924 4.49517 12.1147C5.30073 13.2962 6.35335 14.5562 7.59291 15.8578C8.67043 16.9892 9.82707 18.088 10.9838 19.1098C11.3683 19.4493 11.7264 19.757 12.0498 20.0281C12.3732 19.757 12.7314 19.4493 13.1158 19.1098Z" fill="#FF5752"/>
</svg>
