<svg width="24" height="24" viewBox="0 0 24 24" fill="none" xmlns="http://www.w3.org/2000/svg">
<path fill-rule="evenodd" clip-rule="evenodd" d="M16.6949 15.6342C18.0087 14.0753 18.75 12.0956 18.75 10C18.75 5.167 14.8337 1.25 10.001 1.25C5.16803 1.25 1.25 5.16734 1.25 10C1.25 14.832 5.16837 18.75 10.001 18.75C12.0952 18.75 14.0745 18.0097 15.6342 16.6949L21.4697 22.5303C21.7626 22.8232 22.2374 22.8232 22.5303 22.5303C22.8232 22.2374 22.8232 21.7626 22.5303 21.4697L16.6949 15.6342ZM17.25 10C17.25 5.99537 14.0052 2.75 10.001 2.75C5.9964 2.75 2.75 5.99582 2.75 10C2.75 14.0035 5.99677 17.25 10.001 17.25C11.9242 17.25 13.7272 16.4982 15.0734 15.1789C16.4569 13.8233 17.25 11.9752 17.25 10Z" fill="#151616"/>
</svg>
