<svg width="24" height="24" viewBox="0 0 24 24" fill="none" xmlns="http://www.w3.org/2000/svg">
<path fill-rule="evenodd" clip-rule="evenodd" d="M11.9446 3.04993C10.2565 3.04993 8.85392 3.50527 7.76329 4.41095C6.67373 5.31574 5.90948 6.65834 5.47513 8.40809L5.47293 8.41696L5.45399 8.57186V9.65549H4.05L3.89579 9.67426L3.88696 9.67644C3.2536 9.83293 2.74356 10.1002 2.39085 10.4797C2.03587 10.8615 1.84961 11.3471 1.84961 11.9187V15.0994C1.84961 15.6557 2.14952 16.2314 2.56157 16.6631C2.97279 17.094 3.52424 17.4112 4.0591 17.4112H6.17163C6.56797 17.4112 6.88927 17.0899 6.88927 16.6936V8.67021C7.25669 7.24097 7.85298 6.19996 8.68069 5.51478C9.5106 4.82778 10.5893 4.4852 11.9446 4.4852C13.2988 4.4852 14.3652 4.82672 15.1737 5.51112C15.9805 6.19399 16.5477 7.23258 16.8774 8.66131V16.3008L10.5569 19.4915C10.2031 19.6701 10.061 20.1017 10.2397 20.4556C10.4183 20.8094 10.8499 20.9514 11.2037 20.7728L17.8625 17.4112H19.8821L20.0575 17.3868L20.0675 17.384C20.6838 17.2092 21.1777 16.9282 21.5183 16.5414C21.8607 16.1525 22.0396 15.6661 22.0396 15.0994V11.9187C22.0396 11.8426 22.0275 11.7669 22.0038 11.6946C21.7944 11.0575 21.4962 10.5479 21.1058 10.1964C20.7128 9.84254 20.2332 9.65549 19.6783 9.65549H18.3126V8.57276L18.2972 8.43298L18.2955 8.42496C17.9049 6.67151 17.1721 5.32446 16.1017 4.41614C15.0302 3.50695 13.6351 3.04993 11.9446 3.04993ZM3.47147 11.4259C3.60193 11.2948 3.81593 11.1816 4.15027 11.0908H5.45389V15.976H4.059C4.02219 15.976 3.95414 15.955 3.86085 15.895C3.77189 15.8378 3.67592 15.7553 3.58727 15.6592C3.49871 15.5631 3.42106 15.4573 3.36637 15.3555C3.31044 15.2514 3.28479 15.1633 3.28479 15.0994V11.9187C3.28479 11.7107 3.34408 11.5539 3.47147 11.4259ZM18.3127 15.976V11.0908H19.6784C19.8702 11.0908 20.0352 11.1539 20.1852 11.2997C20.3365 11.4467 20.4775 11.683 20.6045 12.0381V15.0994C20.6045 15.3153 20.5451 15.4809 20.4194 15.6174C20.2923 15.7554 20.0859 15.8759 19.7672 15.976H18.3127Z" fill="#151616"/>
</svg>
