<svg width="30" height="30" viewBox="0 0 30 30" fill="none" xmlns="http://www.w3.org/2000/svg">
<path fill-rule="evenodd" clip-rule="evenodd" d="M5.30005 3.34998V26.6H24.6586V3.34998H5.30005ZM4.80005 1.84998H25.1586C25.7109 1.84998 26.1586 2.29769 26.1586 2.84998V27.1C26.1586 27.6523 25.7109 28.1 25.1586 28.1H4.80005C4.24776 28.1 3.80005 27.6523 3.80005 27.1V2.84998C3.80005 2.29769 4.24776 1.84998 4.80005 1.84998ZM9.66896 9.89998C9.25475 9.89998 8.91896 9.56419 8.91896 9.14998C8.91896 8.73576 9.25475 8.39998 9.66896 8.39998H20.1806C20.5949 8.39998 20.9306 8.73576 20.9306 9.14998C20.9306 9.56419 20.5949 9.89998 20.1806 9.89998H9.66896ZM9.77491 15.1C9.3607 15.1 9.02491 14.7642 9.02491 14.35C9.02491 13.9358 9.3607 13.6 9.77491 13.6H16.2513C16.6655 13.6 17.0013 13.9358 17.0013 14.35C17.0013 14.7642 16.6655 15.1 16.2513 15.1H9.77491ZM22.1172 18.8154C22.4263 18.5396 22.9004 18.5665 23.1762 18.8755C23.452 19.1845 23.4251 19.6586 23.1161 19.9344L18.7502 23.8316C18.4657 24.0856 18.0358 24.0856 17.7513 23.8316L15.6494 21.9554C15.3403 21.6796 15.3134 21.2055 15.5893 20.8965C15.8651 20.5875 16.3392 20.5606 16.6482 20.8364L18.2507 22.2668L22.1172 18.8154Z" fill="#151616"/>
<mask id="mask0_51_31991" style="mask-type:alpha" maskUnits="userSpaceOnUse" x="3" y="1" width="24" height="28">
<path fill-rule="evenodd" clip-rule="evenodd" d="M5.30005 3.34998V26.6H24.6586V3.34998H5.30005ZM4.80005 1.84998H25.1586C25.7109 1.84998 26.1586 2.29769 26.1586 2.84998V27.1C26.1586 27.6523 25.7109 28.1 25.1586 28.1H4.80005C4.24776 28.1 3.80005 27.6523 3.80005 27.1V2.84998C3.80005 2.29769 4.24776 1.84998 4.80005 1.84998ZM9.66896 9.89998C9.25475 9.89998 8.91896 9.56419 8.91896 9.14998C8.91896 8.73576 9.25475 8.39998 9.66896 8.39998H20.1806C20.5949 8.39998 20.9306 8.73576 20.9306 9.14998C20.9306 9.56419 20.5949 9.89998 20.1806 9.89998H9.66896ZM9.77491 15.1C9.3607 15.1 9.02491 14.7642 9.02491 14.35C9.02491 13.9358 9.3607 13.6 9.77491 13.6H16.2513C16.6655 13.6 17.0013 13.9358 17.0013 14.35C17.0013 14.7642 16.6655 15.1 16.2513 15.1H9.77491ZM22.1172 18.8154C22.4263 18.5396 22.9004 18.5665 23.1762 18.8755C23.452 19.1845 23.4251 19.6586 23.1161 19.9344L18.7502 23.8316C18.4657 24.0856 18.0358 24.0856 17.7513 23.8316L15.6494 21.9554C15.3403 21.6796 15.3134 21.2055 15.5893 20.8965C15.8651 20.5875 16.3392 20.5606 16.6482 20.8364L18.2507 22.2668L22.1172 18.8154Z" fill="white"/>
</mask>
<g mask="url(#mask0_51_31991)">
</g>
</svg>
