<svg width="30" height="30" viewBox="0 0 30 30" fill="none" xmlns="http://www.w3.org/2000/svg">
<path fill-rule="evenodd" clip-rule="evenodd" d="M17.9479 18.4579C17.5337 18.4579 17.1979 18.7937 17.1979 19.2079V23.2741H4.80005V5.79999H17.1979V9.81719C17.1979 10.2314 17.5337 10.5672 17.9479 10.5672C18.3621 10.5672 18.6979 10.2314 18.6979 9.81719V5.04999C18.6979 4.63577 18.3621 4.29999 17.9479 4.29999H4.05005C3.63584 4.29999 3.30005 4.63577 3.30005 5.04999V24.0241C3.30005 24.4383 3.63584 24.7741 4.05005 24.7741H17.9479C18.3621 24.7741 18.6979 24.4383 18.6979 24.0241V19.2079C18.6979 18.7937 18.3621 18.4579 17.9479 18.4579ZM12.9496 15.2612H25.1112L21.5547 19.0275C21.2704 19.3287 21.284 19.8034 21.5851 20.0877C21.8863 20.3721 22.361 20.3585 22.6453 20.0574L27.3776 15.046C27.6503 14.7572 27.6506 14.306 27.3783 14.0168L22.646 8.992C22.3621 8.69046 21.8874 8.67623 21.5859 8.96021C21.2843 9.2442 21.2701 9.71886 21.5541 10.0204L25.0771 13.7612H12.9496C12.5353 13.7612 12.1996 14.097 12.1996 14.5112C12.1996 14.9255 12.5353 15.2612 12.9496 15.2612Z" fill="#151616"/>
</svg>
