<svg width="30" height="30" viewBox="0 0 30 30" fill="none" xmlns="http://www.w3.org/2000/svg">
<path fill-rule="evenodd" clip-rule="evenodd" d="M6.61231 10.59V12.2079H4.5711L4.3912 12.2298C2.76847 12.6307 1.84998 13.5823 1.84998 15V19.2025C1.84998 20.5389 3.30528 22.0589 4.5711 22.0589H7.36231C7.77652 22.0589 8.11231 21.7231 8.11231 21.3089V10.6829C9.09576 6.82828 11.3396 4.98022 14.99 4.98022C18.6366 4.98022 20.8236 6.82218 21.7056 10.6737V20.9118L13.2456 25.1826C12.8759 25.3693 12.7274 25.8204 12.9141 26.1902C13.1008 26.5599 13.5518 26.7083 13.9216 26.5217L22.7619 22.0589H25.4637L25.6683 22.0304C27.2455 21.5831 28.1299 20.6109 28.1299 19.2025V15C28.1299 14.9204 28.1173 14.8414 28.0924 14.7658C27.5533 13.1254 26.5776 12.2079 25.2082 12.2079H23.2056V10.59L23.1876 10.4269C22.1687 5.8528 19.3836 3.48022 14.99 3.48022C10.6027 3.48022 7.76769 5.84398 6.6344 10.4093L6.61231 10.59ZM25.3556 20.5589H23.2056V13.7079H25.2082C25.8177 13.7079 26.2787 14.1215 26.6299 15.1237V19.2025C26.6299 19.8553 26.2628 20.2807 25.3556 20.5589ZM4.66554 13.7079C3.72308 13.9583 3.34998 14.3632 3.34998 15V19.2025C3.34998 19.7247 4.14865 20.5589 4.5711 20.5589H6.61231V13.7079H4.66554Z" fill="#151616"/>
</svg>
