<svg width="30" height="31" viewBox="0 0 30 31" fill="none" xmlns="http://www.w3.org/2000/svg">
<path fill-rule="evenodd" clip-rule="evenodd" d="M23.9317 26.9792C19.1065 26.9792 14.8729 23.6147 14.8729 19.7792C14.8729 19.4475 14.5835 19.1791 14.2258 19.1791C13.8682 19.1791 13.5787 19.4475 13.5787 19.7792C13.5788 24.254 18.4166 28.1791 23.9317 28.1791C24.2893 28.1791 24.5787 27.9108 24.5787 27.5791C24.5787 27.2475 24.2893 26.9792 23.9317 26.9792Z" fill="#151616" stroke="#151616" stroke-width="0.2"/>
<path fill-rule="evenodd" clip-rule="evenodd" d="M5.61275 4.5C5.7217 4.5 5.83185 4.46983 5.93119 4.40696C11.1169 1.10221 17.8409 0.982134 23.0901 4.02863C23.387 4.2015 23.7593 4.08837 23.9233 3.7766C24.0873 3.46549 23.9795 3.07389 23.6839 2.90229C20.97 1.328 17.8902 0.494476 14.8057 0.500028C11.4916 0.506061 8.17184 1.47329 5.29437 3.30578C5.00586 3.49059 4.9137 3.88654 5.08849 4.1901C5.20456 4.39 5.40567 4.5 5.61275 4.5Z" fill="#151616" stroke="#151616" stroke-width="0.2"/>
<path fill-rule="evenodd" clip-rule="evenodd" d="M27.9232 11.5866C25.5466 7.28186 20.278 4.5 14.5 4.5C8.72198 4.5 3.45339 7.28186 1.0768 11.5866C0.912613 11.884 1.02048 12.2584 1.31652 12.4231C1.61376 12.5872 1.98528 12.4802 2.15067 12.1827C4.31396 8.26326 9.1619 5.7308 14.5 5.7308C19.8381 5.7308 24.6861 8.26326 26.8493 12.1827C26.962 12.3858 27.1705 12.5 27.3863 12.5C27.4869 12.5 27.5888 12.4754 27.6835 12.4231C27.9795 12.2584 28.0874 11.884 27.9232 11.5866Z" fill="#151616" stroke="#151616" stroke-width="0.2"/>
<path fill-rule="evenodd" clip-rule="evenodd" d="M7.01297 19.9165C7.01297 15.7446 10.0771 12.7165 14.2987 12.7165C18.7242 12.7165 21.5844 15.307 21.5844 19.3165C21.5844 19.6482 21.8559 19.9165 22.1915 19.9165C22.5271 19.9165 22.7987 19.6482 22.7987 19.3165C22.7987 14.6513 19.3823 11.5165 14.2987 11.5165C9.4534 11.5165 5.79871 15.1276 5.79871 19.9165C5.79871 23.4227 7.06278 26.3249 9.89931 29.3261C10.0191 29.4526 10.1804 29.5165 10.3428 29.5165C10.491 29.5165 10.6405 29.4632 10.7567 29.3548C11.0022 29.1286 11.0152 28.7489 10.7863 28.5069C8.17629 25.7448 7.01297 23.0959 7.01297 19.9165Z" fill="#151616" stroke="#151616" stroke-width="0.2"/>
<path fill-rule="evenodd" clip-rule="evenodd" d="M14.5 8C7.25755 8 2 12.883 2 19.6112C2 21.4254 2.62379 23.1454 3.29762 24.734C3.42945 25.0467 3.79812 25.1924 4.1143 25.0647C4.43293 24.9352 4.58428 24.5777 4.45244 24.2661C3.82736 22.7938 3.24998 21.2118 3.24998 19.6112C3.24998 13.4941 7.87642 9.22226 14.5 9.22226C20.9135 9.22226 25.75 13.9512 25.75 20.2223C25.75 21.907 24.3486 23.2778 22.625 23.2778C20.9013 23.2778 19.5 21.907 19.5 20.2223C19.5 17.344 17.4443 15.3334 14.5 15.3334C11.5556 15.3334 9.49999 17.344 9.49999 20.2222C9.49999 24.21 11.8071 27.5645 16.1711 29.9236C16.2676 29.9755 16.3713 30 16.4739 30C16.6936 30 16.9072 29.886 17.0207 29.6843C17.188 29.3889 17.0781 29.0171 16.7766 28.8542C12.7775 26.6927 10.75 23.7887 10.75 20.2223C10.75 17.6895 12.6335 16.5556 14.5 16.5556C16.3664 16.5556 18.25 17.6895 18.25 20.2223C18.25 22.5808 20.2129 24.5 22.625 24.5C25.0371 24.5 27 22.5808 27 20.2222C27 13.2542 21.6264 8 14.5 8Z" fill="#151616" stroke="#151616" stroke-width="0.2"/>
</svg>
