<svg width="30" height="30" viewBox="0 0 30 30" fill="none" xmlns="http://www.w3.org/2000/svg">
<path fill-rule="evenodd" clip-rule="evenodd" d="M3.48717 19.6746L3.56655 19.6798C3.67105 19.6952 3.76868 19.7437 3.8444 19.8192C3.93906 19.9137 3.99144 20.0425 3.98961 20.1762L3.9896 23.6288L3.99362 23.7694C4.06563 25.025 5.0966 26.0104 6.37116 26.0104H9.24744L9.32338 26.0151C9.47286 26.0359 9.6058 26.1236 9.6829 26.2557C9.77284 26.4098 9.77284 26.6004 9.6829 26.7545C9.59296 26.9086 9.427 27.0024 9.24856 27H6.37116L6.20351 26.9958C4.42586 26.9077 3.0001 25.4274 3.0001 23.6288V20.1773L3.00548 20.0968C3.04054 19.8607 3.24159 19.6785 3.48717 19.6746ZM26.4974 19.6746L26.5768 19.6798C26.6813 19.6952 26.7789 19.7437 26.8547 19.8192C26.9493 19.9137 27.0017 20.0425 27 20.1762V23.6288L26.9958 23.7965C26.9077 25.5741 25.4274 26.9999 23.6289 26.9999H20.7526L20.6766 26.9952C20.5271 26.9744 20.3942 26.8866 20.3171 26.7545C20.2272 26.6004 20.2272 26.4098 20.3171 26.2557C20.4071 26.1016 20.573 26.0079 20.7514 26.0104L23.6289 26.0104L23.7694 26.0064C25.025 25.9344 26.0104 24.9034 26.0104 23.6288V20.1773L26.0158 20.0968C26.0508 19.8607 26.2518 19.6785 26.4974 19.6746ZM18.4478 19.6747L18.5233 19.6787C18.6966 19.7012 18.8476 19.8143 18.9162 19.9791C18.9947 20.1674 18.9495 20.3846 18.8024 20.526C18.7665 20.5612 18.696 20.6235 18.5925 20.7042C18.419 20.8394 18.2169 20.9748 17.9883 21.1012C17.93 21.1335 17.8705 21.1648 17.8099 21.1951C17.0266 21.5868 16.083 21.8225 15 21.8225C13.917 21.8225 12.9734 21.5868 12.1901 21.1951C11.913 21.0566 11.667 20.9009 11.455 20.7406C11.3791 20.6832 11.3175 20.633 11.271 20.5928L11.1981 20.5265C11.0536 20.3859 11.0088 20.1721 11.0846 19.9856C11.1603 19.799 11.3416 19.677 11.5429 19.677C11.6764 19.677 11.8043 19.731 11.8975 19.8267L11.9628 19.8866L12.074 19.974C12.2215 20.0833 12.4068 20.1971 12.6326 20.31C13.2875 20.6374 14.0696 20.8331 15 20.8331C15.9304 20.8331 16.7125 20.6374 17.3674 20.31C17.5932 20.1971 17.7785 20.0833 17.926 19.974C17.971 19.9407 18.0079 19.9113 18.0372 19.8865L18.1609 19.7749C18.2432 19.7126 18.3434 19.6772 18.4478 19.6747ZM15.5675 11.0459L15.647 11.051C15.7514 11.0663 15.8491 11.1148 15.9248 11.1904C16.0194 11.2849 16.0718 11.4136 16.07 11.5474L16.07 16.1505L16.0654 16.2725C16.0021 17.1184 15.2855 17.7958 14.4247 17.7958H13.8495L13.7736 17.7911C13.6241 17.7703 13.4911 17.6825 13.414 17.5504C13.3241 17.3963 13.3241 17.2057 13.414 17.0516C13.504 16.8975 13.6699 16.8038 13.8484 16.8063L14.4247 16.8063L14.5085 16.8013C14.8366 16.7618 15.0805 16.4916 15.0805 16.1505V11.5485L15.0859 11.4679C15.1209 11.2318 15.322 11.0497 15.5675 11.0459ZM9.81497 11.0459L9.89438 11.051C9.99887 11.0663 10.0965 11.1148 10.1722 11.1904C10.2669 11.2849 10.3193 11.4136 10.3174 11.5474L10.3174 13.2742L10.3127 13.3502C10.2919 13.4996 10.2042 13.6326 10.0721 13.7097C9.918 13.7996 9.7274 13.7996 9.57329 13.7097C9.41919 13.6197 9.32545 13.4538 9.32797 13.2754L9.32798 11.5485L9.33334 11.4679C9.36836 11.2318 9.5694 11.0497 9.81497 11.0459ZM20.1696 11.0459L20.249 11.051C20.3535 11.0663 20.4511 11.1148 20.5268 11.1904C20.6215 11.2849 20.6739 11.4136 20.672 11.5474L20.672 13.2742L20.6673 13.3502C20.6466 13.4996 20.5588 13.6326 20.4267 13.7097C20.2726 13.7996 20.082 13.7996 19.9279 13.7097C19.7738 13.6197 19.6801 13.4538 19.6826 13.2754L19.6826 11.5485L19.688 11.4679C19.723 11.2318 19.924 11.0497 20.1696 11.0459ZM9.24744 3.0001L9.32338 3.00482C9.47287 3.02564 9.60581 3.11338 9.6829 3.24547C9.77284 3.39958 9.77284 3.59018 9.6829 3.74429C9.59295 3.89839 9.427 3.99213 9.24858 3.98961L6.37116 3.9896L6.23058 3.99362C4.97505 4.06563 3.9896 5.0966 3.9896 6.37116V9.24744L3.9849 9.32337C3.96412 9.47286 3.87638 9.6058 3.74429 9.68289C3.59018 9.77284 3.39958 9.77284 3.24547 9.68289C3.09137 9.59295 2.99762 9.427 3.00005 9.24856V6.37116L3.00425 6.2035C3.09231 4.42585 4.57257 3.0001 6.37116 3.0001H9.24744ZM23.6289 3.00005L23.7965 3.00424C25.5742 3.09231 26.9999 4.57256 26.9999 6.37116V9.24744L26.9952 9.32337C26.9744 9.47287 26.8866 9.60581 26.7545 9.68289C26.6004 9.77284 26.4098 9.77284 26.2557 9.68289C26.1016 9.59295 26.0079 9.42699 26.0104 9.24858L26.0104 6.37116L26.0064 6.23058C25.9344 4.97505 24.9034 3.9896 23.6289 3.9896H20.7526L20.6766 3.98489C20.5272 3.96412 20.3942 3.87637 20.3171 3.74429C20.2272 3.59018 20.2272 3.39958 20.3171 3.24547C20.4071 3.09137 20.573 2.99762 20.7515 3.00005H23.6289Z" fill="#151616"/>
<path d="M3.56655 19.6798L3.60284 19.4325L3.59289 19.431L3.58286 19.4304L3.56655 19.6798ZM3.8444 19.8192L4.02101 19.6423H4.02101L3.8444 19.8192ZM3.9896 23.6288L3.7395 23.6288L3.7397 23.636L3.9896 23.6288ZM3.99362 23.7694L3.74362 23.7766L3.74403 23.7837L3.99362 23.7694ZM9.24744 26.0104L9.2629 25.7609L9.25518 25.7604H9.24744V26.0104ZM9.32338 26.0151L9.3578 25.7675L9.34836 25.7662L9.33884 25.7656L9.32338 26.0151ZM9.6829 26.2557L9.89881 26.1297H9.89881L9.6829 26.2557ZM9.6829 26.7545L9.89881 26.8805L9.89881 26.8805L9.6829 26.7545ZM6.37116 27L6.3649 27.25H6.37116V27ZM6.20351 26.9958L6.19114 27.2455L6.19725 27.2457L6.20351 26.9958ZM3.0001 20.1773L2.75066 20.1607L2.7501 20.169V20.1773H3.0001ZM3.00548 20.0968L2.75819 20.0601L2.7567 20.0701L2.75603 20.0801L3.00548 20.0968ZM26.5768 19.6798L26.6131 19.4325L26.6031 19.431L26.5931 19.4304L26.5768 19.6798ZM26.8547 19.8192L27.0313 19.6423L27.0313 19.6423L26.8547 19.8192ZM27 23.6288L27.25 23.6351V23.6288H27ZM26.9958 23.7965L27.2455 23.8089L27.2457 23.8027L26.9958 23.7965ZM20.7526 26.9999L20.737 27.2494L20.7448 27.2499H20.7526V26.9999ZM20.6766 26.9952L20.6422 27.2428L20.6516 27.2441L20.6611 27.2447L20.6766 26.9952ZM20.3171 26.7545L20.533 26.6285V26.6285L20.3171 26.7545ZM20.3171 26.2557L20.1012 26.1297L20.3171 26.2557ZM23.6289 26.0104V26.2605L23.636 26.2603L23.6289 26.0104ZM23.7694 26.0064L23.7766 26.2564L23.7837 26.256L23.7694 26.0064ZM26.0104 20.1773L25.761 20.1607L25.7604 20.169V20.1773H26.0104ZM26.0158 20.0968L25.7685 20.0601L25.767 20.0701L25.7663 20.0802L26.0158 20.0968ZM18.5233 19.6787L18.5555 19.4307L18.546 19.4295L18.5364 19.429L18.5233 19.6787ZM18.9162 19.9791L19.147 19.8829L19.147 19.8829L18.9162 19.9791ZM18.8024 20.526L18.6292 20.3458L18.6274 20.3474L18.8024 20.526ZM18.5925 20.7042L18.4388 20.507H18.4388L18.5925 20.7042ZM17.9883 21.1012L17.8673 20.8825H17.8673L17.9883 21.1012ZM17.8099 21.1951L17.9217 21.4187L17.9217 21.4187L17.8099 21.1951ZM12.1901 21.1951L12.3019 20.9715L12.3019 20.9715L12.1901 21.1951ZM11.455 20.7406L11.3042 20.94L11.3042 20.94L11.455 20.7406ZM11.1981 20.5265L11.0237 20.7058L11.0299 20.7114L11.1981 20.5265ZM11.0846 19.9856L11.3162 20.0796L11.3162 20.0796L11.0846 19.9856ZM11.5429 19.677L11.5429 19.427H11.5428L11.5429 19.677ZM11.9628 19.8866L11.794 20.0709L11.8009 20.0773L11.8083 20.0831L11.9628 19.8866ZM12.074 19.974L11.9194 20.1706L11.9252 20.1749L12.074 19.974ZM12.6326 20.31L12.5208 20.5336L12.6326 20.31ZM17.3674 20.31L17.4792 20.5336L17.3674 20.31ZM17.926 19.974L18.0748 20.1749L18.0748 20.1749L17.926 19.974ZM18.1609 19.7749L18.01 19.5755L18.0014 19.5821L17.9933 19.5893L18.1609 19.7749ZM15.647 11.051L15.6832 10.8037L15.6732 10.8022L15.6632 10.8016L15.647 11.051ZM15.9248 11.1904L16.1014 11.0134L16.1014 11.0134L15.9248 11.1904ZM16.07 16.1505L16.32 16.1598V16.1505H16.07ZM16.0654 16.2725L16.3149 16.2911L16.3153 16.2818L16.0654 16.2725ZM13.8495 17.7958L13.834 18.0453L13.8417 18.0458H13.8495V17.7958ZM13.7736 17.7911L13.7391 18.0387L13.7485 18.04L13.758 18.0406L13.7736 17.7911ZM13.414 17.5504L13.1981 17.6764L13.1981 17.6765L13.414 17.5504ZM14.4247 16.8063L14.4247 17.0563H14.4322L14.4396 17.0559L14.4247 16.8063ZM14.5085 16.8013L14.5233 17.0509L14.5309 17.0504L14.5384 17.0495L14.5085 16.8013ZM15.0805 11.5485L14.8311 11.5319L14.8305 11.5402V11.5485H15.0805ZM15.0859 11.4679L14.8386 11.4312L14.8371 11.4413L14.8364 11.4513L15.0859 11.4679ZM9.89438 11.051L9.93059 10.8037L9.92064 10.8022L9.9106 10.8016L9.89438 11.051ZM10.1722 11.1904L9.99561 11.3673L9.99561 11.3673L10.1722 11.1904ZM10.3174 13.2742L10.5669 13.2897L10.5674 13.282V13.2742L10.3174 13.2742ZM10.3127 13.3502L10.5603 13.3846L10.5616 13.3751L10.5622 13.3656L10.3127 13.3502ZM10.0721 13.7097L10.1981 13.9256L10.1981 13.9256L10.0721 13.7097ZM9.57329 13.7097L9.44728 13.9256H9.44728L9.57329 13.7097ZM9.32798 11.5485L9.07853 11.5319L9.07798 11.5402V11.5485L9.32798 11.5485ZM9.33334 11.4679L9.08604 11.4312L9.08456 11.4412L9.08389 11.4513L9.33334 11.4679ZM20.249 11.051L20.2852 10.8037L20.2753 10.8022L20.2652 10.8016L20.249 11.051ZM20.5268 11.1904L20.3502 11.3673L20.3502 11.3673L20.5268 11.1904ZM20.672 13.2742L20.9216 13.2897L20.922 13.282V13.2742L20.672 13.2742ZM20.6673 13.3502L20.915 13.3846L20.9163 13.3751L20.9169 13.3656L20.6673 13.3502ZM20.4267 13.7097L20.5527 13.9256V13.9256L20.4267 13.7097ZM19.6826 11.5485L19.4331 11.5319L19.4326 11.5402V11.5485L19.6826 11.5485ZM19.688 11.4679L19.4407 11.4312L19.4392 11.4413L19.4385 11.4513L19.688 11.4679ZM9.24744 3.0001L9.26295 2.75058L9.2552 2.7501H9.24744V3.0001ZM9.32338 3.00482L9.35787 2.75721L9.34841 2.7559L9.33889 2.7553L9.32338 3.00482ZM9.6829 3.24547L9.46698 3.37149L9.46698 3.37149L9.6829 3.24547ZM9.6829 3.74429L9.89881 3.87031L9.89881 3.87031L9.6829 3.74429ZM6.37116 3.9896L6.37116 3.7395L6.36402 3.7397L6.37116 3.9896ZM6.23058 3.99362L6.22344 3.74362L6.21627 3.74403L6.23058 3.99362ZM3.9896 9.24744L4.23912 9.26289L4.2396 9.25517V9.24744H3.9896ZM3.9849 9.32337L4.23251 9.35779L4.23383 9.34835L4.23442 9.33883L3.9849 9.32337ZM3.74429 9.68289L3.8703 9.89881L3.87031 9.89881L3.74429 9.68289ZM3.24547 9.68289L3.11945 9.89881L3.11946 9.89881L3.24547 9.68289ZM3.00005 6.37116L2.75005 6.36489V6.37116H3.00005ZM3.00425 6.2035L2.75448 6.19113L2.75432 6.19724L3.00425 6.2035ZM23.6289 3.00005L23.6351 2.75005H23.6289V3.00005ZM23.7965 3.00424L23.8089 2.75447L23.8028 2.75432L23.7965 3.00424ZM26.9999 9.24744L27.2494 9.26294L27.2499 9.2552V9.24744H26.9999ZM26.9952 9.32337L27.2428 9.35786L27.2441 9.34841L27.2447 9.33888L26.9952 9.32337ZM26.7545 9.68289L26.6285 9.46698L26.6285 9.46698L26.7545 9.68289ZM26.0104 6.37116L26.2605 6.37116L26.2603 6.36401L26.0104 6.37116ZM26.0064 6.23058L26.2564 6.22343L26.256 6.21626L26.0064 6.23058ZM20.7526 3.9896L20.7371 4.23912L20.7448 4.2396H20.7526V3.9896ZM20.6766 3.98489L20.6422 4.23251L20.6517 4.23383L20.6612 4.23442L20.6766 3.98489ZM20.3171 3.74429L20.1012 3.8703L20.1012 3.87031L20.3171 3.74429ZM20.3171 3.24547L20.1012 3.11945L20.1012 3.11945L20.3171 3.24547ZM3.47086 19.9241L3.55024 19.9293L3.58286 19.4304L3.50348 19.4252L3.47086 19.9241ZM3.53025 19.9272C3.58202 19.9348 3.63034 19.9588 3.66779 19.9962L4.02101 19.6423C3.90702 19.5285 3.76009 19.4556 3.60284 19.4325L3.53025 19.9272ZM3.66779 19.9962C3.71462 20.0429 3.74054 20.1066 3.73963 20.1728L4.23958 20.1796C4.24234 19.9783 4.16349 19.7845 4.02101 19.6423L3.66779 19.9962ZM3.73961 20.1762L3.7396 23.6288L4.2396 23.6288L4.23961 20.1762L3.73961 20.1762ZM3.7397 23.636L3.74372 23.7766L4.24352 23.7623L4.2395 23.6217L3.7397 23.636ZM3.74403 23.7837C3.8236 25.171 4.96354 26.2604 6.37116 26.2604V25.7604C5.22967 25.7604 4.30767 24.8789 4.24321 23.7551L3.74403 23.7837ZM6.37116 26.2604H9.24744V25.7604H6.37116V26.2604ZM9.23198 26.2599L9.30792 26.2646L9.33884 25.7656L9.2629 25.7609L9.23198 26.2599ZM9.28896 26.2627C9.36332 26.2731 9.42895 26.3166 9.46698 26.3817L9.89881 26.1297C9.78265 25.9307 9.5824 25.7987 9.3578 25.7675L9.28896 26.2627ZM9.46698 26.3817C9.51148 26.458 9.51148 26.5523 9.46698 26.6285L9.89881 26.8805C10.0342 26.6486 10.0342 26.3617 9.89881 26.1297L9.46698 26.3817ZM9.46698 26.6285C9.42249 26.7047 9.34035 26.7512 9.25196 26.75L9.24516 27.2499C9.51365 27.2536 9.76342 27.1125 9.89881 26.8805L9.46698 26.6285ZM9.24856 26.75H6.37116V27.25H9.24856V26.75ZM6.37742 26.75L6.20977 26.7458L6.19725 27.2457L6.3649 27.2499L6.37742 26.75ZM6.21588 26.7461C4.57052 26.6646 3.2501 25.2934 3.2501 23.6288H2.7501C2.7501 25.5615 4.28119 27.1508 6.19114 27.2454L6.21588 26.7461ZM3.2501 23.6288V20.1773H2.7501V23.6288H3.2501ZM3.24955 20.1939L3.25492 20.1134L2.75603 20.0801L2.75066 20.1607L3.24955 20.1939ZM3.25276 20.1335C3.27016 20.0163 3.37005 19.9265 3.49113 19.9246L3.48321 19.4247C3.11312 19.4305 2.81091 19.705 2.75819 20.0601L3.25276 20.1335ZM26.4811 19.9241L26.5605 19.9293L26.5931 19.4304L26.5137 19.4252L26.4811 19.9241ZM26.5405 19.9272C26.5923 19.9348 26.6406 19.9588 26.678 19.9962L27.0313 19.6423C26.9173 19.5285 26.7703 19.4556 26.6131 19.4325L26.5405 19.9272ZM26.678 19.9962C26.7249 20.0429 26.7508 20.1067 26.75 20.173L27.2499 20.1795C27.2526 19.9783 27.1737 19.7845 27.0313 19.6423L26.678 19.9962ZM26.75 20.1762V23.6288H27.25V20.1762H26.75ZM26.75 23.6226L26.7458 23.7902L27.2457 23.8027L27.2499 23.6351L26.75 23.6226ZM26.7461 23.7841C26.6646 25.4295 25.2934 26.7499 23.6289 26.7499V27.2499C25.5615 27.2499 27.1508 25.7188 27.2455 23.8089L26.7461 23.7841ZM23.6289 26.7499H20.7526V27.2499H23.6289V26.7499ZM20.7681 26.7504L20.6922 26.7457L20.6611 27.2447L20.737 27.2494L20.7681 26.7504ZM20.7111 26.7476C20.6367 26.7372 20.5711 26.6937 20.533 26.6285L20.1012 26.8805C20.2174 27.0796 20.4176 27.2115 20.6422 27.2428L20.7111 26.7476ZM20.533 26.6285C20.4885 26.5523 20.4885 26.458 20.533 26.3817L20.1012 26.1297C19.9658 26.3617 19.9658 26.6486 20.1012 26.8805L20.533 26.6285ZM20.533 26.3817C20.5775 26.3055 20.6596 26.2591 20.7479 26.2604L20.755 25.7604C20.4864 25.7566 20.2366 25.8977 20.1012 26.1297L20.533 26.3817ZM20.7514 26.2604L23.6289 26.2604L23.6289 25.7604L20.7514 25.7604L20.7514 26.2604ZM23.636 26.2603L23.7766 26.2563L23.7623 25.7565L23.6217 25.7605L23.636 26.2603ZM23.7837 26.256C25.171 26.1764 26.2604 25.0365 26.2604 23.6288H25.7604C25.7604 24.7703 24.8789 25.6923 23.7551 25.7568L23.7837 26.256ZM26.2604 23.6288V20.1773H25.7604V23.6288H26.2604ZM26.2599 20.1939L26.2652 20.1134L25.7663 20.0802L25.761 20.1607L26.2599 20.1939ZM26.2631 20.1335C26.2804 20.0163 26.3803 19.9265 26.5014 19.9246L26.4935 19.4247C26.1234 19.4305 25.8211 19.705 25.7685 20.0601L26.2631 20.1335ZM18.4347 19.9244L18.5101 19.9283L18.5364 19.429L18.461 19.425L18.4347 19.9244ZM18.4911 19.9266C18.5768 19.9377 18.6515 19.9937 18.6855 20.0752L19.147 19.8829C19.0436 19.6348 18.8164 19.4646 18.5555 19.4307L18.4911 19.9266ZM18.6855 20.0752C18.7243 20.1684 18.7019 20.2758 18.6292 20.3458L18.9757 20.7062C19.1971 20.4933 19.2651 20.1664 19.147 19.8829L18.6855 20.0752ZM18.6274 20.3474C18.6005 20.3739 18.5377 20.4298 18.4388 20.507L18.7462 20.9013C18.8542 20.8171 18.9326 20.7485 18.9774 20.7045L18.6274 20.3474ZM18.4388 20.507C18.2756 20.6342 18.0844 20.7624 17.8673 20.8825L18.1093 21.32C18.3493 21.1873 18.5624 21.0446 18.7462 20.9013L18.4388 20.507ZM17.8673 20.8825C17.812 20.9131 17.7556 20.9428 17.6981 20.9715L17.9217 21.4187C17.9854 21.3869 18.048 21.3539 18.1093 21.32L17.8673 20.8825ZM17.6981 20.9715C16.9513 21.3449 16.0462 21.5725 15 21.5725V22.0725C16.1199 22.0725 17.102 21.8286 17.9217 21.4187L17.6981 20.9715ZM15 21.5725C13.9538 21.5725 13.0487 21.3449 12.3019 20.9715L12.0783 21.4187C12.898 21.8286 13.8802 22.0725 15 22.0725V21.5725ZM12.3019 20.9715C12.0388 20.84 11.8058 20.6925 11.6058 20.5412L11.3042 20.94C11.5282 21.1094 11.7873 21.2732 12.0783 21.4187L12.3019 20.9715ZM11.6058 20.5412C11.5338 20.4867 11.4765 20.44 11.4344 20.4036L11.1076 20.782C11.1586 20.8261 11.2244 20.8796 11.3042 20.94L11.6058 20.5412ZM11.4392 20.4079L11.3664 20.3416L11.0299 20.7114L11.1027 20.7777L11.4392 20.4079ZM11.3725 20.3474C11.3008 20.2776 11.2788 20.1718 11.3162 20.0796L10.853 19.8915C10.7389 20.1723 10.8064 20.4942 11.0238 20.7057L11.3725 20.3474ZM11.3162 20.0796C11.3537 19.9874 11.4433 19.927 11.5429 19.927L11.5428 19.427C11.2398 19.427 10.967 19.6107 10.853 19.8915L11.3162 20.0796ZM11.5429 19.927C11.6089 19.927 11.6722 19.9537 11.7183 20.0011L12.0767 19.6524C11.9365 19.5083 11.7439 19.427 11.5429 19.427L11.5429 19.927ZM11.7286 20.0111L11.794 20.0709L12.1316 19.7022L12.0663 19.6424L11.7286 20.0111ZM11.8083 20.0831L11.9195 20.1705L12.2285 19.7775L12.1173 19.69L11.8083 20.0831ZM11.9252 20.1749C12.0861 20.2941 12.2841 20.4152 12.5208 20.5336L12.7444 20.0864C12.5295 19.9789 12.3569 19.8724 12.2228 19.7731L11.9252 20.1749ZM12.5208 20.5336C13.2126 20.8795 14.0334 21.0831 15 21.0831V20.5831C14.1058 20.5831 13.3623 20.3953 12.7444 20.0864L12.5208 20.5336ZM15 21.0831C15.9666 21.0831 16.7874 20.8795 17.4792 20.5336L17.2556 20.0864C16.6377 20.3953 15.8942 20.5831 15 20.5831V21.0831ZM17.4792 20.5336C17.7159 20.4152 17.9139 20.2941 18.0748 20.1749L17.7772 19.7731C17.6431 19.8724 17.4705 19.9789 17.2556 20.0864L17.4792 20.5336ZM18.0748 20.1749C18.1235 20.1388 18.1648 20.1061 18.1987 20.0774L17.8758 19.6956C17.8511 19.7166 17.8184 19.7426 17.7772 19.7731L18.0748 20.1749ZM18.2048 20.0721L18.3285 19.9604L17.9933 19.5893L17.8697 19.701L18.2048 20.0721ZM18.3118 19.9742C18.3525 19.9433 18.4021 19.9258 18.4537 19.9246L18.4419 19.4248C18.2847 19.4285 18.1339 19.4818 18.01 19.5755L18.3118 19.9742ZM15.5513 11.2953L15.6307 11.3005L15.6632 10.8016L15.5838 10.7964L15.5513 11.2953ZM15.6107 11.2984C15.6624 11.306 15.7107 11.3299 15.7482 11.3673L16.1014 11.0134C15.9874 10.8997 15.8404 10.8267 15.6832 10.8037L15.6107 11.2984ZM15.7482 11.3673C15.795 11.4141 15.8209 11.4778 15.82 11.5439L16.32 11.5508C16.3227 11.3495 16.2439 11.1557 16.1014 11.0134L15.7482 11.3673ZM15.82 11.5474L15.82 16.1505H16.32L16.32 11.5474L15.82 11.5474ZM15.8202 16.1412L15.8156 16.2631L16.3153 16.2818L16.3198 16.1598L15.8202 16.1412ZM15.8161 16.2538C15.7624 16.9706 15.1533 17.5458 14.4247 17.5458V18.0458C15.4178 18.0458 16.2417 17.2661 16.3147 16.2911L15.8161 16.2538ZM14.4247 17.5458H13.8495V18.0458H14.4247V17.5458ZM13.865 17.5463L13.7891 17.5416L13.758 18.0406L13.834 18.0453L13.865 17.5463ZM13.808 17.5435C13.7336 17.5331 13.668 17.4896 13.6299 17.4244L13.1981 17.6765C13.3143 17.8755 13.5145 18.0074 13.7391 18.0387L13.808 17.5435ZM13.63 17.4244C13.5855 17.3482 13.5855 17.2539 13.63 17.1776L13.1981 16.9256C13.0627 17.1576 13.0627 17.4445 13.1981 17.6764L13.63 17.4244ZM13.63 17.1776C13.6744 17.1014 13.7566 17.055 13.8448 17.0563L13.8519 16.5563C13.5833 16.5525 13.3335 16.6936 13.1981 16.9256L13.63 17.1776ZM13.8483 17.0563L14.4247 17.0563L14.4248 16.5563L13.8484 16.5563L13.8483 17.0563ZM14.4396 17.0559L14.5233 17.0509L14.4936 16.5518L14.4099 16.5567L14.4396 17.0559ZM14.5384 17.0495C14.9923 16.9948 15.3305 16.6179 15.3305 16.1505H14.8305C14.8305 16.3653 14.6809 16.5287 14.4785 16.5531L14.5384 17.0495ZM15.3305 16.1505V11.5485H14.8305V16.1505H15.3305ZM15.33 11.5651L15.3353 11.4845L14.8364 11.4513L14.8311 11.5319L15.33 11.5651ZM15.3332 11.5046C15.3506 11.3875 15.4504 11.2977 15.5714 11.2958L15.5636 10.7959C15.1935 10.8017 14.8913 11.0762 14.8386 11.4312L15.3332 11.5046ZM9.79875 11.2953L9.87817 11.3005L9.9106 10.8016L9.83119 10.7964L9.79875 11.2953ZM9.85818 11.2984C9.90986 11.306 9.95815 11.3299 9.99561 11.3673L10.3488 11.0134C10.2348 10.8997 10.0879 10.8267 9.93059 10.8037L9.85818 11.2984ZM9.99561 11.3673C10.0424 11.4141 10.0684 11.4778 10.0675 11.5439L10.5674 11.5508C10.5702 11.3495 10.4913 11.1557 10.3488 11.0134L9.99561 11.3673ZM10.0674 11.5474L10.0674 13.2742L10.5674 13.2742L10.5674 11.5474L10.0674 11.5474ZM10.0679 13.2588L10.0632 13.3347L10.5622 13.3656L10.5669 13.2897L10.0679 13.2588ZM10.0651 13.3157C10.0548 13.3901 10.0112 13.4557 9.94608 13.4938L10.1981 13.9256C10.3972 13.8094 10.5291 13.6092 10.5603 13.3846L10.0651 13.3157ZM9.94609 13.4938C9.86985 13.5383 9.77555 13.5383 9.69931 13.4938L9.44728 13.9256C9.67925 14.061 9.96615 14.061 10.1981 13.9256L9.94609 13.4938ZM9.69931 13.4938C9.62307 13.4493 9.5767 13.3672 9.57795 13.2789L9.078 13.2718C9.0742 13.5404 9.2153 13.7902 9.44728 13.9256L9.69931 13.4938ZM9.57797 13.2754L9.57798 11.5485L9.07798 11.5485L9.07797 13.2754L9.57797 13.2754ZM9.57743 11.5651L9.58279 11.4845L9.08389 11.4513L9.07853 11.5319L9.57743 11.5651ZM9.58063 11.5046C9.59801 11.3875 9.69786 11.2977 9.81888 11.2958L9.81106 10.7959C9.44095 10.8017 9.13872 11.0762 9.08604 11.4312L9.58063 11.5046ZM20.1534 11.2953L20.2328 11.3005L20.2652 10.8016L20.1858 10.7964L20.1534 11.2953ZM20.2128 11.2984C20.2645 11.306 20.3128 11.3299 20.3502 11.3673L20.7034 11.0135C20.5895 10.8997 20.4425 10.8267 20.2852 10.8037L20.2128 11.2984ZM20.3502 11.3673C20.3971 11.4141 20.423 11.4778 20.4221 11.5439L20.922 11.5508C20.9248 11.3495 20.8459 11.1557 20.7034 11.0134L20.3502 11.3673ZM20.422 11.5474L20.422 13.2742L20.922 13.2742L20.922 11.5474L20.422 11.5474ZM20.4225 13.2588L20.4178 13.3347L20.9169 13.3656L20.9216 13.2897L20.4225 13.2588ZM20.4197 13.3157C20.4094 13.3901 20.3659 13.4557 20.3007 13.4938L20.5527 13.9256C20.7518 13.8094 20.8837 13.6092 20.915 13.3846L20.4197 13.3157ZM20.3007 13.4938C20.2245 13.5383 20.1302 13.5383 20.0539 13.4938L19.8019 13.9256C20.0339 14.061 20.3208 14.061 20.5527 13.9256L20.3007 13.4938ZM20.0539 13.4938C19.9777 13.4493 19.9313 13.3672 19.9326 13.2789L19.4326 13.2718C19.4288 13.5404 19.5699 13.7902 19.8019 13.9256L20.0539 13.4938ZM19.9326 13.2754L19.9326 11.5485L19.4326 11.5485L19.4326 13.2754L19.9326 13.2754ZM19.932 11.5651L19.9374 11.4845L19.4385 11.4513L19.4331 11.5319L19.932 11.5651ZM19.9352 11.5046C19.9526 11.3875 20.0525 11.2977 20.1735 11.2958L20.1657 10.7959C19.7956 10.8017 19.4933 11.0762 19.4407 11.4312L19.9352 11.5046ZM9.23194 3.24962L9.30787 3.25434L9.33889 2.7553L9.26295 2.75058L9.23194 3.24962ZM9.2889 3.25243C9.36331 3.2628 9.42896 3.30634 9.46698 3.37149L9.89881 3.11945C9.78265 2.92043 9.58242 2.78849 9.35787 2.75721L9.2889 3.25243ZM9.46698 3.37149C9.51148 3.44773 9.51148 3.54203 9.46698 3.61827L9.89881 3.87031C10.0342 3.63833 10.0342 3.35142 9.89881 3.11945L9.46698 3.37149ZM9.46698 3.61827C9.42249 3.6945 9.34039 3.74088 9.25211 3.73963L9.24505 4.23958C9.51361 4.24338 9.76342 4.10228 9.89881 3.87031L9.46698 3.61827ZM9.24858 3.73961L6.37116 3.7396L6.37116 4.2396L9.24858 4.23961L9.24858 3.73961ZM6.36402 3.7397L6.22344 3.74372L6.23773 4.24351L6.3783 4.2395L6.36402 3.7397ZM6.21627 3.74403C4.829 3.8236 3.7396 4.96354 3.7396 6.37116H4.2396C4.2396 5.22967 5.1211 4.30767 6.2449 4.24321L6.21627 3.74403ZM3.7396 6.37116V9.24744H4.2396V6.37116H3.7396ZM3.74008 9.23198L3.73537 9.30792L4.23442 9.33883L4.23912 9.26289L3.74008 9.23198ZM3.73728 9.28895C3.72694 9.36332 3.68342 9.42895 3.61827 9.46698L3.87031 9.89881C4.06933 9.78264 4.20129 9.5824 4.23251 9.35779L3.73728 9.28895ZM3.61827 9.46698C3.54203 9.51148 3.44773 9.51148 3.37149 9.46698L3.11946 9.89881C3.35143 10.0342 3.63833 10.0342 3.8703 9.89881L3.61827 9.46698ZM3.37149 9.46698C3.29526 9.42249 3.24882 9.34035 3.25002 9.25196L2.75007 9.24516C2.74642 9.51365 2.88749 9.76342 3.11945 9.89881L3.37149 9.46698ZM3.25005 9.24856V6.37116H2.75005V9.24856H3.25005ZM3.24997 6.37742L3.25417 6.20976L2.75432 6.19724L2.75012 6.36489L3.24997 6.37742ZM3.25394 6.21587C3.33545 4.57052 4.70663 3.2501 6.37116 3.2501V2.7501C4.4385 2.7501 2.84917 4.28119 2.75455 6.19113L3.25394 6.21587ZM6.37116 3.2501H9.24744V2.7501H6.37116V3.2501ZM23.6226 3.24997L23.7903 3.25416L23.8028 2.75432L23.6351 2.75012L23.6226 3.24997ZM23.7841 3.25394C25.4295 3.33545 26.7499 4.70663 26.7499 6.37116H27.2499C27.2499 4.4385 25.7188 2.84917 23.8089 2.75455L23.7841 3.25394ZM26.7499 6.37116V9.24744H27.2499V6.37116H26.7499ZM26.7504 9.23193L26.7457 9.30787L27.2447 9.33888L27.2494 9.26294L26.7504 9.23193ZM26.7476 9.28889C26.7372 9.36331 26.6937 9.42896 26.6285 9.46698L26.8806 9.89881C27.0796 9.78265 27.2115 9.58242 27.2428 9.35786L26.7476 9.28889ZM26.6285 9.46698C26.5523 9.51148 26.458 9.51148 26.3817 9.46698L26.1297 9.89881C26.3617 10.0342 26.6486 10.0342 26.8806 9.89881L26.6285 9.46698ZM26.3817 9.46698C26.3055 9.42249 26.2591 9.34038 26.2604 9.25211L25.7604 9.24505C25.7566 9.5136 25.8977 9.76342 26.1297 9.89881L26.3817 9.46698ZM26.2604 9.24858L26.2604 6.37116L25.7604 6.37115L25.7604 9.24858L26.2604 9.24858ZM26.2603 6.36401L26.2563 6.22344L25.7565 6.23772L25.7605 6.3783L26.2603 6.36401ZM26.256 6.21626C26.1764 4.829 25.0365 3.7396 23.6289 3.7396V4.2396C24.7703 4.2396 25.6923 5.1211 25.7568 6.2449L26.256 6.21626ZM23.6289 3.7396H20.7526V4.2396H23.6289V3.7396ZM20.768 3.74008L20.6921 3.73537L20.6612 4.23442L20.7371 4.23912L20.768 3.74008ZM20.7111 3.73728C20.6367 3.72694 20.5711 3.68342 20.533 3.61826L20.1012 3.87031C20.2174 4.06932 20.4176 4.20129 20.6422 4.23251L20.7111 3.73728ZM20.533 3.61827C20.4885 3.54203 20.4885 3.44773 20.533 3.37149L20.1012 3.11945C19.9658 3.35142 19.9658 3.63833 20.1012 3.8703L20.533 3.61827ZM20.533 3.37149C20.5775 3.29526 20.6597 3.24882 20.7481 3.25002L20.7548 2.75007C20.4864 2.74642 20.2366 2.88748 20.1012 3.11945L20.533 3.37149ZM20.7515 3.25005H23.6289V2.75005H20.7515V3.25005Z" fill="#151616"/>
<mask id="mask0_0_10466" style="mask-type:alpha" maskUnits="userSpaceOnUse" x="2" y="2" width="26" height="26">
<path fill-rule="evenodd" clip-rule="evenodd" d="M3.48717 19.6746L3.56655 19.6798C3.67105 19.6952 3.76868 19.7437 3.8444 19.8192C3.93906 19.9137 3.99144 20.0425 3.98961 20.1762L3.9896 23.6288L3.99362 23.7694C4.06563 25.025 5.0966 26.0104 6.37116 26.0104H9.24744L9.32338 26.0151C9.47286 26.0359 9.6058 26.1236 9.6829 26.2557C9.77284 26.4098 9.77284 26.6004 9.6829 26.7545C9.59296 26.9086 9.427 27.0024 9.24856 27H6.37116L6.20351 26.9958C4.42586 26.9077 3.0001 25.4274 3.0001 23.6288V20.1773L3.00548 20.0968C3.04054 19.8607 3.24159 19.6785 3.48717 19.6746ZM26.4974 19.6746L26.5768 19.6798C26.6813 19.6952 26.7789 19.7437 26.8547 19.8192C26.9493 19.9137 27.0017 20.0425 27 20.1762V23.6288L26.9958 23.7965C26.9077 25.5741 25.4274 26.9999 23.6289 26.9999H20.7526L20.6766 26.9952C20.5271 26.9744 20.3942 26.8866 20.3171 26.7545C20.2272 26.6004 20.2272 26.4098 20.3171 26.2557C20.4071 26.1016 20.573 26.0079 20.7514 26.0104L23.6289 26.0104L23.7694 26.0064C25.025 25.9344 26.0104 24.9034 26.0104 23.6288V20.1773L26.0158 20.0968C26.0508 19.8607 26.2518 19.6785 26.4974 19.6746ZM18.4478 19.6747L18.5233 19.6787C18.6966 19.7012 18.8476 19.8143 18.9162 19.9791C18.9947 20.1674 18.9495 20.3846 18.8024 20.526C18.7665 20.5612 18.696 20.6235 18.5925 20.7042C18.419 20.8394 18.2169 20.9748 17.9883 21.1012C17.93 21.1335 17.8705 21.1648 17.8099 21.1951C17.0266 21.5868 16.083 21.8225 15 21.8225C13.917 21.8225 12.9734 21.5868 12.1901 21.1951C11.913 21.0566 11.667 20.9009 11.455 20.7406C11.3791 20.6832 11.3175 20.633 11.271 20.5928L11.1981 20.5265C11.0536 20.3859 11.0088 20.1721 11.0846 19.9856C11.1603 19.799 11.3416 19.677 11.5429 19.677C11.6764 19.677 11.8043 19.731 11.8975 19.8267L11.9628 19.8866L12.074 19.974C12.2215 20.0833 12.4068 20.1971 12.6326 20.31C13.2875 20.6374 14.0696 20.8331 15 20.8331C15.9304 20.8331 16.7125 20.6374 17.3674 20.31C17.5932 20.1971 17.7785 20.0833 17.926 19.974C17.971 19.9407 18.0079 19.9113 18.0372 19.8865L18.1609 19.7749C18.2432 19.7126 18.3434 19.6772 18.4478 19.6747ZM15.5675 11.0459L15.647 11.051C15.7514 11.0663 15.8491 11.1148 15.9248 11.1904C16.0194 11.2849 16.0718 11.4136 16.07 11.5474L16.07 16.1505L16.0654 16.2725C16.0021 17.1184 15.2855 17.7958 14.4247 17.7958H13.8495L13.7736 17.7911C13.6241 17.7703 13.4911 17.6825 13.414 17.5504C13.3241 17.3963 13.3241 17.2057 13.414 17.0516C13.504 16.8975 13.6699 16.8038 13.8484 16.8063L14.4247 16.8063L14.5085 16.8013C14.8366 16.7618 15.0805 16.4916 15.0805 16.1505V11.5485L15.0859 11.4679C15.1209 11.2318 15.322 11.0497 15.5675 11.0459ZM9.81497 11.0459L9.89438 11.051C9.99887 11.0663 10.0965 11.1148 10.1722 11.1904C10.2669 11.2849 10.3193 11.4136 10.3174 11.5474L10.3174 13.2742L10.3127 13.3502C10.2919 13.4996 10.2042 13.6326 10.0721 13.7097C9.918 13.7996 9.7274 13.7996 9.57329 13.7097C9.41919 13.6197 9.32545 13.4538 9.32797 13.2754L9.32798 11.5485L9.33334 11.4679C9.36836 11.2318 9.5694 11.0497 9.81497 11.0459ZM20.1696 11.0459L20.249 11.051C20.3535 11.0663 20.4511 11.1148 20.5268 11.1904C20.6215 11.2849 20.6739 11.4136 20.672 11.5474L20.672 13.2742L20.6673 13.3502C20.6466 13.4996 20.5588 13.6326 20.4267 13.7097C20.2726 13.7996 20.082 13.7996 19.9279 13.7097C19.7738 13.6197 19.6801 13.4538 19.6826 13.2754L19.6826 11.5485L19.688 11.4679C19.723 11.2318 19.924 11.0497 20.1696 11.0459ZM9.24744 3.0001L9.32338 3.00482C9.47287 3.02564 9.60581 3.11338 9.6829 3.24547C9.77284 3.39958 9.77284 3.59018 9.6829 3.74429C9.59295 3.89839 9.427 3.99213 9.24858 3.98961L6.37116 3.9896L6.23058 3.99362C4.97505 4.06563 3.9896 5.0966 3.9896 6.37116V9.24744L3.9849 9.32337C3.96412 9.47286 3.87638 9.6058 3.74429 9.68289C3.59018 9.77284 3.39958 9.77284 3.24547 9.68289C3.09137 9.59295 2.99762 9.427 3.00005 9.24856V6.37116L3.00425 6.2035C3.09231 4.42585 4.57257 3.0001 6.37116 3.0001H9.24744ZM23.6289 3.00005L23.7965 3.00424C25.5742 3.09231 26.9999 4.57256 26.9999 6.37116V9.24744L26.9952 9.32337C26.9744 9.47287 26.8866 9.60581 26.7545 9.68289C26.6004 9.77284 26.4098 9.77284 26.2557 9.68289C26.1016 9.59295 26.0079 9.42699 26.0104 9.24858L26.0104 6.37116L26.0064 6.23058C25.9344 4.97505 24.9034 3.9896 23.6289 3.9896H20.7526L20.6766 3.98489C20.5272 3.96412 20.3942 3.87637 20.3171 3.74429C20.2272 3.59018 20.2272 3.39958 20.3171 3.24547C20.4071 3.09137 20.573 2.99762 20.7515 3.00005H23.6289Z" fill="white"/>
<path d="M3.56655 19.6798L3.60284 19.4325L3.59289 19.431L3.58286 19.4304L3.56655 19.6798ZM3.8444 19.8192L4.02101 19.6423H4.02101L3.8444 19.8192ZM3.9896 23.6288L3.7395 23.6288L3.7397 23.636L3.9896 23.6288ZM3.99362 23.7694L3.74362 23.7766L3.74403 23.7837L3.99362 23.7694ZM9.24744 26.0104L9.2629 25.7609L9.25518 25.7604H9.24744V26.0104ZM9.32338 26.0151L9.3578 25.7675L9.34836 25.7662L9.33884 25.7656L9.32338 26.0151ZM9.6829 26.2557L9.89881 26.1297H9.89881L9.6829 26.2557ZM9.6829 26.7545L9.89881 26.8805L9.89881 26.8805L9.6829 26.7545ZM6.37116 27L6.3649 27.25H6.37116V27ZM6.20351 26.9958L6.19114 27.2455L6.19725 27.2457L6.20351 26.9958ZM3.0001 20.1773L2.75066 20.1607L2.7501 20.169V20.1773H3.0001ZM3.00548 20.0968L2.75819 20.0601L2.7567 20.0701L2.75603 20.0801L3.00548 20.0968ZM26.5768 19.6798L26.6131 19.4325L26.6031 19.431L26.5931 19.4304L26.5768 19.6798ZM26.8547 19.8192L27.0313 19.6423L27.0313 19.6423L26.8547 19.8192ZM27 23.6288L27.25 23.6351V23.6288H27ZM26.9958 23.7965L27.2455 23.8089L27.2457 23.8027L26.9958 23.7965ZM20.7526 26.9999L20.737 27.2494L20.7448 27.2499H20.7526V26.9999ZM20.6766 26.9952L20.6422 27.2428L20.6516 27.2441L20.6611 27.2447L20.6766 26.9952ZM20.3171 26.7545L20.533 26.6285V26.6285L20.3171 26.7545ZM20.3171 26.2557L20.1012 26.1297L20.3171 26.2557ZM23.6289 26.0104V26.2605L23.636 26.2603L23.6289 26.0104ZM23.7694 26.0064L23.7766 26.2564L23.7837 26.256L23.7694 26.0064ZM26.0104 20.1773L25.761 20.1607L25.7604 20.169V20.1773H26.0104ZM26.0158 20.0968L25.7685 20.0601L25.767 20.0701L25.7663 20.0802L26.0158 20.0968ZM18.5233 19.6787L18.5555 19.4307L18.546 19.4295L18.5364 19.429L18.5233 19.6787ZM18.9162 19.9791L19.147 19.8829L19.147 19.8829L18.9162 19.9791ZM18.8024 20.526L18.6292 20.3458L18.6274 20.3474L18.8024 20.526ZM18.5925 20.7042L18.4388 20.507H18.4388L18.5925 20.7042ZM17.9883 21.1012L17.8673 20.8825H17.8673L17.9883 21.1012ZM17.8099 21.1951L17.9217 21.4187L17.9217 21.4187L17.8099 21.1951ZM12.1901 21.1951L12.3019 20.9715L12.3019 20.9715L12.1901 21.1951ZM11.455 20.7406L11.3042 20.94L11.3042 20.94L11.455 20.7406ZM11.1981 20.5265L11.0237 20.7058L11.0299 20.7114L11.1981 20.5265ZM11.0846 19.9856L11.3162 20.0796L11.3162 20.0796L11.0846 19.9856ZM11.5429 19.677L11.5429 19.427H11.5428L11.5429 19.677ZM11.9628 19.8866L11.794 20.0709L11.8009 20.0773L11.8083 20.0831L11.9628 19.8866ZM12.074 19.974L11.9194 20.1706L11.9252 20.1749L12.074 19.974ZM12.6326 20.31L12.5208 20.5336L12.6326 20.31ZM17.3674 20.31L17.4792 20.5336L17.3674 20.31ZM17.926 19.974L18.0748 20.1749L18.0748 20.1749L17.926 19.974ZM18.1609 19.7749L18.01 19.5755L18.0014 19.5821L17.9933 19.5893L18.1609 19.7749ZM15.647 11.051L15.6832 10.8037L15.6732 10.8022L15.6632 10.8016L15.647 11.051ZM15.9248 11.1904L16.1014 11.0134L16.1014 11.0134L15.9248 11.1904ZM16.07 16.1505L16.32 16.1598V16.1505H16.07ZM16.0654 16.2725L16.3149 16.2911L16.3153 16.2818L16.0654 16.2725ZM13.8495 17.7958L13.834 18.0453L13.8417 18.0458H13.8495V17.7958ZM13.7736 17.7911L13.7391 18.0387L13.7485 18.04L13.758 18.0406L13.7736 17.7911ZM13.414 17.5504L13.1981 17.6764L13.1981 17.6765L13.414 17.5504ZM14.4247 16.8063L14.4247 17.0563H14.4322L14.4396 17.0559L14.4247 16.8063ZM14.5085 16.8013L14.5233 17.0509L14.5309 17.0504L14.5384 17.0495L14.5085 16.8013ZM15.0805 11.5485L14.8311 11.5319L14.8305 11.5402V11.5485H15.0805ZM15.0859 11.4679L14.8386 11.4312L14.8371 11.4413L14.8364 11.4513L15.0859 11.4679ZM9.89438 11.051L9.93059 10.8037L9.92064 10.8022L9.9106 10.8016L9.89438 11.051ZM10.1722 11.1904L9.99561 11.3673L9.99561 11.3673L10.1722 11.1904ZM10.3174 13.2742L10.5669 13.2897L10.5674 13.282V13.2742L10.3174 13.2742ZM10.3127 13.3502L10.5603 13.3846L10.5616 13.3751L10.5622 13.3656L10.3127 13.3502ZM10.0721 13.7097L10.1981 13.9256L10.1981 13.9256L10.0721 13.7097ZM9.57329 13.7097L9.44728 13.9256H9.44728L9.57329 13.7097ZM9.32798 11.5485L9.07853 11.5319L9.07798 11.5402V11.5485L9.32798 11.5485ZM9.33334 11.4679L9.08604 11.4312L9.08456 11.4412L9.08389 11.4513L9.33334 11.4679ZM20.249 11.051L20.2852 10.8037L20.2753 10.8022L20.2652 10.8016L20.249 11.051ZM20.5268 11.1904L20.3502 11.3673L20.3502 11.3673L20.5268 11.1904ZM20.672 13.2742L20.9216 13.2897L20.922 13.282V13.2742L20.672 13.2742ZM20.6673 13.3502L20.915 13.3846L20.9163 13.3751L20.9169 13.3656L20.6673 13.3502ZM20.4267 13.7097L20.5527 13.9256V13.9256L20.4267 13.7097ZM19.6826 11.5485L19.4331 11.5319L19.4326 11.5402V11.5485L19.6826 11.5485ZM19.688 11.4679L19.4407 11.4312L19.4392 11.4413L19.4385 11.4513L19.688 11.4679ZM9.24744 3.0001L9.26295 2.75058L9.2552 2.7501H9.24744V3.0001ZM9.32338 3.00482L9.35787 2.75721L9.34841 2.7559L9.33889 2.7553L9.32338 3.00482ZM9.6829 3.24547L9.46698 3.37149L9.46698 3.37149L9.6829 3.24547ZM9.6829 3.74429L9.89881 3.87031L9.89881 3.87031L9.6829 3.74429ZM6.37116 3.9896L6.37116 3.7395L6.36402 3.7397L6.37116 3.9896ZM6.23058 3.99362L6.22344 3.74362L6.21627 3.74403L6.23058 3.99362ZM3.9896 9.24744L4.23912 9.26289L4.2396 9.25517V9.24744H3.9896ZM3.9849 9.32337L4.23251 9.35779L4.23383 9.34835L4.23442 9.33883L3.9849 9.32337ZM3.74429 9.68289L3.8703 9.89881L3.87031 9.89881L3.74429 9.68289ZM3.24547 9.68289L3.11945 9.89881L3.11946 9.89881L3.24547 9.68289ZM3.00005 6.37116L2.75005 6.36489V6.37116H3.00005ZM3.00425 6.2035L2.75448 6.19113L2.75432 6.19724L3.00425 6.2035ZM23.6289 3.00005L23.6351 2.75005H23.6289V3.00005ZM23.7965 3.00424L23.8089 2.75447L23.8028 2.75432L23.7965 3.00424ZM26.9999 9.24744L27.2494 9.26294L27.2499 9.2552V9.24744H26.9999ZM26.9952 9.32337L27.2428 9.35786L27.2441 9.34841L27.2447 9.33888L26.9952 9.32337ZM26.7545 9.68289L26.6285 9.46698L26.6285 9.46698L26.7545 9.68289ZM26.0104 6.37116L26.2605 6.37116L26.2603 6.36401L26.0104 6.37116ZM26.0064 6.23058L26.2564 6.22343L26.256 6.21626L26.0064 6.23058ZM20.7526 3.9896L20.7371 4.23912L20.7448 4.2396H20.7526V3.9896ZM20.6766 3.98489L20.6422 4.23251L20.6517 4.23383L20.6612 4.23442L20.6766 3.98489ZM20.3171 3.74429L20.1012 3.8703L20.1012 3.87031L20.3171 3.74429ZM20.3171 3.24547L20.1012 3.11945L20.1012 3.11945L20.3171 3.24547ZM3.47086 19.9241L3.55024 19.9293L3.58286 19.4304L3.50348 19.4252L3.47086 19.9241ZM3.53025 19.9272C3.58202 19.9348 3.63034 19.9588 3.66779 19.9962L4.02101 19.6423C3.90702 19.5285 3.76009 19.4556 3.60284 19.4325L3.53025 19.9272ZM3.66779 19.9962C3.71462 20.0429 3.74054 20.1066 3.73963 20.1728L4.23958 20.1796C4.24234 19.9783 4.16349 19.7845 4.02101 19.6423L3.66779 19.9962ZM3.73961 20.1762L3.7396 23.6288L4.2396 23.6288L4.23961 20.1762L3.73961 20.1762ZM3.7397 23.636L3.74372 23.7766L4.24352 23.7623L4.2395 23.6217L3.7397 23.636ZM3.74403 23.7837C3.8236 25.171 4.96354 26.2604 6.37116 26.2604V25.7604C5.22967 25.7604 4.30767 24.8789 4.24321 23.7551L3.74403 23.7837ZM6.37116 26.2604H9.24744V25.7604H6.37116V26.2604ZM9.23198 26.2599L9.30792 26.2646L9.33884 25.7656L9.2629 25.7609L9.23198 26.2599ZM9.28896 26.2627C9.36332 26.2731 9.42895 26.3166 9.46698 26.3817L9.89881 26.1297C9.78265 25.9307 9.5824 25.7987 9.3578 25.7675L9.28896 26.2627ZM9.46698 26.3817C9.51148 26.458 9.51148 26.5523 9.46698 26.6285L9.89881 26.8805C10.0342 26.6486 10.0342 26.3617 9.89881 26.1297L9.46698 26.3817ZM9.46698 26.6285C9.42249 26.7047 9.34035 26.7512 9.25196 26.75L9.24516 27.2499C9.51365 27.2536 9.76342 27.1125 9.89881 26.8805L9.46698 26.6285ZM9.24856 26.75H6.37116V27.25H9.24856V26.75ZM6.37742 26.75L6.20977 26.7458L6.19725 27.2457L6.3649 27.2499L6.37742 26.75ZM6.21588 26.7461C4.57052 26.6646 3.2501 25.2934 3.2501 23.6288H2.7501C2.7501 25.5615 4.28119 27.1508 6.19114 27.2454L6.21588 26.7461ZM3.2501 23.6288V20.1773H2.7501V23.6288H3.2501ZM3.24955 20.1939L3.25492 20.1134L2.75603 20.0801L2.75066 20.1607L3.24955 20.1939ZM3.25276 20.1335C3.27016 20.0163 3.37005 19.9265 3.49113 19.9246L3.48321 19.4247C3.11312 19.4305 2.81091 19.705 2.75819 20.0601L3.25276 20.1335ZM26.4811 19.9241L26.5605 19.9293L26.5931 19.4304L26.5137 19.4252L26.4811 19.9241ZM26.5405 19.9272C26.5923 19.9348 26.6406 19.9588 26.678 19.9962L27.0313 19.6423C26.9173 19.5285 26.7703 19.4556 26.6131 19.4325L26.5405 19.9272ZM26.678 19.9962C26.7249 20.0429 26.7508 20.1067 26.75 20.173L27.2499 20.1795C27.2526 19.9783 27.1737 19.7845 27.0313 19.6423L26.678 19.9962ZM26.75 20.1762V23.6288H27.25V20.1762H26.75ZM26.75 23.6226L26.7458 23.7902L27.2457 23.8027L27.2499 23.6351L26.75 23.6226ZM26.7461 23.7841C26.6646 25.4295 25.2934 26.7499 23.6289 26.7499V27.2499C25.5615 27.2499 27.1508 25.7188 27.2455 23.8089L26.7461 23.7841ZM23.6289 26.7499H20.7526V27.2499H23.6289V26.7499ZM20.7681 26.7504L20.6922 26.7457L20.6611 27.2447L20.737 27.2494L20.7681 26.7504ZM20.7111 26.7476C20.6367 26.7372 20.5711 26.6937 20.533 26.6285L20.1012 26.8805C20.2174 27.0796 20.4176 27.2115 20.6422 27.2428L20.7111 26.7476ZM20.533 26.6285C20.4885 26.5523 20.4885 26.458 20.533 26.3817L20.1012 26.1297C19.9658 26.3617 19.9658 26.6486 20.1012 26.8805L20.533 26.6285ZM20.533 26.3817C20.5775 26.3055 20.6596 26.2591 20.7479 26.2604L20.755 25.7604C20.4864 25.7566 20.2366 25.8977 20.1012 26.1297L20.533 26.3817ZM20.7514 26.2604L23.6289 26.2604L23.6289 25.7604L20.7514 25.7604L20.7514 26.2604ZM23.636 26.2603L23.7766 26.2563L23.7623 25.7565L23.6217 25.7605L23.636 26.2603ZM23.7837 26.256C25.171 26.1764 26.2604 25.0365 26.2604 23.6288H25.7604C25.7604 24.7703 24.8789 25.6923 23.7551 25.7568L23.7837 26.256ZM26.2604 23.6288V20.1773H25.7604V23.6288H26.2604ZM26.2599 20.1939L26.2652 20.1134L25.7663 20.0802L25.761 20.1607L26.2599 20.1939ZM26.2631 20.1335C26.2804 20.0163 26.3803 19.9265 26.5014 19.9246L26.4935 19.4247C26.1234 19.4305 25.8211 19.705 25.7685 20.0601L26.2631 20.1335ZM18.4347 19.9244L18.5101 19.9283L18.5364 19.429L18.461 19.425L18.4347 19.9244ZM18.4911 19.9266C18.5768 19.9377 18.6515 19.9937 18.6855 20.0752L19.147 19.8829C19.0436 19.6348 18.8164 19.4646 18.5555 19.4307L18.4911 19.9266ZM18.6855 20.0752C18.7243 20.1684 18.7019 20.2758 18.6292 20.3458L18.9757 20.7062C19.1971 20.4933 19.2651 20.1664 19.147 19.8829L18.6855 20.0752ZM18.6274 20.3474C18.6005 20.3739 18.5377 20.4298 18.4388 20.507L18.7462 20.9013C18.8542 20.8171 18.9326 20.7485 18.9774 20.7045L18.6274 20.3474ZM18.4388 20.507C18.2756 20.6342 18.0844 20.7624 17.8673 20.8825L18.1093 21.32C18.3493 21.1873 18.5624 21.0446 18.7462 20.9013L18.4388 20.507ZM17.8673 20.8825C17.812 20.9131 17.7556 20.9428 17.6981 20.9715L17.9217 21.4187C17.9854 21.3869 18.048 21.3539 18.1093 21.32L17.8673 20.8825ZM17.6981 20.9715C16.9513 21.3449 16.0462 21.5725 15 21.5725V22.0725C16.1199 22.0725 17.102 21.8286 17.9217 21.4187L17.6981 20.9715ZM15 21.5725C13.9538 21.5725 13.0487 21.3449 12.3019 20.9715L12.0783 21.4187C12.898 21.8286 13.8802 22.0725 15 22.0725V21.5725ZM12.3019 20.9715C12.0388 20.84 11.8058 20.6925 11.6058 20.5412L11.3042 20.94C11.5282 21.1094 11.7873 21.2732 12.0783 21.4187L12.3019 20.9715ZM11.6058 20.5412C11.5338 20.4867 11.4765 20.44 11.4344 20.4036L11.1076 20.782C11.1586 20.8261 11.2244 20.8796 11.3042 20.94L11.6058 20.5412ZM11.4392 20.4079L11.3664 20.3416L11.0299 20.7114L11.1027 20.7777L11.4392 20.4079ZM11.3725 20.3474C11.3008 20.2776 11.2788 20.1718 11.3162 20.0796L10.853 19.8915C10.7389 20.1723 10.8064 20.4942 11.0238 20.7057L11.3725 20.3474ZM11.3162 20.0796C11.3537 19.9874 11.4433 19.927 11.5429 19.927L11.5428 19.427C11.2398 19.427 10.967 19.6107 10.853 19.8915L11.3162 20.0796ZM11.5429 19.927C11.6089 19.927 11.6722 19.9537 11.7183 20.0011L12.0767 19.6524C11.9365 19.5083 11.7439 19.427 11.5429 19.427L11.5429 19.927ZM11.7286 20.0111L11.794 20.0709L12.1316 19.7022L12.0663 19.6424L11.7286 20.0111ZM11.8083 20.0831L11.9195 20.1705L12.2285 19.7775L12.1173 19.69L11.8083 20.0831ZM11.9252 20.1749C12.0861 20.2941 12.2841 20.4152 12.5208 20.5336L12.7444 20.0864C12.5295 19.9789 12.3569 19.8724 12.2228 19.7731L11.9252 20.1749ZM12.5208 20.5336C13.2126 20.8795 14.0334 21.0831 15 21.0831V20.5831C14.1058 20.5831 13.3623 20.3953 12.7444 20.0864L12.5208 20.5336ZM15 21.0831C15.9666 21.0831 16.7874 20.8795 17.4792 20.5336L17.2556 20.0864C16.6377 20.3953 15.8942 20.5831 15 20.5831V21.0831ZM17.4792 20.5336C17.7159 20.4152 17.9139 20.2941 18.0748 20.1749L17.7772 19.7731C17.6431 19.8724 17.4705 19.9789 17.2556 20.0864L17.4792 20.5336ZM18.0748 20.1749C18.1235 20.1388 18.1648 20.1061 18.1987 20.0774L17.8758 19.6956C17.8511 19.7166 17.8184 19.7426 17.7772 19.7731L18.0748 20.1749ZM18.2048 20.0721L18.3285 19.9604L17.9933 19.5893L17.8697 19.701L18.2048 20.0721ZM18.3118 19.9742C18.3525 19.9433 18.4021 19.9258 18.4537 19.9246L18.4419 19.4248C18.2847 19.4285 18.1339 19.4818 18.01 19.5755L18.3118 19.9742ZM15.5513 11.2953L15.6307 11.3005L15.6632 10.8016L15.5838 10.7964L15.5513 11.2953ZM15.6107 11.2984C15.6624 11.306 15.7107 11.3299 15.7482 11.3673L16.1014 11.0134C15.9874 10.8997 15.8404 10.8267 15.6832 10.8037L15.6107 11.2984ZM15.7482 11.3673C15.795 11.4141 15.8209 11.4778 15.82 11.5439L16.32 11.5508C16.3227 11.3495 16.2439 11.1557 16.1014 11.0134L15.7482 11.3673ZM15.82 11.5474L15.82 16.1505H16.32L16.32 11.5474L15.82 11.5474ZM15.8202 16.1412L15.8156 16.2631L16.3153 16.2818L16.3198 16.1598L15.8202 16.1412ZM15.8161 16.2538C15.7624 16.9706 15.1533 17.5458 14.4247 17.5458V18.0458C15.4178 18.0458 16.2417 17.2661 16.3147 16.2911L15.8161 16.2538ZM14.4247 17.5458H13.8495V18.0458H14.4247V17.5458ZM13.865 17.5463L13.7891 17.5416L13.758 18.0406L13.834 18.0453L13.865 17.5463ZM13.808 17.5435C13.7336 17.5331 13.668 17.4896 13.6299 17.4244L13.1981 17.6765C13.3143 17.8755 13.5145 18.0074 13.7391 18.0387L13.808 17.5435ZM13.63 17.4244C13.5855 17.3482 13.5855 17.2539 13.63 17.1776L13.1981 16.9256C13.0627 17.1576 13.0627 17.4445 13.1981 17.6764L13.63 17.4244ZM13.63 17.1776C13.6744 17.1014 13.7566 17.055 13.8448 17.0563L13.8519 16.5563C13.5833 16.5525 13.3335 16.6936 13.1981 16.9256L13.63 17.1776ZM13.8483 17.0563L14.4247 17.0563L14.4248 16.5563L13.8484 16.5563L13.8483 17.0563ZM14.4396 17.0559L14.5233 17.0509L14.4936 16.5518L14.4099 16.5567L14.4396 17.0559ZM14.5384 17.0495C14.9923 16.9948 15.3305 16.6179 15.3305 16.1505H14.8305C14.8305 16.3653 14.6809 16.5287 14.4785 16.5531L14.5384 17.0495ZM15.3305 16.1505V11.5485H14.8305V16.1505H15.3305ZM15.33 11.5651L15.3353 11.4845L14.8364 11.4513L14.8311 11.5319L15.33 11.5651ZM15.3332 11.5046C15.3506 11.3875 15.4504 11.2977 15.5714 11.2958L15.5636 10.7959C15.1935 10.8017 14.8913 11.0762 14.8386 11.4312L15.3332 11.5046ZM9.79875 11.2953L9.87817 11.3005L9.9106 10.8016L9.83119 10.7964L9.79875 11.2953ZM9.85818 11.2984C9.90986 11.306 9.95815 11.3299 9.99561 11.3673L10.3488 11.0134C10.2348 10.8997 10.0879 10.8267 9.93059 10.8037L9.85818 11.2984ZM9.99561 11.3673C10.0424 11.4141 10.0684 11.4778 10.0675 11.5439L10.5674 11.5508C10.5702 11.3495 10.4913 11.1557 10.3488 11.0134L9.99561 11.3673ZM10.0674 11.5474L10.0674 13.2742L10.5674 13.2742L10.5674 11.5474L10.0674 11.5474ZM10.0679 13.2588L10.0632 13.3347L10.5622 13.3656L10.5669 13.2897L10.0679 13.2588ZM10.0651 13.3157C10.0548 13.3901 10.0112 13.4557 9.94608 13.4938L10.1981 13.9256C10.3972 13.8094 10.5291 13.6092 10.5603 13.3846L10.0651 13.3157ZM9.94609 13.4938C9.86985 13.5383 9.77555 13.5383 9.69931 13.4938L9.44728 13.9256C9.67925 14.061 9.96615 14.061 10.1981 13.9256L9.94609 13.4938ZM9.69931 13.4938C9.62307 13.4493 9.5767 13.3672 9.57795 13.2789L9.078 13.2718C9.0742 13.5404 9.2153 13.7902 9.44728 13.9256L9.69931 13.4938ZM9.57797 13.2754L9.57798 11.5485L9.07798 11.5485L9.07797 13.2754L9.57797 13.2754ZM9.57743 11.5651L9.58279 11.4845L9.08389 11.4513L9.07853 11.5319L9.57743 11.5651ZM9.58063 11.5046C9.59801 11.3875 9.69786 11.2977 9.81888 11.2958L9.81106 10.7959C9.44095 10.8017 9.13872 11.0762 9.08604 11.4312L9.58063 11.5046ZM20.1534 11.2953L20.2328 11.3005L20.2652 10.8016L20.1858 10.7964L20.1534 11.2953ZM20.2128 11.2984C20.2645 11.306 20.3128 11.3299 20.3502 11.3673L20.7034 11.0135C20.5895 10.8997 20.4425 10.8267 20.2852 10.8037L20.2128 11.2984ZM20.3502 11.3673C20.3971 11.4141 20.423 11.4778 20.4221 11.5439L20.922 11.5508C20.9248 11.3495 20.8459 11.1557 20.7034 11.0134L20.3502 11.3673ZM20.422 11.5474L20.422 13.2742L20.922 13.2742L20.922 11.5474L20.422 11.5474ZM20.4225 13.2588L20.4178 13.3347L20.9169 13.3656L20.9216 13.2897L20.4225 13.2588ZM20.4197 13.3157C20.4094 13.3901 20.3659 13.4557 20.3007 13.4938L20.5527 13.9256C20.7518 13.8094 20.8837 13.6092 20.915 13.3846L20.4197 13.3157ZM20.3007 13.4938C20.2245 13.5383 20.1302 13.5383 20.0539 13.4938L19.8019 13.9256C20.0339 14.061 20.3208 14.061 20.5527 13.9256L20.3007 13.4938ZM20.0539 13.4938C19.9777 13.4493 19.9313 13.3672 19.9326 13.2789L19.4326 13.2718C19.4288 13.5404 19.5699 13.7902 19.8019 13.9256L20.0539 13.4938ZM19.9326 13.2754L19.9326 11.5485L19.4326 11.5485L19.4326 13.2754L19.9326 13.2754ZM19.932 11.5651L19.9374 11.4845L19.4385 11.4513L19.4331 11.5319L19.932 11.5651ZM19.9352 11.5046C19.9526 11.3875 20.0525 11.2977 20.1735 11.2958L20.1657 10.7959C19.7956 10.8017 19.4933 11.0762 19.4407 11.4312L19.9352 11.5046ZM9.23194 3.24962L9.30787 3.25434L9.33889 2.7553L9.26295 2.75058L9.23194 3.24962ZM9.2889 3.25243C9.36331 3.2628 9.42896 3.30634 9.46698 3.37149L9.89881 3.11945C9.78265 2.92043 9.58242 2.78849 9.35787 2.75721L9.2889 3.25243ZM9.46698 3.37149C9.51148 3.44773 9.51148 3.54203 9.46698 3.61827L9.89881 3.87031C10.0342 3.63833 10.0342 3.35142 9.89881 3.11945L9.46698 3.37149ZM9.46698 3.61827C9.42249 3.6945 9.34039 3.74088 9.25211 3.73963L9.24505 4.23958C9.51361 4.24338 9.76342 4.10228 9.89881 3.87031L9.46698 3.61827ZM9.24858 3.73961L6.37116 3.7396L6.37116 4.2396L9.24858 4.23961L9.24858 3.73961ZM6.36402 3.7397L6.22344 3.74372L6.23773 4.24351L6.3783 4.2395L6.36402 3.7397ZM6.21627 3.74403C4.829 3.8236 3.7396 4.96354 3.7396 6.37116H4.2396C4.2396 5.22967 5.1211 4.30767 6.2449 4.24321L6.21627 3.74403ZM3.7396 6.37116V9.24744H4.2396V6.37116H3.7396ZM3.74008 9.23198L3.73537 9.30792L4.23442 9.33883L4.23912 9.26289L3.74008 9.23198ZM3.73728 9.28895C3.72694 9.36332 3.68342 9.42895 3.61827 9.46698L3.87031 9.89881C4.06933 9.78264 4.20129 9.5824 4.23251 9.35779L3.73728 9.28895ZM3.61827 9.46698C3.54203 9.51148 3.44773 9.51148 3.37149 9.46698L3.11946 9.89881C3.35143 10.0342 3.63833 10.0342 3.8703 9.89881L3.61827 9.46698ZM3.37149 9.46698C3.29526 9.42249 3.24882 9.34035 3.25002 9.25196L2.75007 9.24516C2.74642 9.51365 2.88749 9.76342 3.11945 9.89881L3.37149 9.46698ZM3.25005 9.24856V6.37116H2.75005V9.24856H3.25005ZM3.24997 6.37742L3.25417 6.20976L2.75432 6.19724L2.75012 6.36489L3.24997 6.37742ZM3.25394 6.21587C3.33545 4.57052 4.70663 3.2501 6.37116 3.2501V2.7501C4.4385 2.7501 2.84917 4.28119 2.75455 6.19113L3.25394 6.21587ZM6.37116 3.2501H9.24744V2.7501H6.37116V3.2501ZM23.6226 3.24997L23.7903 3.25416L23.8028 2.75432L23.6351 2.75012L23.6226 3.24997ZM23.7841 3.25394C25.4295 3.33545 26.7499 4.70663 26.7499 6.37116H27.2499C27.2499 4.4385 25.7188 2.84917 23.8089 2.75455L23.7841 3.25394ZM26.7499 6.37116V9.24744H27.2499V6.37116H26.7499ZM26.7504 9.23193L26.7457 9.30787L27.2447 9.33888L27.2494 9.26294L26.7504 9.23193ZM26.7476 9.28889C26.7372 9.36331 26.6937 9.42896 26.6285 9.46698L26.8806 9.89881C27.0796 9.78265 27.2115 9.58242 27.2428 9.35786L26.7476 9.28889ZM26.6285 9.46698C26.5523 9.51148 26.458 9.51148 26.3817 9.46698L26.1297 9.89881C26.3617 10.0342 26.6486 10.0342 26.8806 9.89881L26.6285 9.46698ZM26.3817 9.46698C26.3055 9.42249 26.2591 9.34038 26.2604 9.25211L25.7604 9.24505C25.7566 9.5136 25.8977 9.76342 26.1297 9.89881L26.3817 9.46698ZM26.2604 9.24858L26.2604 6.37116L25.7604 6.37115L25.7604 9.24858L26.2604 9.24858ZM26.2603 6.36401L26.2563 6.22344L25.7565 6.23772L25.7605 6.3783L26.2603 6.36401ZM26.256 6.21626C26.1764 4.829 25.0365 3.7396 23.6289 3.7396V4.2396C24.7703 4.2396 25.6923 5.1211 25.7568 6.2449L26.256 6.21626ZM23.6289 3.7396H20.7526V4.2396H23.6289V3.7396ZM20.768 3.74008L20.6921 3.73537L20.6612 4.23442L20.7371 4.23912L20.768 3.74008ZM20.7111 3.73728C20.6367 3.72694 20.5711 3.68342 20.533 3.61826L20.1012 3.87031C20.2174 4.06932 20.4176 4.20129 20.6422 4.23251L20.7111 3.73728ZM20.533 3.61827C20.4885 3.54203 20.4885 3.44773 20.533 3.37149L20.1012 3.11945C19.9658 3.35142 19.9658 3.63833 20.1012 3.8703L20.533 3.61827ZM20.533 3.37149C20.5775 3.29526 20.6597 3.24882 20.7481 3.25002L20.7548 2.75007C20.4864 2.74642 20.2366 2.88748 20.1012 3.11945L20.533 3.37149ZM20.7515 3.25005H23.6289V2.75005H20.7515V3.25005Z" fill="white"/>
</mask>
<g mask="url(#mask0_0_10466)">
</g>
</svg>
