<svg width="30" height="30" viewBox="0 0 30 30" fill="none" xmlns="http://www.w3.org/2000/svg">
<path fill-rule="evenodd" clip-rule="evenodd" d="M16.3565 2.65202e-05C17.5552 -0.00412705 18.706 0.479769 19.5536 1.34439C20.3447 2.15137 20.8107 3.22776 20.866 4.35975L20.8715 4.60309V10.4629H25.257C25.6673 10.4629 26 10.8022 26 11.2208V27.242C26 27.6606 25.6673 28 25.257 28H4.74305C4.33267 28 4 27.6606 4 27.242V11.2208C4 10.8022 4.33267 10.4629 4.74305 10.4629H9.12848V4.68167C9.12814 2.19932 11.0235 0.16219 13.4393 0.00864538L13.6538 2.21473e-05L16.3565 2.65202e-05ZM20.1285 11.9788C20.1191 11.9788 20.1097 11.9786 20.1003 11.9782H9.89968C9.89034 11.9786 9.88095 11.9788 9.87152 11.9788C9.8621 11.9788 9.85271 11.9786 9.84337 11.9782H5.48551V26.4836H24.5134V11.9782H20.1567C20.1516 11.9784 20.1465 11.9786 20.1414 11.9787C20.1371 11.9787 20.1328 11.9788 20.1285 11.9788ZM19.3855 4.60052L19.3855 10.4629H10.6146V4.68156L10.6197 4.49769C10.7118 2.85467 12.033 1.54362 13.6662 1.51584L16.359 1.51594L16.5596 1.52201C17.2914 1.56894 17.9824 1.8855 18.5028 2.41631C19.0705 2.99538 19.3882 3.78158 19.3855 4.60052ZM15.7363 17.6572C15.6871 17.2873 15.3762 17.0021 15 17.0021C14.5896 17.0021 14.257 17.3415 14.257 17.7601V21.6836L14.2637 21.7865C14.3129 22.1565 14.6238 22.4416 15 22.4416C15.4104 22.4416 15.743 22.1023 15.743 21.6836V17.7601L15.7363 17.6572Z" fill="#151616"/>
</svg>
