<svg width="30" height="30" viewBox="0 0 30 30" fill="none" xmlns="http://www.w3.org/2000/svg">
<path fill-rule="evenodd" clip-rule="evenodd" d="M4.52759 17.3272C4.52759 17.6483 4.78823 17.909 5.10939 17.909C5.43054 17.909 5.69118 17.6483 5.69118 17.3272V14.2622L8.3454 15.7946C8.43733 15.8482 8.53739 15.8726 8.6363 15.8726C8.83644 15.8726 9.03309 15.7679 9.14014 15.5817C9.30188 15.3036 9.20646 14.9475 8.9272 14.787L6.27305 13.2546L8.9272 11.7221C9.20646 11.5616 9.30188 11.2055 9.14014 10.9274C8.97956 10.6481 8.62234 10.5539 8.3454 10.7145L5.69118 12.2469V9.18202C5.69118 8.86087 5.43054 8.60022 5.10939 8.60022C4.78823 8.60022 4.52759 8.86087 4.52759 9.18202V12.2468L1.87348 10.7144C1.59538 10.5561 1.23932 10.6492 1.07874 10.9273C0.917005 11.2054 1.01242 11.5615 1.29168 11.7221L3.94596 13.2546L1.29168 14.787C1.01242 14.9476 0.917005 15.3037 1.07874 15.5818C1.1858 15.7691 1.38244 15.8727 1.58258 15.8727C1.68149 15.8727 1.78156 15.8482 1.87348 15.7947L4.52759 14.2623V17.3272ZM14.4182 17.3272C14.4182 17.6483 14.6789 17.909 15 17.909C15.3212 17.909 15.5818 17.6483 15.5818 17.3272V14.2622L18.236 15.7946C18.328 15.8482 18.428 15.8726 18.5269 15.8726C18.7271 15.8726 18.9237 15.7679 19.0308 15.5817C19.1913 15.3036 19.0959 14.9475 18.8178 14.787L16.1637 13.2546L18.8178 11.7221C19.0971 11.5616 19.1925 11.2055 19.0308 10.9274C18.8702 10.6481 18.5141 10.5539 18.236 10.7145L15.5818 12.2469V9.18202C15.5818 8.86087 15.3212 8.60022 15 8.60022C14.6789 8.60022 14.4182 8.86087 14.4182 9.18202V12.2468L11.7641 10.7144C11.4872 10.5561 11.1299 10.6492 10.9694 10.9273C10.8076 11.2054 10.903 11.5615 11.1823 11.7221L13.8366 13.2546L11.1823 14.787C10.903 14.9476 10.8076 15.3037 10.9694 15.5818C11.0764 15.7691 11.2731 15.8727 11.4732 15.8727C11.5721 15.8727 11.6722 15.8482 11.7641 15.7947L14.4182 14.2623V17.3272ZM24.8906 17.909C24.5695 17.909 24.3088 17.6483 24.3088 17.3272V14.2622L21.6545 15.7947C21.5626 15.8482 21.4625 15.8727 21.3636 15.8727C21.1635 15.8727 20.9668 15.7691 20.8598 15.5818C20.698 15.3037 20.7934 14.9476 21.0727 14.787L23.727 13.2546L21.0727 11.7221C20.7934 11.5615 20.698 11.2054 20.8598 10.9273C21.0203 10.6492 21.3764 10.5561 21.6545 10.7144L24.3088 12.2469V9.18202C24.3088 8.86087 24.5695 8.60022 24.8906 8.60022C25.2118 8.60022 25.4724 8.86087 25.4724 9.18202V12.2468L28.1264 10.7145C28.4057 10.5539 28.7617 10.6481 28.9211 10.9274C29.0829 11.2055 28.9875 11.5616 28.7082 11.7221L26.0541 13.2546L28.7082 14.787C28.9863 14.9475 29.0817 15.3036 28.9211 15.5817C28.8141 15.7679 28.6174 15.8726 28.4173 15.8726C28.3184 15.8726 28.2183 15.8482 28.1264 15.7946L25.4724 14.2623V17.3272C25.4724 17.6483 25.2118 17.909 24.8906 17.909ZM1.61866 21.3998H8.60024C8.92139 21.3998 9.18204 21.1392 9.18204 20.818C9.18204 20.4969 8.92139 20.2362 8.60024 20.2362H1.61866C1.29751 20.2362 1.03687 20.4969 1.03687 20.818C1.03687 21.1392 1.29751 21.3998 1.61866 21.3998ZM18.4909 21.3998H11.5093C11.1881 21.3998 10.9275 21.1392 10.9275 20.818C10.9275 20.4969 11.1881 20.2362 11.5093 20.2362H18.4909C18.812 20.2362 19.0727 20.4969 19.0727 20.818C19.0727 21.1392 18.812 21.3998 18.4909 21.3998ZM21.3999 21.3998H28.3815C28.7026 21.3998 28.9633 21.1392 28.9633 20.818C28.9633 20.4969 28.7026 20.2362 28.3815 20.2362H21.3999C21.0788 20.2362 20.8181 20.4969 20.8181 20.818C20.8181 21.1392 21.0788 21.3998 21.3999 21.3998Z" fill="#151616"/>
</svg>
