<svg width="24" height="24" viewBox="0 0 24 24" fill="none" xmlns="http://www.w3.org/2000/svg">
<path fill-rule="evenodd" clip-rule="evenodd" d="M21.25 12C21.25 6.89186 17.1084 2.75 12 2.75C6.89157 2.75 2.75 6.89186 2.75 12C2.75 17.1088 6.89121 21.25 12 21.25C17.1088 21.25 21.25 17.1088 21.25 12ZM22.75 12C22.75 17.9372 17.9372 22.75 12 22.75C6.06279 22.75 1.25 17.9372 1.25 12C1.25 6.06345 6.06312 1.25 12 1.25C17.9369 1.25 22.75 6.06345 22.75 12ZM15.3674 6.59706C15.59 6.24771 16.0536 6.1449 16.4029 6.36743C16.7523 6.58997 16.8551 7.05358 16.6326 7.40294L12.8106 13.4029C12.6729 13.6191 12.4344 13.75 12.1781 13.75H7C6.58579 13.75 6.25 13.4142 6.25 13C6.25 12.5858 6.58579 12.25 7 12.25H11.7666L15.3674 6.59706Z" fill="#151616"/>
</svg>
