<svg width="24" height="24" viewBox="0 0 24 24" fill="none" xmlns="http://www.w3.org/2000/svg">
<path fill-rule="evenodd" clip-rule="evenodd" d="M23 12C23 18.0751 18.0751 23 12 23C5.92487 23 1 18.0751 1 12C1 5.92487 5.92487 1 12 1C18.0751 1 23 5.92487 23 12ZM17.1529 6.11753C16.8036 5.89499 16.34 5.9978 16.1174 6.34716L12.5166 12.0001H7.75C7.33579 12.0001 7 12.3359 7 12.7501C7 13.1643 7.33579 13.5001 7.75 13.5001H12.9281C13.1844 13.5001 13.4229 13.3692 13.5606 13.153L17.3826 7.15303C17.6051 6.80367 17.5023 6.34006 17.1529 6.11753Z" fill="#3C94A8"/>
</svg>
