<svg width="24" height="24" viewBox="0 0 24 24" fill="none" xmlns="http://www.w3.org/2000/svg">
<path fill-rule="evenodd" clip-rule="evenodd" d="M7 3C6.44772 3 6 3.44772 6 4V20C6 20.5523 6.44771 21 7 21H11.25V16C11.25 15.5858 11.5858 15.25 12 15.25C12.4142 15.25 12.75 15.5858 12.75 16V21H17C17.5523 21 18 20.5523 18 20V4C18 3.44772 17.5523 3 17 3H7ZM12.75 7.5C12.75 7.08579 12.4142 6.75 12 6.75C11.5858 6.75 11.25 7.08579 11.25 7.5V8.75H10C9.58579 8.75 9.25 9.08579 9.25 9.5C9.25 9.91421 9.58579 10.25 10 10.25H11.25V11.5C11.25 11.9142 11.5858 12.25 12 12.25C12.4142 12.25 12.75 11.9142 12.75 11.5V10.25H14C14.4142 10.25 14.75 9.91421 14.75 9.5C14.75 9.08579 14.4142 8.75 14 8.75H12.75V7.5ZM3.9993 21.0001C4.55155 21.0001 4.99925 20.5524 4.9993 20.0002L4.99997 11.0001C5.00001 10.4478 4.55229 10 3.99997 10H3.0008C2.44854 10 2.00084 10.4477 2.0008 10.9999L2.00012 20C2.00008 20.5523 2.44781 21.0001 3.00012 21.0001H3.9993ZM20 10C19.4477 10 19 10.4477 19 11V20C19 20.5523 19.4477 21 20 21H21C21.5523 21 22 20.5523 22 20V11C22 10.4477 21.5523 10 21 10H20Z" fill="#3C94A8"/>
</svg>
