<svg width="24" height="24" viewBox="0 0 24 24" fill="none" xmlns="http://www.w3.org/2000/svg">
<path fill-rule="evenodd" clip-rule="evenodd" d="M4.47 10.0854L1.96855 12.0866C1.6451 12.3454 1.17313 12.2929 0.914376 11.9695C0.655619 11.646 0.70806 11.1741 1.03151 10.9153L11.5077 2.53434C11.7816 2.31521 12.1708 2.31521 12.4447 2.53434L22.9209 10.9153C23.2444 11.1741 23.2968 11.646 23.0381 11.9695C22.7793 12.2929 22.3073 12.3454 21.9839 12.0866L19.5414 10.1326V10.1417L12.4447 4.46434C12.1708 4.24521 11.7816 4.24521 11.5077 4.46434L4.47 10.0945V10.0854ZM11.9762 5.63L19.5414 11.6019V20.8819C19.5414 21.2961 19.2056 21.6319 18.7914 21.6319H12.7262V13.6816C12.7262 13.2202 12.3904 12.8462 11.9762 12.8462C11.562 12.8462 11.2262 13.2202 11.2262 13.6816V21.6319H5.22C4.80579 21.6319 4.47 21.2961 4.47 20.8819V11.5554L11.9762 5.63Z" fill="#3C94A8"/>
</svg>
