<svg width="24" height="24" viewBox="0 0 24 24" fill="none" xmlns="http://www.w3.org/2000/svg">
<path fill-rule="evenodd" clip-rule="evenodd" d="M7.95001 6.5C7.5358 6.5 7.20001 6.16421 7.20001 5.75V4.4999H4.70001V20.9999H19.2V4.4999H16.7V5.75C16.7 6.16421 16.3642 6.5 15.95 6.5H7.95001ZM16.7 2.9999V1.75C16.7 1.33579 16.3642 1 15.95 1H7.95001C7.5358 1 7.20001 1.33579 7.20001 1.75V2.9999H3.95001C3.5358 2.9999 3.20001 3.33569 3.20001 3.7499V21.7499C3.20001 22.1641 3.5358 22.4999 3.95001 22.4999H19.95C20.3642 22.4999 20.7 22.1641 20.7 21.7499V3.7499C20.7 3.33569 20.3642 2.9999 19.95 2.9999H16.7ZM8.70001 5H15.2V3.7499V2.5H8.70001V3.7499V5ZM8.45001 14.4999C8.0358 14.4999 7.70001 14.1641 7.70001 13.7499C7.70001 13.3357 8.0358 12.9999 8.45001 12.9999H11.2V10.2499C11.2 9.83569 11.5358 9.4999 11.95 9.4999C12.3642 9.4999 12.7 9.83569 12.7 10.2499V12.9999H15.45C15.8642 12.9999 16.2 13.3357 16.2 13.7499C16.2 14.1641 15.8642 14.4999 15.45 14.4999H12.7V17.2499C12.7 17.6641 12.3642 17.9999 11.95 17.9999C11.5358 17.9999 11.2 17.6641 11.2 17.2499V14.4999H8.45001Z" fill="#151616"/>
</svg>
