<svg width="20" height="20" viewBox="0 0 20 20" fill="none" xmlns="http://www.w3.org/2000/svg">
    <path fill-rule="evenodd" clip-rule="evenodd" d="M1.99988 7.76719C1.99988 3.47801 5.45165 3.05176e-05 9.71126 3.05176e-05C13.9709 3.05176e-05 17.4226 3.47801 17.4226 7.76719C17.4226 9.07224 16.7806 10.6955 15.6127 12.6162C15.0867 13.4811 14.4639 14.3877 13.7638 15.3218C12.9817 16.3652 12.1451 17.3883 11.3083 18.3495C11.0154 18.6859 10.7433 18.9907 10.4988 19.2586C10.3511 19.4204 10.245 19.5343 10.1874 19.5952C9.92871 19.8683 9.4938 19.8683 9.23514 19.5952C9.17747 19.5343 9.0714 19.4204 8.92374 19.2586C8.67926 18.9907 8.40714 18.6859 8.11423 18.3495C7.27743 17.3883 6.44079 16.3652 5.65872 15.3218C4.95857 14.3877 4.33577 13.4811 3.80981 12.6162C2.64187 10.6955 1.99988 9.07224 1.99988 7.76719ZM9.71126 1.31157C6.17722 1.31157 3.31142 4.20115 3.31142 7.76719C3.31142 8.78234 3.89126 10.2258 4.93043 11.9348C5.43294 12.7612 6.03252 13.6338 6.70819 14.5352C7.46953 15.551 8.28655 16.55 9.10341 17.4883C9.29203 17.7049 9.47169 17.908 9.64042 18.096L9.71126 18.1749L9.78209 18.096C9.95082 17.908 10.1305 17.7049 10.3191 17.4883C11.136 16.55 11.953 15.551 12.7143 14.5352C13.39 13.6338 13.9896 12.7612 14.4921 11.9348C15.5313 10.2258 16.1111 8.78234 16.1111 7.76719C16.1111 4.20115 13.2453 1.31157 9.71126 1.31157ZM6.69339 7.69607C6.69339 6.03782 8.03767 4.69354 9.69592 4.69354C11.3542 4.69354 12.6984 6.03782 12.6984 7.69607C12.6984 9.35432 11.3542 10.6986 9.69592 10.6986C8.03767 10.6986 6.69339 9.35432 6.69339 7.69607ZM9.69592 6.00508C8.76201 6.00508 8.00493 6.76216 8.00493 7.69607C8.00493 8.62998 8.76201 9.38706 9.69592 9.38706C10.6298 9.38706 11.3869 8.62998 11.3869 7.69607C11.3869 6.76216 10.6298 6.00508 9.69592 6.00508Z" fill="#9E9D9D"/>
</svg>
