<svg width="20" height="20" viewBox="0 0 20 20" fill="none" xmlns="http://www.w3.org/2000/svg">
<path fill-rule="evenodd" clip-rule="evenodd" d="M15.4246 14.2946L10.3708 16.9728C10.2428 17.0407 10.1019 17.0596 9.96956 17.0361C12.6753 18.1277 15.5182 17.8996 17.4341 16.2761L15.4246 14.2946ZM9.52587 16.7133C9.36424 16.4083 9.48046 16.03 9.78546 15.8684L15.2443 12.9754C15.4854 12.8477 15.7815 12.8911 15.9758 13.0827L18.7723 15.8401C19.0149 16.0794 19.0212 16.4689 18.7864 16.7158C15.5309 20.1396 9.58008 19.5648 5.49006 15.5321C1.40458 11.505 0.650822 5.48573 3.89926 2.06933C4.14014 1.816 4.54198 1.80948 4.79094 2.05488L7.58739 4.81128C7.77635 4.99753 7.82712 5.28279 7.71403 5.5228L5.05163 11.1732C4.9045 11.4854 4.53209 11.6193 4.21984 11.4721C4.14176 11.4353 4.07483 11.3845 4.02066 11.324C4.56294 12.5015 5.34827 13.6372 6.36762 14.642C7.39156 15.6516 8.5368 16.4161 9.7146 16.9292C9.63813 16.8746 9.57285 16.8019 9.52587 16.7133ZM3.86401 10.9665C3.91375 11.086 3.96597 11.2052 4.02066 11.324C3.93141 11.2243 3.8768 11.0985 3.86401 10.9665ZM3.86401 10.9665C3.85352 10.8582 3.87115 10.7459 3.92087 10.6403L6.3945 5.39062L4.39185 3.41666C2.88272 5.40491 2.74222 8.27079 3.86401 10.9665Z" fill="#9E9D9D"/>
<mask id="mask0_0_10791" style="mask-type:alpha" maskUnits="userSpaceOnUse" x="1" y="1" width="18" height="18">
<path fill-rule="evenodd" clip-rule="evenodd" d="M15.4246 14.2946L10.3708 16.9728C10.2428 17.0407 10.1019 17.0596 9.96956 17.0361C12.6753 18.1277 15.5182 17.8996 17.4341 16.2761L15.4246 14.2946ZM9.52587 16.7133C9.36424 16.4083 9.48046 16.03 9.78546 15.8684L15.2443 12.9754C15.4854 12.8477 15.7815 12.8911 15.9758 13.0827L18.7723 15.8401C19.0149 16.0794 19.0212 16.4689 18.7864 16.7158C15.5309 20.1396 9.58008 19.5648 5.49006 15.5321C1.40458 11.505 0.650822 5.48573 3.89926 2.06933C4.14014 1.816 4.54198 1.80948 4.79094 2.05488L7.58739 4.81128C7.77635 4.99753 7.82712 5.28279 7.71403 5.5228L5.05163 11.1732C4.9045 11.4854 4.53209 11.6193 4.21984 11.4721C4.14176 11.4353 4.07483 11.3845 4.02066 11.324C4.56294 12.5015 5.34827 13.6372 6.36762 14.642C7.39156 15.6516 8.5368 16.4161 9.7146 16.9292C9.63813 16.8746 9.57285 16.8019 9.52587 16.7133ZM3.86401 10.9665C3.91375 11.086 3.96597 11.2052 4.02066 11.324C3.93141 11.2243 3.8768 11.0985 3.86401 10.9665ZM3.86401 10.9665C3.85352 10.8582 3.87115 10.7459 3.92087 10.6403L6.3945 5.39062L4.39185 3.41666C2.88272 5.40491 2.74222 8.27079 3.86401 10.9665Z" fill="white"/>
</mask>
<g mask="url(#mask0_0_10791)">
</g>
</svg>
