<svg width="36" height="46" viewBox="0 0 36 46" fill="none" xmlns="http://www.w3.org/2000/svg">
<g filter="url(#filter0_i_0_9102)">
<path d="M35.0633 16.6896C35.0633 25.8976 17.5591 44.4706 17.5591 44.4706C17.5591 44.4706 0 25.8976 0 16.6896C0 7.48154 7.84671 0 17.5042 0C27.1617 0 35.0633 7.48154 35.0633 16.6896Z" fill="white"/>
</g>
<g filter="url(#filter1_d_0_9102)">
<path d="M30.8 17.2118C30.8 24.4588 17.6648 39.0765 17.6648 39.0765C17.6648 39.0765 4.48828 24.4588 4.48828 17.2118C4.48828 9.96471 10.3765 4.07647 17.6236 4.07647C24.8706 4.07647 30.8 9.96471 30.8 17.2118Z" fill="#FF5752"/>
</g>
<g filter="url(#filter2_i_0_9102)">
<path fill-rule="evenodd" clip-rule="evenodd" d="M17.6824 25.4118C22.0682 25.4118 25.6236 21.8564 25.6236 17.4706C25.6236 13.0848 22.0682 9.52941 17.6824 9.52941C13.2966 9.52941 9.74121 13.0848 9.74121 17.4706C9.74121 21.8564 13.2966 25.4118 17.6824 25.4118Z" fill="white"/>
</g>
<defs>
<filter id="filter0_i_0_9102" x="0" y="0" width="35.0634" height="45.4706" filterUnits="userSpaceOnUse" color-interpolation-filters="sRGB">
<feFlood flood-opacity="0" result="BackgroundImageFix"/>
<feBlend mode="normal" in="SourceGraphic" in2="BackgroundImageFix" result="shape"/>
<feColorMatrix in="SourceAlpha" type="matrix" values="0 0 0 0 0 0 0 0 0 0 0 0 0 0 0 0 0 0 127 0" result="hardAlpha"/>
<feOffset dy="1"/>
<feGaussianBlur stdDeviation="1.5"/>
<feComposite in2="hardAlpha" operator="arithmetic" k2="-1" k3="1"/>
<feColorMatrix type="matrix" values="0 0 0 0 0 0 0 0 0 0 0 0 0 0 0 0 0 0 0.3 0"/>
<feBlend mode="normal" in2="shape" result="effect1_innerShadow_0_9102"/>
</filter>
<filter id="filter1_d_0_9102" x="0.488281" y="2.07647" width="34.3118" height="43" filterUnits="userSpaceOnUse" color-interpolation-filters="sRGB">
<feFlood flood-opacity="0" result="BackgroundImageFix"/>
<feColorMatrix in="SourceAlpha" type="matrix" values="0 0 0 0 0 0 0 0 0 0 0 0 0 0 0 0 0 0 127 0" result="hardAlpha"/>
<feOffset dy="2"/>
<feGaussianBlur stdDeviation="2"/>
<feColorMatrix type="matrix" values="0 0 0 0 0 0 0 0 0 0 0 0 0 0 0 0 0 0 0.2 0"/>
<feBlend mode="normal" in2="BackgroundImageFix" result="effect1_dropShadow_0_9102"/>
<feBlend mode="normal" in="SourceGraphic" in2="effect1_dropShadow_0_9102" result="shape"/>
</filter>
<filter id="filter2_i_0_9102" x="9.74121" y="9.52941" width="15.8823" height="16.8824" filterUnits="userSpaceOnUse" color-interpolation-filters="sRGB">
<feFlood flood-opacity="0" result="BackgroundImageFix"/>
<feBlend mode="normal" in="SourceGraphic" in2="BackgroundImageFix" result="shape"/>
<feColorMatrix in="SourceAlpha" type="matrix" values="0 0 0 0 0 0 0 0 0 0 0 0 0 0 0 0 0 0 127 0" result="hardAlpha"/>
<feOffset dy="1"/>
<feGaussianBlur stdDeviation="1.5"/>
<feComposite in2="hardAlpha" operator="arithmetic" k2="-1" k3="1"/>
<feColorMatrix type="matrix" values="0 0 0 0 0 0 0 0 0 0 0 0 0 0 0 0 0 0 0.35 0"/>
<feBlend mode="normal" in2="shape" result="effect1_innerShadow_0_9102"/>
</filter>
</defs>
</svg>
