<svg width="16" height="16" viewBox="0 0 16 16" fill="none" xmlns="http://www.w3.org/2000/svg">
<g opacity="0.6">
<path fill-rule="evenodd" clip-rule="evenodd" d="M1.14288 7.99996C1.14288 4.21295 4.21301 1.14282 8.00003 1.14282C11.787 1.14282 14.8572 4.21295 14.8572 7.99996C14.8572 11.787 11.787 14.8571 8.00003 14.8571C4.21301 14.8571 1.14288 11.787 1.14288 7.99996ZM6.75327 4.25971C6.58794 4.25971 6.42938 4.32538 6.31248 4.44229C6.19557 4.55919 6.1299 4.71775 6.1299 4.88308V6.75321H5.50652C5.34119 6.75321 5.18263 6.81889 5.06573 6.93579C4.94882 7.0527 4.88314 7.21126 4.88314 7.37659C4.88314 7.54192 4.94882 7.70048 5.06573 7.81738C5.18263 7.93429 5.34119 7.99996 5.50652 7.99996H6.1299V8.62334H5.50652C5.34119 8.62334 5.18263 8.68902 5.06573 8.80592C4.94882 8.92283 4.88314 9.08139 4.88314 9.24672C4.88314 9.41205 4.94882 9.57061 5.06573 9.68751C5.18263 9.80442 5.34119 9.87009 5.50652 9.87009H6.1299V11.1168C6.1299 11.2822 6.19557 11.4407 6.31248 11.5576C6.42938 11.6745 6.58794 11.7402 6.75327 11.7402C6.9186 11.7402 7.07716 11.6745 7.19407 11.5576C7.31097 11.4407 7.37665 11.2822 7.37665 11.1168V9.87009H8.6234C8.78873 9.87009 8.94729 9.80442 9.0642 9.68751C9.1811 9.57061 9.24678 9.41205 9.24678 9.24672C9.24678 9.08139 9.1811 8.92283 9.0642 8.80592C8.94729 8.68902 8.78873 8.62334 8.6234 8.62334H7.37665V7.99996H9.24678C9.74277 7.99996 10.2184 7.80293 10.5692 7.45222C10.9199 7.1015 11.1169 6.62582 11.1169 6.12984C11.1169 5.63385 10.9199 5.15817 10.5692 4.80745C10.2184 4.45674 9.74277 4.25971 9.24678 4.25971H6.75327ZM9.24678 6.75321H7.37665V5.50646H9.24678C9.41211 5.50646 9.57067 5.57214 9.68757 5.68904C9.80448 5.80595 9.87016 5.96451 9.87016 6.12984C9.87016 6.29517 9.80448 6.45372 9.68757 6.57063C9.57067 6.68753 9.41211 6.75321 9.24678 6.75321Z" fill="#9E9D9D"/>
</g>
</svg>
