<svg width="150" height="50" viewBox="0 0 150 50" fill="none" xmlns="http://www.w3.org/2000/svg">
    <g clip-path="url(#clip0_3308_1391)">
        <path d="M137 46.61H138C138.18 46.61 138.353 46.6816 138.481 46.8091C138.608 46.9367 138.68 47.1096 138.68 47.29C138.68 47.4703 138.608 47.6433 138.481 47.7708C138.353 47.8983 138.18 47.97 138 47.97H137V46.61ZM140.38 48.51V44.51H139.83V48.51H140.38ZM136.45 44.51V48.51H138C138.17 48.5254 138.342 48.5051 138.504 48.4506C138.666 48.396 138.814 48.3083 138.94 48.193C139.067 48.0778 139.167 47.9375 139.236 47.7812C139.305 47.6248 139.341 47.4558 139.341 47.285C139.341 47.1141 139.305 46.9451 139.236 46.7888C139.167 46.6324 139.067 46.4922 138.94 46.3769C138.814 46.2617 138.666 46.174 138.504 46.1194C138.342 46.0648 138.17 46.0446 138 46.06H137V44.55L136.45 44.51ZM133.57 44.51V46.23H131.42V44.55H130.87V48.55H131.42V46.79H133.57V48.51H134.12V44.51H133.57ZM125.85 44.51H125.3V48.51H125.73C125.768 48.5048 125.805 48.4914 125.838 48.4707C125.871 48.45 125.899 48.4224 125.92 48.39L128.05 45.25C128 45.3666 127.976 45.493 127.98 45.62V48.51H128.53V44.51H128.1C128.032 44.5041 127.963 44.5169 127.902 44.5468C127.84 44.5767 127.788 44.6227 127.75 44.68L125.75 47.68C125.816 47.557 125.85 47.4195 125.85 47.28V44.51ZM122.85 47.97V44.55H122.3V48.01H120.3V44.55H119.75V48.55H122.75V49.09C122.75 49.25 122.81 49.33 122.95 49.33H123.26V48.01L122.85 47.97ZM114.77 44.51H114.22V48.51H114.64C114.68 48.5062 114.719 48.4935 114.754 48.4727C114.788 48.4519 114.818 48.4237 114.84 48.39L117 45.25C116.953 45.3678 116.93 45.4933 116.93 45.62V48.51H117.48V44.51H117.06C116.992 44.503 116.923 44.5152 116.861 44.5453C116.799 44.5753 116.747 44.6219 116.71 44.68L114.71 47.68C114.776 47.557 114.81 47.4195 114.81 47.28L114.77 44.51ZM109.23 47.97C109.515 47.6776 109.68 47.2883 109.69 46.88L109.81 45.02H111.23V48.01L109.23 47.97ZM111.78 47.97V44.55H109.29L109.14 46.89C109.149 47.1318 109.081 47.3703 108.946 47.5714C108.812 47.7725 108.617 47.926 108.39 48.01H108.32V49.27H108.61C108.641 49.2718 108.672 49.2666 108.701 49.2549C108.73 49.2432 108.756 49.2252 108.777 49.2022C108.798 49.1793 108.814 49.1519 108.823 49.1221C108.832 49.0923 108.835 49.0608 108.83 49.03V48.51H111.76V49.05C111.76 49.21 111.83 49.29 111.96 49.29H112.26V48.01L111.78 47.97ZM106.62 48.47V47.93H104.7V46.76H106.26V46.21H104.7V45.1H106.62V44.55H104.15V48.55L106.62 48.47ZM101.44 44.47C101.358 44.4579 101.275 44.4741 101.204 44.516C101.133 44.5579 101.079 44.6228 101.05 44.7L99.8 47.1C99.7926 47.1564 99.7926 47.2136 99.8 47.27C99.8033 47.2134 99.8033 47.1566 99.8 47.1L98.53 44.78C98.5011 44.7028 98.4467 44.6378 98.3757 44.596C98.3047 44.5541 98.2215 44.5379 98.14 44.55H97.76V48.55H98.31V45.55C98.3186 45.5003 98.3186 45.4496 98.31 45.4L99.61 47.86C99.6304 47.909 99.6652 47.9506 99.7099 47.9792C99.7546 48.0078 99.807 48.022 99.86 48.02C99.9133 48.0235 99.9663 48.0099 100.011 47.9811C100.056 47.9523 100.091 47.9099 100.11 47.86L101.42 45.4C101.416 45.4499 101.416 45.5 101.42 45.55V48.55H101.97V44.55L101.44 44.47ZM89.77 44.47H89.22V48.47H89.64C89.6802 48.4662 89.719 48.4535 89.7536 48.4327C89.7882 48.4119 89.8177 48.3837 89.84 48.35L92 45.25C91.9534 45.3678 91.9297 45.4933 91.93 45.62V48.51H92.48V44.51H92.06C91.9916 44.503 91.9227 44.5152 91.8608 44.5453C91.799 44.5753 91.7468 44.6219 91.71 44.68L89.71 47.68C89.776 47.557 89.8104 47.4195 89.81 47.28L89.77 44.47ZM91.47 43.78V43.37C91.3912 43.4686 91.2927 43.5498 91.1808 43.6084C91.0689 43.6669 90.946 43.7015 90.82 43.71C90.696 43.699 90.5755 43.6633 90.4655 43.6049C90.3556 43.5465 90.2585 43.4666 90.18 43.37V43.78C90.2592 43.8855 90.3618 43.9712 90.4799 44.0302C90.5979 44.0893 90.728 44.12 90.86 44.12C90.992 44.12 91.1221 44.0893 91.2401 44.0302C91.3582 43.9712 91.4608 43.8855 91.54 43.78H91.47ZM83.63 46.45C83.63 46.1553 83.7174 45.8672 83.8811 45.6222C84.0448 45.3771 84.2775 45.1862 84.5498 45.0734C84.8221 44.9606 85.1217 44.9311 85.4107 44.9886C85.6997 45.0461 85.9652 45.188 86.1736 45.3964C86.382 45.6048 86.5239 45.8703 86.5814 46.1593C86.6389 46.4483 86.6094 46.7479 86.4966 47.0202C86.3838 47.2924 86.1928 47.5251 85.9478 47.6889C85.7028 47.8526 85.4147 47.94 85.12 47.94C84.7403 47.9403 84.3752 47.7937 84.1012 47.5308C83.8272 47.268 83.6655 46.9094 83.65 46.53L83.63 46.45ZM83.08 46.45C83.08 46.8455 83.1973 47.2322 83.4171 47.5611C83.6368 47.89 83.9492 48.1464 84.3146 48.2977C84.6801 48.4491 85.0822 48.4887 85.4702 48.4115C85.8581 48.3344 86.2145 48.1439 86.4942 47.8642C86.7739 47.5845 86.9644 47.2281 87.0416 46.8402C87.1187 46.4522 87.0791 46.0501 86.9278 45.6846C86.7764 45.3192 86.52 45.0068 86.1911 44.787C85.8622 44.5673 85.4756 44.45 85.08 44.45C84.8122 44.4524 84.5476 44.5087 84.3019 44.6153C84.0562 44.722 83.8345 44.8769 83.6498 45.0709C83.4651 45.2649 83.3213 45.494 83.2269 45.7447C83.1324 45.9953 83.0893 46.2624 83.1 46.53L83.08 46.45ZM80.47 44.45V46.17H78.34V44.55H77.79V48.55H78.34V46.79H80.49V48.51H81V44.51L80.47 44.45ZM72.75 44.45H72.2V48.45H72.63C72.6684 48.4448 72.7053 48.4314 72.7381 48.4107C72.7709 48.39 72.7988 48.3624 72.82 48.33L75 45.25C74.9496 45.3666 74.9257 45.493 74.93 45.62V48.51H75.48V44.51H75C74.9318 44.5041 74.8632 44.5169 74.8016 44.5468C74.74 44.5767 74.6876 44.6227 74.65 44.68L72.65 47.68C72.716 47.557 72.7504 47.4195 72.75 47.28V44.45ZM74.46 43.76V43.35C74.3823 43.4475 74.2854 43.5279 74.1753 43.5864C74.0652 43.6449 73.9443 43.6802 73.82 43.69C73.5681 43.6631 73.3358 43.5416 73.17 43.35V43.76C73.2502 43.8669 73.3545 43.9534 73.4743 44.0125C73.5942 44.0716 73.7264 44.1015 73.86 44.1C73.9741 44.1031 74.0877 44.0835 74.1941 44.0423C74.3006 44.0011 74.3978 43.9391 74.48 43.86L74.46 43.76ZM70.17 48.51V47.97H68.25V46.76H69.81V46.21H68.25V45.1H70.17V44.55H67.7V48.55L70.17 48.51ZM64.99 44.51C64.9085 44.4979 64.8253 44.5141 64.7543 44.556C64.6833 44.5978 64.6289 44.6628 64.6 44.74L63.33 47.06C63.3226 47.1164 63.3226 47.1736 63.33 47.23C63.3333 47.1734 63.3333 47.1166 63.33 47.06L62 44.78C61.9711 44.7028 61.9167 44.6378 61.8457 44.596C61.7747 44.5541 61.6915 44.5379 61.61 44.55H61.23V48.55H61.78V45.55C61.7886 45.5003 61.7886 45.4496 61.78 45.4L63 47.84C63.0204 47.889 63.0552 47.9306 63.0999 47.9592C63.1446 47.9878 63.197 48.002 63.25 48C63.3033 48.0035 63.3563 47.9899 63.4013 47.9611C63.4463 47.9323 63.4809 47.8899 63.5 47.84L64.81 45.38C64.8062 45.4299 64.8062 45.48 64.81 45.53V48.53H65.36V44.53L64.99 44.51ZM59.16 48.51V47.97H57.24V46.76H58.79V46.21H57.24V45.1H59.16V44.55H56.69V48.55L59.16 48.51ZM53.23 48.56C53.7795 48.5543 54.3043 48.3314 54.69 47.94L54.56 47.81C54.5006 47.748 54.4229 47.7067 54.3382 47.6923C54.2536 47.6779 54.1666 47.6911 54.09 47.73C53.9006 47.8667 53.6814 47.9567 53.4506 47.9925C53.2197 48.0283 52.9836 48.0089 52.7617 47.936C52.5397 47.863 52.3382 47.7386 52.1736 47.5728C52.009 47.407 51.8859 47.2046 51.8145 46.9822C51.7432 46.7597 51.7254 46.5235 51.7629 46.2929C51.8003 46.0623 51.8918 45.8438 52.0298 45.6553C52.1679 45.4669 52.3486 45.3138 52.5572 45.2085C52.7658 45.1033 52.9964 45.049 53.23 45.05C53.5344 45.0504 53.8312 45.1447 54.08 45.32C54.1561 45.3569 54.2421 45.368 54.325 45.3518C54.408 45.3356 54.4834 45.2928 54.54 45.23L54.67 45.1C54.286 44.7207 53.7697 44.5056 53.23 44.5C52.6916 44.5 52.1753 44.7139 51.7946 45.0946C51.4139 45.4753 51.2 45.9916 51.2 46.53C51.2 47.0684 51.4139 47.5847 51.7946 47.9654C52.1753 48.3461 52.6916 48.56 53.23 48.56ZM44.14 47.08L44.77 45.62C44.8341 45.5144 44.8686 45.3935 44.87 45.27C44.877 45.3926 44.9112 45.5121 44.97 45.62L45.61 47.08H44.14ZM45.14 44.55H44.65L42.92 48.55H43.28C43.3508 48.5512 43.4205 48.5321 43.4808 48.4948C43.5411 48.4576 43.5894 48.4039 43.62 48.34L43.91 47.67H45.91L46.21 48.34C46.2396 48.4047 46.2877 48.4591 46.3482 48.4965C46.4087 48.5339 46.4789 48.5525 46.55 48.55H46.9L45.14 44.55ZM38.8 48.55V44.55H38.26V48.55H38.8ZM40.42 44.71L39.14 46.34C39.0794 46.4089 39.0043 46.4636 38.92 46.5C39.009 46.533 39.0881 46.588 39.15 46.66L40.49 48.35C40.5304 48.4019 40.5819 48.4442 40.6407 48.4736C40.6995 48.503 40.7642 48.5189 40.83 48.52H41.32L39.79 46.62C39.7437 46.5625 39.6809 46.5206 39.61 46.5C39.67 46.5 39.73 46.44 39.78 46.38L41.23 44.57H40.7C40.6457 44.57 40.5921 44.5826 40.5435 44.6069C40.4949 44.6312 40.4526 44.6665 40.42 44.71ZM33.23 44.56H32.68V48.56H33.11C33.1484 48.5548 33.1853 48.5414 33.2181 48.5207C33.2509 48.5 33.2788 48.4724 33.3 48.44L35.43 45.3C35.3834 45.4178 35.3597 45.5433 35.36 45.67V48.51H35.91V44.51H35.5C35.4318 44.5041 35.3632 44.5169 35.3016 44.5468C35.24 44.5767 35.1876 44.6227 35.15 44.68L33.15 47.68C33.216 47.557 33.2504 47.4195 33.25 47.28L33.23 44.56ZM29.81 44.56V46.28H27.66V44.55H27.11V48.55H27.66V46.79H29.81V48.51H30.36V44.51L29.81 44.56ZM22.09 44.56H21.54V48.56H22C22.0384 48.5548 22.0753 48.5414 22.1081 48.5207C22.1409 48.5 22.1688 48.4724 22.19 48.44L24.32 45.3C24.2769 45.4184 24.2565 45.544 24.26 45.67V48.51H24.8V44.51H24.38C24.3039 44.5011 24.2269 44.5155 24.159 44.5512C24.0912 44.5868 24.0358 44.6422 24 44.71L22 47.71C22.066 47.587 22.1004 47.4495 22.1 47.31L22.09 44.56ZM19.22 44.56H16.67L16.53 47.21C16.53 47.92 16.24 48.07 16.06 48.07H15.85C15.74 48.07 15.7 48.07 15.68 48.23V48.5C15.8472 48.5584 16.0229 48.5888 16.2 48.59C16.64 48.59 17.08 48.27 17.13 47.28L17.24 45.1H18.72V48.51H19.27L19.22 44.56ZM11.54 48.56V44.56H11V48.56H11.54ZM13.16 44.71L11.89 46.34C11.8244 46.4077 11.7463 46.462 11.66 46.5C11.749 46.533 11.8281 46.588 11.89 46.66L13.23 48.35C13.2704 48.4019 13.3219 48.4442 13.3807 48.4736C13.4395 48.503 13.5042 48.5189 13.57 48.52H14.06L12.53 46.62C12.4857 46.5603 12.4221 46.5179 12.35 46.5C12.41 46.5 12.47 46.44 12.52 46.38L14 44.55H13.47C13.4088 44.5472 13.348 44.5605 13.2936 44.5886C13.2392 44.6167 13.1932 44.6585 13.16 44.71Z" fill="#1691A9"/>
        <path d="M48.37 28.01C49.9429 28.8988 51.7235 29.3543 53.53 29.33C54.47 29.33 55.4043 29.1849 56.3 28.9C57.2008 28.6227 58.0589 28.2222 58.85 27.71C59.6031 27.2336 60.2778 26.6432 60.85 25.96L59.94 24.96C59.7288 24.7263 59.4741 24.5361 59.19 24.4C58.9077 24.2699 58.6008 24.2018 58.29 24.2C57.8798 24.196 57.4784 24.3182 57.14 24.55C56.6184 24.9291 56.0417 25.2259 55.43 25.43C54.8056 25.6252 54.1541 25.7198 53.5 25.71C52.354 25.7208 51.2257 25.4275 50.23 24.86C49.2684 24.3035 48.4741 23.4987 47.93 22.53C47.3631 21.5237 47.0732 20.3849 47.09 19.23C47.0735 18.0688 47.3632 16.9237 47.93 15.91C48.4712 14.9392 49.2663 14.1338 50.23 13.58C51.2238 13.008 52.3534 12.7143 53.5 12.73C54.1395 12.7288 54.7748 12.8336 55.38 13.04C55.9944 13.2405 56.5744 13.5339 57.1 13.91C57.4214 14.0978 57.7878 14.1946 58.16 14.19C58.4798 14.1917 58.7965 14.127 59.09 14C59.3916 13.8795 59.6593 13.6872 59.87 13.44L60.76 12.44C60.1833 11.7753 59.5089 11.2021 58.76 10.74C57.9803 10.2478 57.1354 9.86746 56.25 9.61001C55.3695 9.33471 54.4526 9.19314 53.53 9.19001C51.7235 9.16573 49.9429 9.62123 48.37 10.51C46.8517 11.3698 45.594 12.6241 44.73 14.14C43.8361 15.7004 43.3769 17.4719 43.4 19.27C43.3799 21.0633 43.8354 22.8299 44.72 24.39C45.5882 25.9036 46.8493 27.1544 48.37 28.01Z" fill="#1691A9"/>
        <path d="M76.5 25.66H68.54V9.44995H64.85V29.07H76.5V25.66Z" fill="#1691A9"/>
        <path d="M84.08 9.45996H80.39V29.06H84.08V9.45996Z" fill="#1691A9"/>
        <path d="M93.6 16.87C93.6044 16.0518 93.4517 15.2405 93.15 14.48H93.21L102.58 28.25C102.706 28.4819 102.889 28.6784 103.111 28.8217C103.332 28.9649 103.587 29.0503 103.85 29.07H106.61V9.44995H103V20.76C103.002 21.6285 103.186 22.487 103.54 23.28H103.48L94.79 10.58C94.56 10.2356 94.2644 9.93995 93.92 9.70995C93.5856 9.53056 93.2092 9.44423 92.83 9.45995H89.91V29.07H93.58L93.6 16.87Z" fill="#1691A9"/>
        <path d="M116.13 9.45996H112.44V29.06H116.13V9.45996Z" fill="#1691A9"/>
        <path d="M125.71 28.0099C127.284 28.896 129.064 29.3513 130.87 29.3299C131.81 29.3305 132.744 29.1855 133.64 28.8999C134.542 28.6266 135.401 28.2259 136.19 27.7099C136.945 27.2361 137.62 26.6454 138.19 25.9599L137.29 24.9599C137.075 24.7259 136.817 24.5358 136.53 24.3999C136.252 24.2688 135.948 24.2006 135.64 24.1999C135.23 24.1959 134.828 24.3181 134.49 24.5499C133.968 24.929 133.392 25.2258 132.78 25.4299C132.163 25.6324 131.519 25.737 130.87 25.7399C129.724 25.7531 128.595 25.4597 127.6 24.8899C126.633 24.3368 125.835 23.5314 125.29 22.5599C124.723 21.5536 124.433 20.4148 124.45 19.2599C124.433 18.0987 124.723 16.9536 125.29 15.9399C125.832 14.9662 126.631 14.1602 127.6 13.6099C128.593 13.0355 129.723 12.7417 130.87 12.7599C131.509 12.7595 132.145 12.8642 132.75 13.0699C133.361 13.2705 133.938 13.5639 134.46 13.9399C134.785 14.1276 135.155 14.2244 135.53 14.2199C135.85 14.2216 136.166 14.1569 136.46 14.0299C136.759 13.9101 137.024 13.7176 137.23 13.4699L138.12 12.4699C137.546 11.8022 136.871 11.2285 136.12 10.7699C135.332 10.2654 134.477 9.87489 133.58 9.60992C132.7 9.33403 131.783 9.19244 130.86 9.18992C129.057 9.16693 127.28 9.6224 125.71 10.5099C124.19 11.3669 122.931 12.6218 122.07 14.1399C121.173 15.6995 120.71 17.4709 120.73 19.2699C120.708 21.0647 121.167 22.8326 122.06 24.3899C122.925 25.9028 124.182 27.1536 125.7 28.0099" fill="#1691A9"/>
        <path d="M147.78 0.709961H1.23C0.903784 0.709961 0.590928 0.83955 0.360259 1.07022C0.129589 1.30089 0 1.61374 0 1.93996L0 36.58C0 36.7415 0.0318149 36.9014 0.0936282 37.0507C0.155441 37.1999 0.246043 37.3355 0.360259 37.4497C0.474475 37.5639 0.610069 37.6545 0.759299 37.7163C0.90853 37.7781 1.06847 37.81 1.23 37.81H130.67C135.533 37.8047 140.196 35.869 143.632 32.4283C147.069 28.9876 149 24.3232 149 19.46V1.93996C149 1.61547 148.872 1.30412 148.643 1.07374C148.415 0.843352 148.104 0.712599 147.78 0.709961V0.709961ZM26.12 11.04C26.1262 11.363 26.0754 11.6846 25.97 11.99C25.8518 12.3175 25.6831 12.6245 25.47 12.9L15.81 26.2C16.0488 25.9818 16.3184 25.7999 16.61 25.66C16.8855 25.5451 17.1815 25.4873 17.48 25.49H26V29.06H11V27.47C10.9934 27.1298 11.0476 26.7911 11.16 26.47C11.2973 26.1288 11.4825 25.8089 11.71 25.52L21.34 12.27C21.1074 12.5031 20.8325 12.6898 20.53 12.82C20.2439 12.9346 19.9382 12.9924 19.63 12.99H11.45V9.45996H26.12V11.04ZM146.59 19.46C146.585 23.6806 144.906 27.7268 141.921 30.7113C138.937 33.6957 134.891 35.3747 130.67 35.38H37.1V3.13996H146.59V19.46Z" fill="#1691A9"/>
        <path d="M139.89 6.9099H141V7.2199H140.62V8.2199H140.27V7.2199H139.89V6.9099ZM142.89 6.9099V8.2699H142.55V7.4699C142.542 7.43711 142.542 7.4027 142.55 7.3699L142.2 8.0599C142.196 8.07275 142.19 8.08468 142.181 8.09499C142.173 8.10529 142.162 8.11377 142.15 8.1199H142.06C142.06 8.1199 141.98 8.1199 141.97 8.1199C141.967 8.10342 141.967 8.08638 141.97 8.0699L141.62 7.3799C141.623 7.41317 141.623 7.44663 141.62 7.4799V8.2799H141.28V6.9099H141.62H141.68L141.74 6.9899L142.07 7.5999C142.073 7.63983 142.073 7.67997 142.07 7.7199C142.062 7.68034 142.062 7.63946 142.07 7.5999L142.39 6.9899C142.405 6.95427 142.429 6.92323 142.46 6.8999H142.61L142.89 6.9099Z" fill="#1691A9"/>
    </g>
    <defs>
        <clipPath id="clip0_3308_1391">
            <rect width="149.01" height="48.58" fill="white" transform="translate(0 0.709961)"/>
        </clipPath>
    </defs>
</svg>
