<svg width="48" height="48" viewBox="0 0 48 48" fill="none" xmlns="http://www.w3.org/2000/svg">
<path fill-rule="evenodd" clip-rule="evenodd" d="M24 48C37.2548 48 48 37.2548 48 24C48 10.7452 37.2548 0 24 0C10.7452 0 0 10.7452 0 24C0 37.2548 10.7452 48 24 48Z" fill="#3C94A8" fill-opacity="0.1"/>
<path fill-rule="evenodd" clip-rule="evenodd" d="M33.8128 31.6302V20.5198H30.3739C30.0733 20.5198 29.7985 20.3499 29.664 20.0811L27.7671 16.2872H20.2829L18.386 20.0811C18.2516 20.3499 17.9768 20.5198 17.6762 20.5198H14.2372V31.6302H33.8128ZM30.8643 18.9326H34.6064C35.0447 18.9326 35.4 19.2879 35.4 19.7262V32.4238C35.4 32.8621 35.0447 33.2175 34.6064 33.2175H13.4436C13.0053 33.2175 12.65 32.8621 12.65 32.4238V19.7262C12.65 19.2879 13.0053 18.9326 13.4436 18.9326H17.1857L19.0826 15.1387C19.2171 14.8698 19.4919 14.7 19.7925 14.7H28.2576C28.5582 14.7 28.833 14.8698 28.9674 15.1387L30.8643 18.9326ZM27.464 25.0169C27.464 23.1177 25.9242 21.5779 24.025 21.5779C22.1259 21.5779 20.5861 23.1177 20.5861 25.0169C20.5861 26.916 22.1259 28.4558 24.025 28.4558C25.9242 28.4558 27.464 26.916 27.464 25.0169ZM29.0512 25.0169C29.0512 27.7926 26.8008 30.043 24.025 30.043C21.2493 30.043 18.9989 27.7926 18.9989 25.0169C18.9989 22.2411 21.2493 19.9907 24.025 19.9907C26.8008 19.9907 29.0512 22.2411 29.0512 25.0169ZM30.3739 22.6361C29.9356 22.6361 29.5803 22.2807 29.5803 21.8425C29.5803 21.4042 29.9356 21.0488 30.3739 21.0488H31.432C31.8703 21.0488 32.2256 21.4042 32.2256 21.8425C32.2256 22.2807 31.8703 22.6361 31.432 22.6361H30.3739Z" fill="#3C94A8"/>
</svg>
