<svg width="40" height="40" viewBox="0 0 40 40" fill="none" xmlns="http://www.w3.org/2000/svg">
<path fill-rule="evenodd" clip-rule="evenodd" d="M21.4438 6.5H13.125C11.1875 6.5 9.6051 8.01995 9.50502 9.93248L9.5 10.125V18H11.25V10.125C11.25 9.13878 12.0114 8.33039 12.9785 8.25564L13.125 8.25H20.5V12.875C20.5 14.8125 22.0199 16.3949 23.9325 16.495L24.125 16.5H28.75V18H30.5026L30.5032 15.5988L30.4805 15.4632L30.4436 15.3306L30.4175 15.1713L30.3751 15.1043L30.3027 15.0161L22.0636 6.77664L21.9851 6.71025L21.904 6.655L21.7978 6.67044L21.6488 6.58498C21.6078 6.56148 21.5647 6.54219 21.5277 6.52779L21.4438 6.5ZM12.9325 32.995C11.2303 32.9059 9.83916 31.6427 9.55368 30H11.3567C11.6141 30.7282 12.3086 31.25 13.125 31.25H26.875L27.0215 31.2444C27.7737 31.1862 28.4015 30.6843 28.6433 30H30.4463C30.1502 31.7042 28.6639 33 26.875 33H13.125L12.9325 32.995ZM27.5184 14.75L22.25 9.48164V12.875L22.2556 13.0215C22.3304 13.9886 23.1388 14.75 24.125 14.75H27.5184ZM27.4195 28.154C28.2775 28.154 29.1575 27.967 29.9275 27.637V23.82H28.3545V26.57C28.1235 26.658 27.8375 26.713 27.5075 26.713C26.3745 26.713 24.8675 26.196 24.8675 24.15C24.8675 22.346 26.2205 21.62 27.5955 21.62C28.3765 21.62 29.1575 21.829 29.7405 22.214V20.641C29.0255 20.322 28.2005 20.146 27.3755 20.146C25.2635 20.146 23.1845 21.356 23.1845 24.15C23.1845 26.977 25.2635 28.154 27.4195 28.154ZM11.9755 20.3V28H10.3255V20.3H11.9755ZM15.2755 23.248V28H13.6255V20.3H15.1545L17.7945 24.304L20.4235 20.3H21.9525V28H20.3025V23.259L18.2675 26.35H17.3105L15.2755 23.248Z" fill="#3C94A8"/>
</svg>
