<svg width="40" height="40" viewBox="0 0 40 40" fill="none" xmlns="http://www.w3.org/2000/svg">
<path fill-rule="evenodd" clip-rule="evenodd" d="M21.3386 6.5H13.0931C11.1727 6.5 9.60418 8.00657 9.50498 9.90226L9.5 10.0931V17.8988H11.2346V10.0931C11.2346 9.11555 11.9893 8.31428 12.9478 8.24019L13.0931 8.2346H20.4032V12.8189C20.4032 14.7393 21.9097 16.3078 23.8054 16.407L23.9963 16.412H28.5805V17.8988H30.3177L30.3183 15.5187L30.2958 15.3843L30.2592 15.2529L30.2334 15.0949L30.1913 15.0286L30.1196 14.9411L21.953 6.77421L21.8752 6.7084L21.7948 6.65364L21.6895 6.66894L21.5418 6.58424C21.5012 6.56094 21.4585 6.54182 21.4218 6.52755L21.3386 6.5ZM12.9023 32.7617C11.2151 32.6735 9.83617 31.4213 9.55321 29.7931H11.3403C11.5955 30.515 12.2839 31.0321 13.0931 31.0321H26.7221L26.8673 31.0265C27.6128 30.9689 28.2351 30.4714 28.4748 29.7931H30.2619C29.9684 31.4823 28.4952 32.7667 26.7221 32.7667H13.0931L12.9023 32.7617ZM27.3597 14.6774L22.1378 9.4554V12.8189L22.1434 12.9641C22.2175 13.9227 23.0187 14.6774 23.9963 14.6774H27.3597ZM11.3976 25.303V27.8107H9.76217V20.1785H12.6406C14.4832 20.1785 15.9334 20.7673 15.9334 22.7408C15.9334 24.7142 14.4832 25.303 12.6406 25.303H11.3976ZM11.3976 23.8638H12.7169C13.5565 23.8638 14.2652 23.6348 14.2652 22.7408C14.2652 21.8358 13.5565 21.6177 12.7169 21.6177H11.3976V23.8638ZM19.8803 27.8107C22.5952 27.8107 23.8818 26.208 23.8818 23.9946C23.8818 21.7813 22.5952 20.1785 19.8803 20.1785H17.0237V27.8107H19.8803ZM18.6592 26.3715H19.8803C21.3959 26.3715 22.2136 25.5647 22.2136 23.9946C22.2136 22.4246 21.3959 21.6177 19.8803 21.6177H18.6592V26.3715ZM26.7493 27.8107V24.8996H30.1838V23.4277H26.7493V21.6504H30.5V20.1785H25.1138V27.8107H26.7493Z" fill="#3C94A8"/>
</svg>
