<svg width="24" height="24" viewBox="0 0 24 24" fill="none" xmlns="http://www.w3.org/2000/svg">
<path fill-rule="evenodd" clip-rule="evenodd" d="M19.8421 4.75739C18.8227 3.75307 17.4674 3.19981 16.0258 3.2C14.5842 3.2 13.2288 3.75307 12.2095 4.75757L4.47996 12.3732C4.45907 12.3936 4.44137 12.416 4.42518 12.439L3.79494 13.0599C2.20182 14.6298 2.20182 17.1839 3.79494 18.7535C4.56825 19.5154 5.59193 19.9444 6.67697 19.9613C6.699 19.9617 6.72083 19.9618 6.74286 19.9618C7.81585 19.9618 8.81901 19.5545 9.57369 18.8108L10.1834 18.2101C10.1845 18.209 10.186 18.2082 10.1874 18.2069L17.9666 10.5424C18.5003 10.0166 18.7941 9.31753 18.7941 8.5738C18.7941 7.83007 18.5001 7.13103 17.9666 6.60522C17.4331 6.07942 16.7234 5.7899 15.9686 5.7899C15.2137 5.7899 14.5044 6.07942 13.9707 6.60522L5.50063 14.9504C5.31671 15.1316 5.31671 15.4251 5.50063 15.6061C5.68435 15.7873 5.98253 15.7873 6.16607 15.6061L14.6362 7.26067C14.9921 6.91014 15.4652 6.71706 15.9686 6.71706C16.4721 6.71706 16.9452 6.91014 17.3012 7.26067C17.6571 7.6114 17.8531 8.07767 17.8531 8.57362C17.8531 9.06956 17.6571 9.53583 17.3012 9.88656L12.746 14.3747C12.7451 14.3755 12.7441 14.376 12.7432 14.377L8.90824 18.155C8.31997 18.7348 7.52671 19.041 6.69184 19.0339C5.85264 19.0209 5.06032 18.6884 4.46057 18.0977C3.23434 16.8895 3.23434 14.9237 4.46057 13.7154L8.2955 9.93719C8.31659 9.91642 8.33466 9.89379 8.35104 9.87023L12.8749 5.41302C14.6124 3.70114 17.4393 3.70132 19.1766 5.41284C20.914 7.12454 20.914 9.91011 19.1766 11.6218L10.62 20.0523C10.436 20.2335 10.436 20.527 10.62 20.708C10.7118 20.7985 10.8323 20.8437 10.9528 20.8437C11.0732 20.8437 11.1937 20.7985 11.2856 20.708L19.8421 12.2776C21.9461 10.2043 21.9461 6.83057 19.8421 4.75739Z" fill="#151616" stroke="#151616" stroke-width="0.5"/>
</svg>
