<svg width="24" height="24" viewBox="0 0 24 24" fill="none" xmlns="http://www.w3.org/2000/svg">
<path fill-rule="evenodd" clip-rule="evenodd" d="M20.1744 18.9604V7.02176H15.5751C15.324 7.02176 15.0945 6.8778 14.9822 6.64991L14.2616 4.34534H9.73838L9.01777 6.64991C8.90549 6.8778 8.67599 7.02176 8.42495 7.02176H3.82558V18.9604H20.1744ZM15.9847 5.67642H20.8372C21.2033 5.67642 21.5 5.97758 21.5 6.34909V19.6331C21.5 20.0046 21.2033 20.3057 20.8372 20.3057H3.16279C2.79674 20.3057 2.5 20.0046 2.5 19.6331V6.34909C2.5 5.97758 2.79674 5.67642 3.16279 5.67642H8.01532L8.73593 3.37184C8.84821 3.14395 9.07771 3 9.32875 3H14.6712C14.9223 3 15.1518 3.14395 15.2641 3.37184L15.9847 5.67642ZM14.8721 12.6414C14.8721 11.0316 13.5861 9.72646 12 9.72646C10.4139 9.72646 9.12791 11.0316 9.12791 12.6414C9.12791 14.2511 10.4139 15.5563 12 15.5563C13.5861 15.5563 14.8721 14.2511 14.8721 12.6414ZM16.1977 12.6414C16.1977 14.9941 14.3182 16.9016 12 16.9016C9.68181 16.9016 7.80233 14.9941 7.80233 12.6414C7.80233 10.2886 9.68181 8.38112 12 8.38112C14.3182 8.38112 16.1977 10.2886 16.1977 12.6414ZM17.1474 9.45624C17.1344 9.08496 17.4205 8.77362 17.7863 8.76085C18.1521 8.74808 18.4592 9.0387 18.4722 9.40998C18.4851 9.78126 18.1991 10.0926 17.8332 10.1054C17.4674 10.1181 17.1603 9.82752 17.1474 9.45624Z" fill="#151616"/>
<mask id="mask0_108_16762" style="mask-type:alpha" maskUnits="userSpaceOnUse" x="2" y="3" width="20" height="18">
<path fill-rule="evenodd" clip-rule="evenodd" d="M20.1744 18.9604V7.02176H15.5751C15.324 7.02176 15.0945 6.8778 14.9822 6.64991L14.2616 4.34534H9.73838L9.01777 6.64991C8.90549 6.8778 8.67599 7.02176 8.42495 7.02176H3.82558V18.9604H20.1744ZM15.9847 5.67642H20.8372C21.2033 5.67642 21.5 5.97758 21.5 6.34909V19.6331C21.5 20.0046 21.2033 20.3057 20.8372 20.3057H3.16279C2.79674 20.3057 2.5 20.0046 2.5 19.6331V6.34909C2.5 5.97758 2.79674 5.67642 3.16279 5.67642H8.01532L8.73593 3.37184C8.84821 3.14395 9.07771 3 9.32875 3H14.6712C14.9223 3 15.1518 3.14395 15.2641 3.37184L15.9847 5.67642ZM14.8721 12.6414C14.8721 11.0316 13.5861 9.72646 12 9.72646C10.4139 9.72646 9.12791 11.0316 9.12791 12.6414C9.12791 14.2511 10.4139 15.5563 12 15.5563C13.5861 15.5563 14.8721 14.2511 14.8721 12.6414ZM16.1977 12.6414C16.1977 14.9941 14.3182 16.9016 12 16.9016C9.68181 16.9016 7.80233 14.9941 7.80233 12.6414C7.80233 10.2886 9.68181 8.38112 12 8.38112C14.3182 8.38112 16.1977 10.2886 16.1977 12.6414ZM17.1474 9.45624C17.1344 9.08496 17.4205 8.77362 17.7863 8.76085C18.1521 8.74808 18.4592 9.0387 18.4722 9.40998C18.4851 9.78126 18.1991 10.0926 17.8332 10.1054C17.4674 10.1181 17.1603 9.82752 17.1474 9.45624Z" fill="white"/>
</mask>
<g mask="url(#mask0_108_16762)">
</g>
</svg>
