<svg width="24" height="24" viewBox="0 0 24 24" fill="none" xmlns="http://www.w3.org/2000/svg">
<path fill-rule="evenodd" clip-rule="evenodd" d="M20.174 18.9604V7.02175H15.5747C15.3236 7.02175 15.0941 6.8778 14.9818 6.64991L14.2612 4.34534H9.73799L9.01738 6.64991C8.90511 6.8778 8.67561 7.02175 8.42456 7.02175H3.8252V18.9604H20.174ZM15.9847 5.67642H20.8372C21.2033 5.67642 21.5 5.97758 21.5 6.34909V19.6331C21.5 20.0046 21.2033 20.3057 20.8372 20.3057H3.16279C2.79674 20.3057 2.5 20.0046 2.5 19.6331V6.34909C2.5 5.97758 2.79674 5.67642 3.16279 5.67642H8.01532L8.73593 3.37184C8.84821 3.14395 9.07771 3 9.32875 3H14.6712C14.9223 3 15.1518 3.14395 15.2641 3.37184L15.9847 5.67642ZM14.8721 12.6414C14.8721 11.0316 13.5861 9.72646 12 9.72646C10.4139 9.72646 9.12791 11.0316 9.12791 12.6414C9.12791 14.2511 10.4139 15.5563 12 15.5563C13.5861 15.5563 14.8721 14.2511 14.8721 12.6414ZM16.1981 12.6414C16.1981 14.9941 14.3186 16.9016 12.0004 16.9016C9.68222 16.9016 7.80273 14.9941 7.80273 12.6414C7.80273 10.2886 9.68222 8.3811 12.0004 8.3811C14.3186 8.3811 16.1981 10.2886 16.1981 12.6414ZM17.1475 9.45626C17.1345 9.08498 17.4206 8.77364 17.7864 8.76087C18.1522 8.74809 18.4593 9.03872 18.4723 9.41C18.4852 9.78127 18.1992 10.0926 17.8334 10.1054C17.4675 10.1182 17.1605 9.82754 17.1475 9.45626Z" fill="#151616"/>
<mask id="mask0_3403_11947" style="mask-type:alpha" maskUnits="userSpaceOnUse" x="2" y="3" width="20" height="18">
<path fill-rule="evenodd" clip-rule="evenodd" d="M20.174 18.9604V7.02175H15.5747C15.3236 7.02175 15.0941 6.8778 14.9818 6.64991L14.2612 4.34534H9.73799L9.01738 6.64991C8.90511 6.8778 8.67561 7.02175 8.42456 7.02175H3.8252V18.9604H20.174ZM15.9847 5.67642H20.8372C21.2033 5.67642 21.5 5.97758 21.5 6.34909V19.6331C21.5 20.0046 21.2033 20.3057 20.8372 20.3057H3.16279C2.79674 20.3057 2.5 20.0046 2.5 19.6331V6.34909C2.5 5.97758 2.79674 5.67642 3.16279 5.67642H8.01532L8.73593 3.37184C8.84821 3.14395 9.07771 3 9.32875 3H14.6712C14.9223 3 15.1518 3.14395 15.2641 3.37184L15.9847 5.67642ZM14.8721 12.6414C14.8721 11.0316 13.5861 9.72646 12 9.72646C10.4139 9.72646 9.12791 11.0316 9.12791 12.6414C9.12791 14.2511 10.4139 15.5563 12 15.5563C13.5861 15.5563 14.8721 14.2511 14.8721 12.6414ZM16.1981 12.6414C16.1981 14.9941 14.3186 16.9016 12.0004 16.9016C9.68222 16.9016 7.80273 14.9941 7.80273 12.6414C7.80273 10.2886 9.68222 8.3811 12.0004 8.3811C14.3186 8.3811 16.1981 10.2886 16.1981 12.6414ZM17.1475 9.45626C17.1345 9.08498 17.4206 8.77364 17.7864 8.76087C18.1522 8.74809 18.4593 9.03872 18.4723 9.41C18.4852 9.78127 18.1992 10.0926 17.8334 10.1054C17.4675 10.1182 17.1605 9.82754 17.1475 9.45626Z" fill="white"/>
</mask>
<g mask="url(#mask0_3403_11947)">
</g>
</svg>
