<svg width="24" height="24" viewBox="0 0 24 24" fill="none" xmlns="http://www.w3.org/2000/svg">
<path fill-rule="evenodd" clip-rule="evenodd" d="M18.8668 2.5H5.13315C3.73707 2.5 2.59475 3.58647 2.5056 4.96002L2.5 5.13315V18.8668C2.5 20.2629 3.58648 21.4052 4.96002 21.4944L5.13315 21.5L18.8625 21.5C18.958 21.4987 19.0533 21.4918 19.1443 21.4801L19.2771 21.459L19.6418 21.3823H19.7022L19.9756 21.2819L20.0906 21.2204L20.3411 21.0792C20.3523 21.0723 20.362 21.0659 20.3705 21.0599C20.4506 21.001 20.528 20.9387 20.5937 20.8829L20.6824 20.8054L20.7751 20.6897L20.897 20.5562L21.0057 20.417L21.0863 20.3012C21.1455 20.2069 21.1965 20.1077 21.2564 19.9687L21.2825 19.9178L21.3235 19.8167L21.3934 19.5916L21.4019 19.6026L21.4142 19.3691C21.4467 19.2568 21.4705 19.1423 21.485 19.0309L21.5 18.8668V5.13315C21.5 3.73707 20.4135 2.59475 19.04 2.5056L18.8668 2.5ZM8.07609 10.8016C8.37109 10.8016 8.65561 10.9026 8.88303 11.0849L8.99176 11.1827L17.9563 20.1576H5.13315C4.46484 20.1576 3.91516 19.6497 3.84906 18.9988L3.84239 18.8668V14.5108L7.15965 11.1834C7.40201 10.9391 7.73192 10.8016 8.07609 10.8016ZM15.9239 12.7636C16.162 12.7636 16.3941 12.8294 16.6045 12.9595L16.728 13.0453L16.8398 13.1448L20.1576 16.4727L20.1576 18.8692C20.1564 19.0283 20.1258 19.1859 20.0596 19.3515C20.0301 19.4144 19.9956 19.4748 19.9625 19.5228L19.9067 19.6038L19.8446 19.6801L19.6264 19.9272L13.9261 14.2268L15.0075 13.1454C15.2498 12.901 15.5797 12.7636 15.9239 12.7636ZM18.8668 3.84239C19.5352 3.84239 20.0848 4.3503 20.1509 5.00118L20.1576 5.13315V14.5669L17.7904 12.2247C16.7896 11.2751 15.2453 11.2338 14.2023 12.0959L14.0633 12.219L12.981 13.3013L9.94253 10.2628C8.94175 9.31315 7.39743 9.27187 6.35345 10.135L6.21429 10.2582L3.84239 12.6049V5.13315C3.84239 4.46484 4.35031 3.91515 5.00118 3.84905L5.13315 3.84239H18.8668Z" fill="#151616"/>
</svg>
