<svg width="24" height="24" viewBox="0 0 24 24" fill="none" xmlns="http://www.w3.org/2000/svg">
<path fill-rule="evenodd" clip-rule="evenodd" d="M4.17391 4C3.53023 4 3 4.5162 3 5.14286V8.57143V12.381V18.8571C3 19.4838 3.53023 20 4.17391 20H19.8261C20.4698 20 21 19.4838 21 18.8571V6.66667C21 6.04001 20.4698 5.52381 19.8261 5.52381H9.26087C9.26087 5.52381 9.24873 5.52395 9.15311 5.41667C9.05748 5.30939 8.93977 5.13141 8.81683 4.94048L8.80024 4.9147C8.68226 4.73131 8.55775 4.53779 8.4026 4.36682C8.24015 4.18781 8.01603 4 7.69565 4H4.17391ZM4.17391 4.7619H7.69565C7.69565 4.7619 7.71958 4.76458 7.81641 4.87128C7.91324 4.97798 8.03109 5.15522 8.15345 5.34524L8.18149 5.38886C8.29529 5.56603 8.41463 5.75182 8.56157 5.91667C8.72062 6.0951 8.93958 6.28571 9.26087 6.28571H19.8261C20.0472 6.28571 20.2174 6.45142 20.2174 6.66667V8.50089C20.0942 8.45763 19.9638 8.42946 19.8261 8.42946H4.17391C4.03624 8.42946 3.90583 8.45763 3.78261 8.50089V5.14286C3.78261 4.92761 3.95281 4.7619 4.17391 4.7619ZM19.8261 9.19136H4.17391C3.95281 9.19136 3.78261 9.35707 3.78261 9.57232V18.8571C3.78261 19.0724 3.95281 19.2381 4.17391 19.2381H19.8261C20.0472 19.2381 20.2174 19.0724 20.2174 18.8571V9.57232C20.2174 9.35707 20.0472 9.19136 19.8261 9.19136Z" fill="#151616"/>
<path d="M9.26087 5.52381V5.22379L9.25744 5.22383L9.26087 5.52381ZM9.15311 5.41667L9.37705 5.21705L9.37705 5.21705L9.15311 5.41667ZM8.81683 4.94048L8.56456 5.10283L8.5646 5.10289L8.81683 4.94048ZM8.80024 4.9147L8.54795 5.07702L8.54797 5.07705L8.80024 4.9147ZM8.4026 4.36682L8.62476 4.16521L8.62476 4.16521L8.4026 4.36682ZM7.69565 4.7619L7.72893 4.46376L7.71234 4.4619H7.69565V4.7619ZM7.81641 4.87128L7.59424 5.07288L7.59424 5.07288L7.81641 4.87128ZM8.15345 5.34524L8.4058 5.18301L8.40568 5.18282L8.15345 5.34524ZM8.18149 5.38886L8.43391 5.22673L8.43385 5.22663L8.18149 5.38886ZM8.56157 5.91667L8.33762 6.11629V6.11629L8.56157 5.91667ZM20.2174 8.50089L20.118 8.78395L20.5174 8.92417V8.50089H20.2174ZM3.78261 8.50089H3.48261V8.92417L3.88199 8.78395L3.78261 8.50089ZM3.3 5.14286C3.3 4.68942 3.68828 4.3 4.17391 4.3V3.7C3.37218 3.7 2.7 4.34299 2.7 5.14286H3.3ZM3.3 8.57143V5.14286H2.7V8.57143H3.3ZM3.3 12.381V8.57143H2.7V12.381H3.3ZM3.3 18.8571V12.381H2.7V18.8571H3.3ZM4.17391 19.7C3.68828 19.7 3.3 19.3106 3.3 18.8571H2.7C2.7 19.657 3.37218 20.3 4.17391 20.3V19.7ZM19.8261 19.7H4.17391V20.3H19.8261V19.7ZM20.7 18.8571C20.7 19.3106 20.3117 19.7 19.8261 19.7V20.3C20.6278 20.3 21.3 19.657 21.3 18.8571H20.7ZM20.7 6.66667V18.8571H21.3V6.66667H20.7ZM19.8261 5.82381C20.3117 5.82381 20.7 6.21323 20.7 6.66667H21.3C21.3 5.86679 20.6278 5.22381 19.8261 5.22381V5.82381ZM9.26087 5.82381H19.8261V5.22381H9.26087V5.82381ZM8.92916 5.61629C8.97966 5.67293 9.01544 5.70962 9.04309 5.73429C9.05641 5.74618 9.07481 5.7616 9.09721 5.77575C9.1086 5.78295 9.12645 5.7933 9.14953 5.80246C9.16143 5.80718 9.17678 5.81241 9.19504 5.81651C9.20429 5.81858 9.21471 5.82046 9.22615 5.8218C9.23189 5.82246 9.23795 5.823 9.2443 5.82335C9.24748 5.82353 9.25073 5.82366 9.25407 5.82373C9.25573 5.82377 9.25742 5.82379 9.25912 5.8238C9.25998 5.82381 9.26126 5.82381 9.2617 5.82381C9.263 5.8238 9.2643 5.82379 9.26087 5.52381C9.25744 5.22383 9.25874 5.22382 9.26004 5.22381C9.26047 5.22381 9.26176 5.22381 9.26261 5.22381C9.26432 5.22382 9.266 5.22385 9.26767 5.22389C9.271 5.22396 9.27425 5.22409 9.27742 5.22427C9.28376 5.22462 9.2898 5.22515 9.29551 5.22582C9.3069 5.22714 9.31724 5.22901 9.32638 5.23106C9.34441 5.23511 9.35941 5.24023 9.3708 5.24475C9.39284 5.2535 9.40899 5.26302 9.41775 5.26856C9.42717 5.27451 9.43385 5.27957 9.43723 5.28222C9.43908 5.28367 9.44045 5.2848 9.44129 5.28552C9.44215 5.28623 9.4426 5.28664 9.44261 5.28664C9.44262 5.28666 9.44228 5.28635 9.44155 5.28567C9.44082 5.28499 9.43976 5.28398 9.43834 5.2826C9.43547 5.27982 9.43138 5.27574 9.42588 5.27006C9.41481 5.25861 9.39896 5.24162 9.37705 5.21705L8.92916 5.61629ZM8.5646 5.10289C8.68395 5.28825 8.81479 5.48798 8.92916 5.61629L9.37705 5.21705C9.30017 5.13079 9.19559 4.97456 9.06906 4.77806L8.5646 5.10289ZM8.54797 5.07705L8.56456 5.10283L9.0691 4.77812L9.05252 4.75235L8.54797 5.07705ZM8.18044 4.56842C8.3162 4.71803 8.42789 4.89041 8.54795 5.07702L9.05254 4.75238C8.93663 4.57222 8.79931 4.35756 8.62476 4.16521L8.18044 4.56842ZM7.69565 4.3C7.88605 4.3 8.03477 4.4079 8.18044 4.56842L8.62476 4.16521C8.44553 3.96771 8.14601 3.7 7.69565 3.7V4.3ZM4.17391 4.3H7.69565V3.7H4.17391V4.3ZM7.69565 4.4619H4.17391V5.0619H7.69565V4.4619ZM8.03857 4.66968C7.98426 4.60983 7.94085 4.56839 7.90341 4.53939C7.88441 4.52468 7.86242 4.50961 7.83732 4.4968C7.82446 4.49023 7.80924 4.48346 7.79184 4.47766C7.78305 4.47472 7.77342 4.47194 7.76301 4.46955C7.75779 4.46836 7.75234 4.46725 7.74667 4.46627C7.74383 4.46578 7.74093 4.46533 7.73797 4.4649C7.7365 4.46469 7.735 4.46449 7.7335 4.4643C7.73274 4.46421 7.73199 4.46411 7.73123 4.46402C7.73084 4.46398 7.73027 4.46391 7.73008 4.46389C7.72951 4.46382 7.72893 4.46376 7.69565 4.7619C7.66237 5.06005 7.6618 5.05999 7.66122 5.05992C7.66103 5.0599 7.66046 5.05983 7.66008 5.05979C7.65932 5.0597 7.65857 5.0596 7.65782 5.05951C7.65631 5.05932 7.65483 5.05912 7.65336 5.05891C7.65043 5.05849 7.64757 5.05804 7.64478 5.05756C7.63921 5.0566 7.6339 5.05552 7.62888 5.05437C7.61887 5.05207 7.60985 5.04945 7.6019 5.0468C7.58619 5.04156 7.57359 5.03583 7.56449 5.03118C7.5469 5.0222 7.53694 5.01447 7.53603 5.01377C7.53476 5.01278 7.55172 5.02602 7.59424 5.07288L8.03857 4.66968ZM8.40568 5.18282C8.28675 4.99812 8.15528 4.79829 8.03857 4.66968L7.59424 5.07288C7.6712 5.15768 7.77543 5.31231 7.90122 5.50765L8.40568 5.18282ZM8.43385 5.22663L8.4058 5.18301L7.90109 5.50746L7.92914 5.55109L8.43385 5.22663ZM8.78551 5.71705C8.65684 5.5727 8.54972 5.40704 8.43391 5.22673L7.92908 5.55099C8.04086 5.72503 8.17241 5.93095 8.33762 6.11629L8.78551 5.71705ZM9.26087 5.98571C9.07245 5.98571 8.92944 5.87852 8.78551 5.71705L8.33762 6.11629C8.51179 6.31168 8.80671 6.58571 9.26087 6.58571V5.98571ZM19.8261 5.98571H9.26087V6.58571H19.8261V5.98571ZM20.5174 6.66667C20.5174 6.2782 20.2052 5.98571 19.8261 5.98571V6.58571C19.8602 6.58571 19.8825 6.59784 19.8954 6.61043C19.908 6.62272 19.9174 6.64063 19.9174 6.66667H20.5174ZM20.5174 8.50089V6.66667H19.9174V8.50089H20.5174ZM19.8261 8.72946C19.9223 8.72946 20.0187 8.74908 20.118 8.78395L20.3168 8.21783C20.1696 8.16617 20.0052 8.12946 19.8261 8.12946V8.72946ZM4.17391 8.72946H19.8261V8.12946H4.17391V8.72946ZM3.88199 8.78395C3.9813 8.74908 4.07765 8.72946 4.17391 8.72946V8.12946C3.99482 8.12946 3.83036 8.16617 3.68323 8.21783L3.88199 8.78395ZM3.48261 5.14286V8.50089H4.08261V5.14286H3.48261ZM4.17391 4.4619C3.79476 4.4619 3.48261 4.75439 3.48261 5.14286H4.08261C4.08261 5.11682 4.09199 5.09891 4.10462 5.08662C4.11755 5.07403 4.13978 5.0619 4.17391 5.0619V4.4619ZM4.17391 9.49136H19.8261V8.89136H4.17391V9.49136ZM4.08261 9.57232C4.08261 9.54628 4.09199 9.52837 4.10462 9.51608C4.11755 9.50349 4.13978 9.49136 4.17391 9.49136V8.89136C3.79476 8.89136 3.48261 9.18385 3.48261 9.57232H4.08261ZM4.08261 18.8571V9.57232H3.48261V18.8571H4.08261ZM4.17391 18.9381C4.13978 18.9381 4.11755 18.926 4.10462 18.9134C4.09199 18.9011 4.08261 18.8832 4.08261 18.8571H3.48261C3.48261 19.2456 3.79476 19.5381 4.17391 19.5381V18.9381ZM19.8261 18.9381H4.17391V19.5381H19.8261V18.9381ZM19.9174 18.8571C19.9174 18.8832 19.908 18.9011 19.8954 18.9134C19.8825 18.926 19.8602 18.9381 19.8261 18.9381V19.5381C20.2052 19.5381 20.5174 19.2456 20.5174 18.8571H19.9174ZM19.9174 9.57232V18.8571H20.5174V9.57232H19.9174ZM19.8261 9.49136C19.8602 9.49136 19.8825 9.50349 19.8954 9.51608C19.908 9.52837 19.9174 9.54628 19.9174 9.57232H20.5174C20.5174 9.18385 20.2052 8.89136 19.8261 8.89136V9.49136Z" fill="#151616"/>
</svg>
