<svg width="24" height="24" viewBox="0 0 24 24" fill="none" xmlns="http://www.w3.org/2000/svg">
<path fill-rule="evenodd" clip-rule="evenodd" d="M3.75 18.0795C3.33579 18.0795 3 17.7437 3 17.3295C3 16.9153 3.33579 16.5795 3.75 16.5795H20.8026C21.2168 16.5795 21.5526 16.9153 21.5526 17.3295C21.5526 17.7437 21.2168 18.0795 20.8026 18.0795H3.75ZM3.75 7.5C3.33579 7.5 3 7.16421 3 6.75C3 6.33579 3.33579 6 3.75 6H20.8026C21.2168 6 21.5526 6.33579 21.5526 6.75C21.5526 7.16421 21.2168 7.5 20.8026 7.5H3.75ZM3.75 12.7898C3.33579 12.7898 3 12.454 3 12.0398C3 11.6256 3.33579 11.2898 3.75 11.2898H20.8026C21.2168 11.2898 21.5526 11.6256 21.5526 12.0398C21.5526 12.454 21.2168 12.7898 20.8026 12.7898H3.75Z" fill="#151616"/>
<mask id="mask0_67_12" style="mask-type:alpha" maskUnits="userSpaceOnUse" x="3" y="6" width="19" height="13">
<path fill-rule="evenodd" clip-rule="evenodd" d="M3.75 18.0795C3.33579 18.0795 3 17.7437 3 17.3295C3 16.9153 3.33579 16.5795 3.75 16.5795H20.8026C21.2168 16.5795 21.5526 16.9153 21.5526 17.3295C21.5526 17.7437 21.2168 18.0795 20.8026 18.0795H3.75ZM3.75 7.5C3.33579 7.5 3 7.16421 3 6.75C3 6.33579 3.33579 6 3.75 6H20.8026C21.2168 6 21.5526 6.33579 21.5526 6.75C21.5526 7.16421 21.2168 7.5 20.8026 7.5H3.75ZM3.75 12.7898C3.33579 12.7898 3 12.454 3 12.0398C3 11.6256 3.33579 11.2898 3.75 11.2898H20.8026C21.2168 11.2898 21.5526 11.6256 21.5526 12.0398C21.5526 12.454 21.2168 12.7898 20.8026 12.7898H3.75Z" fill="white"/>
</mask>
<g mask="url(#mask0_67_12)">
</g>
</svg>
