<svg width="40" height="40" viewBox="0 0 40 40" fill="none" xmlns="http://www.w3.org/2000/svg">
<mask id="mask0_3145_2972" style="mask-type:alpha" maskUnits="userSpaceOnUse" x="0" y="0" width="40" height="40">
<path fill-rule="evenodd" clip-rule="evenodd" d="M20 40C31.0457 40 40 31.0457 40 20C40 8.9543 31.0457 0 20 0C8.9543 0 0 8.9543 0 20C0 31.0457 8.9543 40 20 40Z" fill="white"/>
</mask>
<g mask="url(#mask0_3145_2972)">
<rect width="40" height="40" fill="#3C94A8" fill-opacity="0.1"/>
</g>
<path fill-rule="evenodd" clip-rule="evenodd" d="M22.2962 9.57663L22.2213 10.6484C22.1896 11.101 22.5313 11.4877 22.9843 11.5121C23.4374 11.5365 23.8304 11.1894 23.862 10.7368L23.937 9.66499C23.9686 9.21236 23.627 8.82566 23.1739 8.80126C22.7209 8.77686 22.3279 9.12401 22.2962 9.57663ZM12.6915 26.8684L20.7569 18.5906C21.2567 18.6989 21.8003 18.5552 22.18 18.1639L24.333 15.9462C24.912 15.3498 24.891 14.4042 24.2861 13.8341C23.6813 13.264 22.7216 13.2852 22.1427 13.8816L19.9897 16.0994C19.5922 16.5089 19.4775 17.083 19.6405 17.5872L11.6019 25.8375C10.3461 27.1264 10.3878 29.1737 11.6949 30.4105C13.0021 31.6472 15.0797 31.6049 16.3355 30.3161L22.322 24.1549C23.0944 23.3622 23.0688 22.1028 22.2648 21.3421C21.4608 20.5814 20.1828 20.6074 19.4104 21.4002L13.7901 27.1855C13.501 27.4822 13.5106 27.9535 13.8115 28.2381C14.1124 28.5228 14.5906 28.5131 14.8797 28.2164L20.5 22.4311C20.6943 22.2317 21.0158 22.2251 21.218 22.4165C21.4202 22.6078 21.4267 22.9246 21.2324 23.124L15.2459 29.2852C14.5682 29.9807 13.4471 30.0035 12.7417 29.3361C12.0363 28.6687 12.0139 27.5639 12.6915 26.8684ZM25.4607 11.5114L26.2072 10.7387C26.5224 10.4123 27.0466 10.3991 27.3779 10.709C27.7093 11.019 27.7223 11.5348 27.4071 11.8612L26.6606 12.6339C26.3454 12.9602 25.8212 12.9735 25.4899 12.6635C25.1585 12.3535 25.1455 11.8377 25.4607 11.5114ZM28.5026 14.0873L27.4335 14.1936C26.982 14.2385 26.6582 14.6402 26.7103 15.091C26.7625 15.5417 27.1707 15.8707 27.6222 15.8258L28.6913 15.7196C29.1428 15.6747 29.4666 15.2729 29.4145 14.8222C29.3624 14.3715 28.9542 14.0425 28.5026 14.0873Z" fill="#3C94A8"/>
</svg>
