<svg width="40" height="40" viewBox="0 0 40 40" fill="none" xmlns="http://www.w3.org/2000/svg">
<mask id="mask0_3145_3097" style="mask-type:alpha" maskUnits="userSpaceOnUse" x="0" y="0" width="40" height="40">
<path fill-rule="evenodd" clip-rule="evenodd" d="M20 40C31.0457 40 40 31.0457 40 20C40 8.9543 31.0457 0 20 0C8.9543 0 0 8.9543 0 20C0 31.0457 8.9543 40 20 40Z" fill="white"/>
</mask>
<g mask="url(#mask0_3145_3097)">
<rect width="40" height="40" fill="#3C94A8" fill-opacity="0.1"/>
</g>
<path fill-rule="evenodd" clip-rule="evenodd" d="M14.5931 13.1947C15.5741 12.7813 17.7219 11.9919 19.9104 11.9919C22.0989 11.9919 24.2466 12.7813 25.2277 13.1947C25.8732 13.4668 26.2592 14.1045 26.2337 14.7848C26.2071 15.4918 26.1328 16.7092 25.9229 17.9675C25.7174 19.1992 25.3654 20.5808 24.7256 21.5404C23.9214 22.7467 23.1155 23.6236 22.5482 24.1723C22.2327 24.4775 22.0575 24.8615 22.0575 25.2282V26.7126C22.0575 27.8984 21.0962 28.8597 19.9104 28.8597C18.7246 28.8597 17.7633 27.8984 17.7633 26.7126V25.2282C17.7633 24.8615 17.588 24.4775 17.2726 24.1723C16.7053 23.6236 15.8994 22.7467 15.0952 21.5404C14.4554 20.5808 14.1034 19.1992 13.8979 17.9675C13.688 16.7092 13.6137 15.4918 13.5871 14.7848C13.5616 14.1045 13.9476 13.4668 14.5931 13.1947ZM19.9104 13.4919C18.0283 13.4919 16.1054 14.1852 15.1757 14.577C15.1231 14.5991 15.0832 14.6518 15.0861 14.7285C15.1114 15.4031 15.1822 16.5502 15.3775 17.7207C15.5772 18.9177 15.8905 20.0292 16.3432 20.7083C17.0778 21.8102 17.8107 22.6059 18.3155 23.0942C18.8692 23.6298 19.2633 24.3857 19.2633 25.2282V26.7126C19.2633 27.07 19.553 27.3597 19.9104 27.3597C20.2678 27.3597 20.5575 27.07 20.5575 26.7126V25.2282C20.5575 24.3857 20.9516 23.6298 21.5053 23.0942C22.0101 22.6059 22.743 21.8102 23.4776 20.7083C23.9303 20.0292 24.2436 18.9177 24.4433 17.7207C24.6386 16.5502 24.7094 15.4031 24.7347 14.7285C24.7376 14.6518 24.6977 14.5991 24.6451 14.577C23.7154 14.1852 21.7925 13.4919 19.9104 13.4919Z" fill="#3C94A8"/>
<path fill-rule="evenodd" clip-rule="evenodd" d="M9.38281 16.5839C9.38281 15.591 10.1877 14.7861 11.1806 14.7861C12.1735 14.7861 12.9784 15.591 12.9784 16.5839C12.9784 17.5768 12.1735 18.3817 11.1806 18.3817C10.1877 18.3817 9.38281 17.5768 9.38281 16.5839ZM11.1806 16.2861C11.0161 16.2861 10.8828 16.4195 10.8828 16.5839C10.8828 16.7484 11.0161 16.8817 11.1806 16.8817C11.3451 16.8817 11.4784 16.7484 11.4784 16.5839C11.4784 16.4195 11.3451 16.2861 11.1806 16.2861Z" fill="#3C94A8"/>
<path fill-rule="evenodd" clip-rule="evenodd" d="M26.8477 16.5839C26.8477 15.591 27.6526 14.7861 28.6455 14.7861C29.6384 14.7861 30.4433 15.591 30.4433 16.5839C30.4433 17.5768 29.6384 18.3817 28.6455 18.3817C27.6526 18.3817 26.8477 17.5768 26.8477 16.5839ZM28.6455 16.2861C28.481 16.2861 28.3477 16.4195 28.3477 16.5839C28.3477 16.7484 28.481 16.8817 28.6455 16.8817C28.8099 16.8817 28.9433 16.7484 28.9433 16.5839C28.9433 16.4195 28.8099 16.2861 28.6455 16.2861Z" fill="#3C94A8"/>
<path fill-rule="evenodd" clip-rule="evenodd" d="M25.4859 12.9611C26.1906 12.0801 27.415 11.8112 28.4241 12.3157C29.2346 12.721 29.7466 13.5494 29.7466 14.4556V15.1869C29.7466 15.6011 29.4108 15.9369 28.9966 15.9369C28.5824 15.9369 28.2466 15.6011 28.2466 15.1869V14.4556C28.2466 14.1176 28.0556 13.8086 27.7532 13.6574C27.3768 13.4692 26.9201 13.5695 26.6572 13.8981L26.0896 14.6076C25.8308 14.931 25.3589 14.9835 25.0354 14.7247C24.712 14.466 24.6595 13.994 24.9183 13.6705L25.4859 12.9611Z" fill="#3C94A8"/>
<path fill-rule="evenodd" clip-rule="evenodd" d="M14.3423 12.9611C13.6375 12.0801 12.4131 11.8112 11.4041 12.3157C10.5935 12.721 10.0815 13.5494 10.0815 14.4556V15.1869C10.0815 15.6011 10.4173 15.9369 10.8315 15.9369C11.2457 15.9369 11.5815 15.6011 11.5815 15.1869V14.4556C11.5815 14.1176 11.7725 13.8086 12.0749 13.6574C12.4513 13.4692 12.9081 13.5695 13.171 13.8981L13.7385 14.6076C13.9973 14.931 14.4693 14.9835 14.7927 14.7247C15.1162 14.466 15.1686 13.994 14.9098 13.6705L14.3423 12.9611Z" fill="#3C94A8"/>
</svg>
