<svg width="40" height="40" viewBox="0 0 40 40" fill="none" xmlns="http://www.w3.org/2000/svg">
<mask id="mask0_3145_2320" style="mask-type:alpha" maskUnits="userSpaceOnUse" x="0" y="0" width="40" height="40">
<path fill-rule="evenodd" clip-rule="evenodd" d="M20 40C31.0457 40 40 31.0457 40 20C40 8.9543 31.0457 0 20 0C8.9543 0 0 8.9543 0 20C0 31.0457 8.9543 40 20 40Z" fill="white"/>
</mask>
<g mask="url(#mask0_3145_2320)">
<rect width="40" height="40" fill="#3C94A8" fill-opacity="0.1"/>
</g>
<path fill-rule="evenodd" clip-rule="evenodd" d="M26.3057 11C26.3057 11.4142 25.9699 11.75 25.5557 11.75L24.0835 11.75L24.0835 27.6667C24.0835 29.9218 22.2553 31.75 20.0002 31.75C17.745 31.75 15.9168 29.9218 15.9168 27.6667L15.9168 11.75L14.4445 11.75C14.0303 11.75 13.6945 11.4142 13.6945 11C13.6945 10.5858 14.0303 10.25 14.4445 10.25H16.6668H23.3335H25.5557C25.9699 10.25 26.3057 10.5858 26.3057 11ZM17.4168 11.75L22.5835 11.75L22.5835 27.6667C22.5835 29.0934 21.4269 30.25 20.0002 30.25C18.5734 30.25 17.4168 29.0934 17.4168 27.6667L17.4168 11.75ZM20.75 21C20.75 20.5858 20.4142 20.25 20 20.25C19.5858 20.25 19.25 20.5858 19.25 21L19.25 27.6667C19.25 28.0809 19.5858 28.4167 20 28.4167C20.4142 28.4167 20.75 28.0809 20.75 27.6667L20.75 21Z" fill="#3C94A8"/>
</svg>
