<svg width="40" height="40" viewBox="0 0 40 40" fill="none" xmlns="http://www.w3.org/2000/svg">
<mask id="mask0_3145_2269" style="mask-type:alpha" maskUnits="userSpaceOnUse" x="0" y="0" width="40" height="40">
<path fill-rule="evenodd" clip-rule="evenodd" d="M20 40C31.0457 40 40 31.0457 40 20C40 8.9543 31.0457 0 20 0C8.9543 0 0 8.9543 0 20C0 31.0457 8.9543 40 20 40Z" fill="white"/>
</mask>
<g mask="url(#mask0_3145_2269)">
<rect width="40" height="40" fill="#3C94A8" fill-opacity="0.1"/>
</g>
<path fill-rule="evenodd" clip-rule="evenodd" d="M20.2939 10.4709C19.7681 10.4709 19.3418 10.8973 19.3418 11.423C19.3418 11.9488 19.7681 12.3751 20.2939 12.3751C20.8196 12.3751 21.2459 11.9488 21.2459 11.423C21.2459 10.8973 20.8196 10.4709 20.2939 10.4709ZM17.8418 11.423C17.8418 10.0688 18.9397 8.97095 20.2939 8.97095C21.648 8.97095 22.7459 10.0688 22.7459 11.423C22.7459 12.7772 21.648 13.8751 20.2939 13.8751C18.9397 13.8751 17.8418 12.7772 17.8418 11.423ZM24.1074 13.0269C24.0831 13.0269 24.0601 13.0274 24.0387 13.0282C23.623 13.0129 23.1985 13.151 22.8609 13.4482L20.698 15.35L18.0039 16.1866C17.1125 16.4639 16.6147 17.4115 16.8921 18.3027C17.1665 19.1842 18.0964 19.6807 18.9792 19.4226L21.9878 18.7129C22.0048 18.7089 22.0217 18.7043 22.0384 18.6991C22.1225 18.6729 22.1921 18.6348 22.2119 18.6239L22.2138 18.6228C22.2467 18.6048 22.2801 18.5849 22.3103 18.5664C22.3714 18.5288 22.444 18.4815 22.5197 18.431L22.555 18.4075V19.7517C22.555 20.166 22.8908 20.5017 23.305 20.5017H28.1406C28.5548 20.5017 28.8906 20.166 28.8906 19.7517V16.8238C28.8906 14.7267 27.1907 13.0269 25.0937 13.0269H24.1074ZM24.0787 14.5278C24.093 14.5271 24.1018 14.5269 24.1074 14.5269H25.0937C26.3623 14.5269 27.3906 15.5552 27.3906 16.8238V19.0017H24.055V16.9669C24.055 16.6857 23.8976 16.428 23.6473 16.2996C23.397 16.1712 23.0959 16.1937 22.8675 16.3578L22.81 16.3989L22.6559 16.5089C22.5275 16.6002 22.3555 16.7221 22.1798 16.845C22.0033 16.9684 21.8266 17.0904 21.6879 17.1828C21.6291 17.222 21.5809 17.2534 21.5442 17.2764L18.6129 17.9679C18.5958 17.9719 18.5789 17.9765 18.5621 17.9817C18.4619 18.0129 18.3554 17.9569 18.3243 17.8566C18.2931 17.7566 18.3489 17.6502 18.4491 17.619L21.2956 16.735C21.3963 16.7038 21.4892 16.6516 21.5684 16.582L23.8519 14.5742C23.8912 14.5396 23.9395 14.5242 23.9891 14.5274C24.0189 14.5293 24.0489 14.5295 24.0787 14.5278ZM27.7694 21.1016L16.5355 21.1017C15.5822 21.1017 14.7634 21.6709 14.3975 22.4852C14.3355 22.593 14.2819 22.7135 14.2429 22.8448L13.2866 26.0492L11.4139 28.2409C10.8074 28.9502 10.8909 30.0166 11.5998 30.6232C12.3091 31.2302 13.3762 31.1466 13.9829 30.4374L16.0441 28.0248C16.0699 27.9947 16.0929 27.9645 16.1077 27.9445C16.2475 27.7757 16.3589 27.575 16.4261 27.3479L16.4265 27.3467L16.8915 25.7884L27.7693 25.7882C29.0634 25.7882 30.1127 24.7391 30.1127 23.4449C30.1127 22.1507 29.0636 21.1016 27.7694 21.1016ZM16.5355 22.6017L27.7694 22.6016C28.2352 22.6016 28.6127 22.9792 28.6127 23.4449C28.6127 23.9106 28.2351 24.2882 27.7693 24.2882L16.5354 24.2884C16.5021 24.2884 16.4671 24.2861 16.4298 24.2815C16.0661 24.2358 15.7226 24.4599 15.6178 24.8111L14.9885 26.9199L14.9878 26.9221C14.9805 26.9468 14.9681 26.9697 14.9496 26.9911C14.937 27.0057 14.925 27.0208 14.9136 27.0363L14.9042 27.0491L14.9002 27.0545L12.8427 29.4628C12.7745 29.5424 12.6546 29.5517 12.575 29.4836C12.4951 29.4152 12.4862 29.2949 12.5543 29.2153L14.5301 26.903C14.5981 26.8234 14.6486 26.7305 14.6786 26.6303L15.6807 23.2722L15.6812 23.2707C15.6849 23.2583 15.6913 23.243 15.7029 23.2244C15.7239 23.1907 15.7422 23.1553 15.7575 23.1187C15.8857 22.8137 16.1868 22.6017 16.5355 22.6017ZM9.87537 23.2047C9.87537 22.679 10.3017 22.2527 10.8274 22.2527C11.3532 22.2527 11.7795 22.679 11.7795 23.2047C11.7795 23.7305 11.3532 24.1568 10.8274 24.1568C10.3017 24.1568 9.87537 23.7305 9.87537 23.2047ZM10.8274 20.7527C9.47325 20.7527 8.37537 21.8506 8.37537 23.2047C8.37537 24.5589 9.47325 25.6568 10.8274 25.6568C12.1816 25.6568 13.2795 24.5589 13.2795 23.2047C13.2795 21.8506 12.1816 20.7527 10.8274 20.7527Z" fill="#3C94A8"/>
</svg>
