<svg width="40" height="40" viewBox="0 0 40 40" fill="none" xmlns="http://www.w3.org/2000/svg">
<mask id="mask0_3145_2292" style="mask-type:alpha" maskUnits="userSpaceOnUse" x="0" y="0" width="40" height="40">
<path fill-rule="evenodd" clip-rule="evenodd" d="M20 40C31.0457 40 40 31.0457 40 20C40 8.9543 31.0457 0 20 0C8.9543 0 0 8.9543 0 20C0 31.0457 8.9543 40 20 40Z" fill="white"/>
</mask>
<g mask="url(#mask0_3145_2292)">
<rect width="40" height="40" fill="#EBF1F8"/>
</g>
<path fill-rule="evenodd" clip-rule="evenodd" d="M19.2613 26.3819C18.9042 26.5711 18.7682 27.014 18.9574 27.371C19.0124 27.4748 19.0888 27.5599 19.1783 27.6238C17.7995 27.0231 16.4588 26.1281 15.26 24.9462C14.0667 23.7699 13.1473 22.4404 12.5125 21.0618C12.5759 21.1326 12.6542 21.1922 12.7457 21.2353C13.1112 21.4075 13.5472 21.2508 13.7194 20.8853L16.8363 14.2704C16.9687 13.9895 16.9092 13.6555 16.688 13.4375L13.4142 10.2106C13.1228 9.9233 12.6524 9.93093 12.3704 10.2275C8.56744 14.2271 9.44985 21.2738 14.2327 25.9883C19.0208 30.7093 25.9874 31.3822 29.7986 27.374C30.0734 27.0849 30.0661 26.6289 29.782 26.3488L26.5083 23.1207C26.2808 22.8964 25.9342 22.8456 25.6519 22.9952L19.2613 26.3819ZM12.3291 20.6433C12.3441 20.7978 12.408 20.9451 12.5125 21.0618C12.4484 20.9228 12.3873 20.7832 12.3291 20.6433ZM12.3291 20.6433C11.0158 17.4875 11.1803 14.1324 12.947 11.8048L15.2915 14.1157L12.3956 20.2615C12.3374 20.385 12.3168 20.5166 12.3291 20.6433ZM19.9465 27.6749L25.8629 24.5395L28.2155 26.8592C25.9725 28.7599 22.6444 29.0269 19.4768 27.749C19.6318 27.7764 19.7967 27.7543 19.9465 27.6749Z" fill="#3B75B8"/>
<mask id="mask1_3145_2292" style="mask-type:alpha" maskUnits="userSpaceOnUse" x="10" y="10" width="20" height="20">
<path fill-rule="evenodd" clip-rule="evenodd" d="M19.2613 26.3819C18.9042 26.5711 18.7682 27.014 18.9574 27.371C19.0124 27.4748 19.0888 27.5599 19.1783 27.6238C17.7995 27.0231 16.4588 26.1281 15.26 24.9462C14.0667 23.7699 13.1473 22.4404 12.5125 21.0618C12.5759 21.1326 12.6542 21.1922 12.7457 21.2353C13.1112 21.4075 13.5472 21.2508 13.7194 20.8853L16.8363 14.2704C16.9687 13.9895 16.9092 13.6555 16.688 13.4375L13.4142 10.2106C13.1228 9.9233 12.6524 9.93093 12.3704 10.2275C8.56744 14.2271 9.44985 21.2738 14.2327 25.9883C19.0208 30.7093 25.9874 31.3822 29.7986 27.374C30.0734 27.0849 30.0661 26.6289 29.782 26.3488L26.5083 23.1207C26.2808 22.8964 25.9342 22.8456 25.6519 22.9952L19.2613 26.3819ZM12.3291 20.6433C12.3441 20.7978 12.408 20.9451 12.5125 21.0618C12.4484 20.9228 12.3873 20.7832 12.3291 20.6433ZM12.3291 20.6433C11.0158 17.4875 11.1803 14.1324 12.947 11.8048L15.2915 14.1157L12.3956 20.2615C12.3374 20.385 12.3168 20.5166 12.3291 20.6433ZM19.9465 27.6749L25.8629 24.5395L28.2155 26.8592C25.9725 28.7599 22.6444 29.0269 19.4768 27.749C19.6318 27.7764 19.7967 27.7543 19.9465 27.6749Z" fill="white"/>
</mask>
<g mask="url(#mask1_3145_2292)">
</g>
</svg>
