<svg width="24" height="24" viewBox="0 0 24 24" fill="none" xmlns="http://www.w3.org/2000/svg">
<path fill-rule="evenodd" clip-rule="evenodd" d="M12.9286 9.59204C12.5375 9.59204 12.2202 9.2739 12.2202 8.88184V1H3.70835C3.31731 1 3 1.31814 3 1.7102V22.0689C3 22.461 3.31731 22.7791 3.70835 22.7791H15.6723L14.2103 21.413C13.3451 20.5934 13.3083 19.2278 14.128 18.3628C14.9477 17.4978 16.3135 17.4609 17.1787 18.2805L18.085 19.1077L19.9495 17.2346V9.59204H12.9286ZM8.25779 18.8H11.9392C12.3535 18.8 12.6893 18.4642 12.6893 18.05C12.6893 17.6358 12.3535 17.3 11.9392 17.3H8.25779C7.84352 17.3 7.50768 17.6358 7.50768 18.05C7.50768 18.4642 7.84352 18.8 8.25779 18.8ZM9.71655 9.55H8.25779C7.84352 9.55 7.50768 9.21421 7.50768 8.8C7.50768 8.38579 7.84352 8.05 8.25779 8.05H9.71655C10.1308 8.05 10.4667 8.38579 10.4667 8.8C10.4667 9.21421 10.1308 9.55 9.71655 9.55ZM8.23706 14.0308H14.9333C15.3475 14.0308 15.6834 13.695 15.6834 13.2808C15.6834 12.8665 15.3475 12.5308 14.9333 12.5308H8.23706C7.82278 12.5308 7.48695 12.8665 7.48695 13.2808C7.48695 13.695 7.82278 14.0308 8.23706 14.0308ZM13.722 8.09734V1.21967L19.9495 8.09734H13.722ZM15.1644 19.3016C15.4493 19.0009 15.9241 18.9881 16.2248 19.273L18.0501 21.0022L21.9782 17.0558C22.2704 16.7622 22.7454 16.7611 23.039 17.0533C23.3327 17.3455 23.3338 17.8204 23.0416 18.1139L18.5972 22.5791C18.31 22.8676 17.8451 22.8744 17.5496 22.5944L15.193 20.3619C14.8922 20.077 14.8794 19.6023 15.1644 19.3016Z" fill="#3C94A8"/>
</svg>
