<svg width="24" height="24" viewBox="0 0 24 24" fill="none" xmlns="http://www.w3.org/2000/svg">
<path fill-rule="evenodd" clip-rule="evenodd" d="M7 19.5V4.5H17V11V19.5H12.75V16C12.75 15.5858 12.4142 15.25 12 15.25C11.5858 15.25 11.25 15.5858 11.25 16V19.5H7ZM17 21H6.99922V21.0001H3.00012C2.44781 21.0001 2.00008 20.5523 2.00012 20L2.0008 10.9999C2.00084 10.4477 2.44854 10 3.0008 10H5.5V4C5.5 3.44772 5.94772 3 6.5 3H17.5C18.0523 3 18.5 3.44772 18.5 4V10H21C21.5523 10 22 10.4477 22 11V20C22 20.5523 21.5523 21 21 21H18.5H17ZM18.5 19.5H20.5V11.5H18.5V19.5ZM12.75 7.5C12.75 7.08579 12.4142 6.75 12 6.75C11.5858 6.75 11.25 7.08579 11.25 7.5V8.75H10C9.58579 8.75 9.25 9.08579 9.25 9.5C9.25 9.91421 9.58579 10.25 10 10.25H11.25V11.5C11.25 11.9142 11.5858 12.25 12 12.25C12.4142 12.25 12.75 11.9142 12.75 11.5V10.25H14C14.4142 10.25 14.75 9.91421 14.75 9.5C14.75 9.08579 14.4142 8.75 14 8.75H12.75V7.5ZM3.50016 19.5001L3.50076 11.5H5.49993L5.49933 19.5001H3.50016Z" fill="#151616"/>
</svg>
