<svg width="24" height="24" viewBox="0 0 24 24" fill="none" xmlns="http://www.w3.org/2000/svg">
<path fill-rule="evenodd" clip-rule="evenodd" d="M4.50022 2.5H12.2163C12.2132 2.52786 12.2116 2.55619 12.2116 2.58489V8.83489C12.2116 9.2491 12.5474 9.58489 12.9617 9.58489H18.4493V15.6772C18.4493 16.0915 18.7851 16.4272 19.1994 16.4272C19.6136 16.4272 19.9495 16.0915 19.9495 15.6772V8.33508C19.9495 8.13616 19.8705 7.9454 19.7298 7.80475L13.7222 1.21967C13.5815 1.07902 13.3908 1 13.1918 1H3.75011C3.33584 1 3 1.33579 3 1.75V22.05C3 22.4642 3.33584 22.8 3.75011 22.8H12.238C12.6523 22.8 12.9881 22.4642 12.9881 22.05C12.9881 21.6358 12.6523 21.3 12.238 21.3H4.50022V2.5ZM13.7118 8.08489V3.41684L17.9411 8.08489H13.7118ZM15.1644 19.3016C15.4493 19.0009 15.9241 18.9881 16.2248 19.273L18.0501 21.0022L21.9782 17.0558C22.2704 16.7622 22.7454 16.7611 23.039 17.0533C23.3327 17.3455 23.3338 17.8204 23.0416 18.1139L18.5972 22.5791C18.31 22.8676 17.8451 22.8744 17.5496 22.5944L15.193 20.3619C14.8922 20.077 14.8794 19.6023 15.1644 19.3016ZM14.9333 14.0308H8.23706C7.82278 14.0308 7.48695 13.695 7.48695 13.2808C7.48695 12.8665 7.82278 12.5308 8.23706 12.5308H14.9333C15.3475 12.5308 15.6834 12.8665 15.6834 13.2808C15.6834 13.695 15.3475 14.0308 14.9333 14.0308ZM8.25779 9.55H9.71655C10.1308 9.55 10.4667 9.21421 10.4667 8.8C10.4667 8.38579 10.1308 8.05 9.71655 8.05H8.25779C7.84352 8.05 7.50768 8.38579 7.50768 8.8C7.50768 9.21421 7.84352 9.55 8.25779 9.55ZM13.2585 18.8H8.25779C7.84352 18.8 7.50768 18.4642 7.50768 18.05C7.50768 17.6358 7.84352 17.3 8.25779 17.3H13.2585C13.6728 17.3 14.0086 17.6358 14.0086 18.05C14.0086 18.4642 13.6728 18.8 13.2585 18.8Z" fill="#151616"/>
</svg>
