<svg width="24" height="24" viewBox="0 0 24 24" fill="none" xmlns="http://www.w3.org/2000/svg">
<path d="M15.2778 2V6.44444C15.2778 7.05809 15.7753 7.55556 16.3889 7.55556H20.8334" stroke="black" stroke-width="1.5" stroke-linecap="round" stroke-linejoin="round"/>
<path fill-rule="evenodd" clip-rule="evenodd" d="M18.6111 17.5556H10.8333C9.60601 17.5556 8.61108 16.5606 8.61108 15.3333V4.22222C8.61108 2.99492 9.60601 2 10.8333 2H15.2778L20.8333 7.55556V15.3333C20.8333 16.5606 19.8384 17.5556 18.6111 17.5556Z" stroke="black" stroke-width="1.5" stroke-linecap="round" stroke-linejoin="round"/>
<path d="M16.389 17.5556V19.7778C16.389 21.0051 15.394 22 14.1667 22H6.38897C5.16167 22 4.16675 21.0051 4.16675 19.7778V8.66668C4.16675 7.43938 5.16167 6.44446 6.38897 6.44446H8.61119" stroke="black" stroke-width="1.5" stroke-linecap="round" stroke-linejoin="round"/>
<path d="M12.167 14.1349H17.4666" stroke="#151616" stroke-width="1.5" stroke-linecap="round" stroke-linejoin="round"/>
<path d="M12.167 10.6678H17.4666" stroke="#151616" stroke-width="1.5" stroke-linecap="round" stroke-linejoin="round"/>
</svg>
