<svg width="24" height="24" viewBox="0 0 24 24" fill="none" xmlns="http://www.w3.org/2000/svg">
<path fill-rule="evenodd" clip-rule="evenodd" d="M11.9762 4.08046L5.84258 8.98737C5.92304 9.10688 5.97 9.25081 5.97 9.40571V20.1319H11.2262V13.5962C11.2262 13.182 11.562 12.8462 11.9762 12.8462C12.3904 12.8462 12.7262 13.182 12.7262 13.5962V20.1319H18.0414V9.40571C18.0414 9.26408 18.0807 9.13162 18.1489 9.01862L11.9762 4.08046ZM11.9762 21.6319H5.22C4.80579 21.6319 4.47 21.2961 4.47 20.8819V10.0854L1.96855 12.0866C1.6451 12.3454 1.17313 12.2929 0.914376 11.9695C0.655619 11.646 0.70806 11.1741 1.03151 10.9153L11.5077 2.53434C11.7816 2.31521 12.1708 2.31521 12.4447 2.53434L22.9209 10.9153C23.2444 11.1741 23.2968 11.646 23.0381 11.9695C22.7793 12.2929 22.3073 12.3454 21.9839 12.0866L19.5414 10.1326V20.8819C19.5414 21.2961 19.2056 21.6319 18.7914 21.6319H11.9762Z" fill="#151616"/>
</svg>
