<svg width="24" height="24" viewBox="0 0 24 24" fill="none" xmlns="http://www.w3.org/2000/svg">
<path fill-rule="evenodd" clip-rule="evenodd" d="M5 3.25C4.0335 3.25 3.25 4.0335 3.25 5V19C3.25 19.9665 4.0335 20.75 5 20.75H19C19.9665 20.75 20.75 19.9665 20.75 19V5C20.75 4.0335 19.9665 3.25 19 3.25H5ZM4.75 5C4.75 4.86193 4.86193 4.75 5 4.75H19C19.1381 4.75 19.25 4.86193 19.25 5V19C19.25 19.1381 19.1381 19.25 19 19.25H5C4.86193 19.25 4.75 19.1381 4.75 19V5ZM15.5999 7.65015C15.1856 7.65015 14.8499 7.98593 14.8499 8.40015V15.6001C14.8499 16.0144 15.1856 16.3501 15.5999 16.3501C16.0141 16.3501 16.3499 16.0144 16.3499 15.6001V8.40015C16.3499 7.98593 16.0141 7.65015 15.5999 7.65015ZM12.0051 10.3506C11.5909 10.3506 11.2551 10.6864 11.2551 11.1006V15.6006C11.2551 16.0148 11.5909 16.3506 12.0051 16.3506C12.4193 16.3506 12.7551 16.0148 12.7551 15.6006V11.1006C12.7551 10.6864 12.4193 10.3506 12.0051 10.3506ZM8.40161 13.0499C7.9874 13.0499 7.65161 13.3857 7.65161 13.7999V15.5999C7.65161 16.0141 7.9874 16.3499 8.40161 16.3499C8.81582 16.3499 9.15161 16.0141 9.15161 15.5999V13.7999C9.15161 13.3857 8.81582 13.0499 8.40161 13.0499Z" fill="#151616"/>
</svg>
