<svg width="30" height="30" viewBox="0 0 30 30" fill="none" xmlns="http://www.w3.org/2000/svg">
    <g clip-path="url(#clip0_3308_6644)">
        <path d="M0.375 0.375H3C4.44975 0.375 5.625 1.55025 5.625 3C5.625 4.44975 4.44975 5.625 3 5.625C1.55025 5.625 0.375 4.44975 0.375 3V0.375Z" stroke="#3C94A8" stroke-width="0.75"/>
        <path d="M0.375 12.375H3C4.44975 12.375 5.625 13.5503 5.625 15C5.625 16.4497 4.44975 17.625 3 17.625C1.55025 17.625 0.375 16.4497 0.375 15V12.375Z" stroke="#3C94A8" stroke-width="0.75"/>
        <path d="M0.375 24.375H3C4.44975 24.375 5.625 25.5503 5.625 27C5.625 28.4497 4.44975 29.625 3 29.625C1.55025 29.625 0.375 28.4497 0.375 27V24.375Z" stroke="#3C94A8" stroke-width="0.75"/>
        <path d="M12.375 0.375H15C16.4497 0.375 17.625 1.55025 17.625 3C17.625 4.44975 16.4497 5.625 15 5.625C13.5503 5.625 12.375 4.44975 12.375 3V0.375Z" stroke="#3C94A8" stroke-width="0.75"/>
        <path d="M12.375 12.375H15C16.4497 12.375 17.625 13.5503 17.625 15C17.625 16.4497 16.4497 17.625 15 17.625C13.5503 17.625 12.375 16.4497 12.375 15V12.375Z" stroke="#3C94A8" stroke-width="0.75"/>
        <path d="M12.375 24.375H15C16.4497 24.375 17.625 25.5503 17.625 27C17.625 28.4497 16.4497 29.625 15 29.625C13.5503 29.625 12.375 28.4497 12.375 27V24.375Z" stroke="#3C94A8" stroke-width="0.75"/>
        <path d="M24.375 0.375H27C28.4497 0.375 29.625 1.55025 29.625 3C29.625 4.44975 28.4497 5.625 27 5.625C25.5503 5.625 24.375 4.44975 24.375 3V0.375Z" stroke="#3C94A8" stroke-width="0.75"/>
        <path d="M24.375 12.375H27C28.4497 12.375 29.625 13.5503 29.625 15C29.625 16.4497 28.4497 17.625 27 17.625C25.5503 17.625 24.375 16.4497 24.375 15V12.375Z" stroke="#3C94A8" stroke-width="0.75"/>
        <path d="M24.375 24.375H27C28.4497 24.375 29.625 25.5503 29.625 27C29.625 28.4497 28.4497 29.625 27 29.625C25.5503 29.625 24.375 28.4497 24.375 27V24.375Z" stroke="#3C94A8" stroke-width="0.75"/>
    </g>
    <defs>
        <clipPath id="clip0_3308_6644">
            <rect width="30" height="30" fill="white"/>
        </clipPath>
    </defs>
</svg>
