<svg width="24" height="24" viewBox="0 0 24 24" fill="none" xmlns="http://www.w3.org/2000/svg">
<path fill-rule="evenodd" clip-rule="evenodd" d="M7.75001 6.5C7.33579 6.5 7.00001 6.16421 7.00001 5.75V1.75C7.00001 1.33579 7.33579 1 7.75001 1H15.75C16.1642 1 16.5 1.33579 16.5 1.75V5.75C16.5 6.16421 16.1642 6.5 15.75 6.5H7.75001ZM8.50001 5H15V2.5H8.50001V5ZM6.96324 7.5C6.46755 7.5 6.06572 7.10316 6.06572 6.61364V2.9999H3.84143C3.43195 2.9999 3.10001 3.33569 3.10001 3.7499V21.7499C3.10001 22.1641 3.43195 22.4999 3.84143 22.4999H19.6586C20.0681 22.4999 20.4 22.1641 20.4 21.7499V3.7499C20.4 3.33569 20.0681 2.9999 19.6586 2.9999H17.4343V6.61364C17.4343 7.10316 17.0325 7.5 16.5368 7.5H6.96324ZM7.54858 13.7499C7.54858 14.1641 7.88053 14.4999 8.29001 14.4999H11.0086V17.2499C11.0086 17.6641 11.3405 17.9999 11.75 17.9999C12.1595 17.9999 12.4914 17.6641 12.4914 17.2499V14.4999H15.21C15.6195 14.4999 15.9514 14.1641 15.9514 13.7499C15.9514 13.3357 15.6195 12.9999 15.21 12.9999H12.4914V10.2499C12.4914 9.83569 12.1595 9.4999 11.75 9.4999C11.3405 9.4999 11.0086 9.83569 11.0086 10.2499V12.9999H8.29001C7.88053 12.9999 7.54858 13.3357 7.54858 13.7499Z" fill="#3C94A8"/>
</svg>
