<svg width="24" height="24" viewBox="0 0 24 24" fill="none" xmlns="http://www.w3.org/2000/svg">
<path fill-rule="evenodd" clip-rule="evenodd" d="M22.5474 14.8665C22.6169 14.5962 22.5305 14.3096 22.3232 14.1227L20.6384 12.6041C20.6468 12.4545 20.651 12.3092 20.651 12.1658C20.651 12.0183 20.6466 11.8692 20.6381 11.7151L22.3201 10.1941C22.527 10.007 22.6129 9.72052 22.5432 9.45041C22.2874 8.45893 21.895 7.51562 21.3773 6.6416C21.2352 6.4016 20.9716 6.26032 20.693 6.27484L18.4304 6.39275C18.2311 6.17228 18.0205 5.9621 17.7995 5.7631L17.9131 3.49942C17.927 3.22109 17.7855 2.95797 17.5457 2.81617C16.6725 2.3001 15.7292 1.90947 14.7355 1.65438C14.4653 1.58501 14.1789 1.67135 13.9921 1.87852L12.473 3.56285C12.3247 3.55489 12.1791 3.55082 12.035 3.55082C11.8864 3.55082 11.7364 3.55507 11.5841 3.56339L10.0644 1.88193C9.87739 1.67497 9.59093 1.58893 9.3208 1.65856C8.32714 1.91472 7.38384 2.30641 6.5108 2.82352C6.27081 2.96568 6.12953 3.22928 6.14404 3.50784L6.26195 5.77136C6.04086 5.97097 5.83065 6.18147 5.63207 6.40223L3.3689 6.28778C3.09048 6.2737 2.82723 6.41521 2.68538 6.65519C2.16962 7.52776 1.77882 8.47205 1.52358 9.46633C1.45417 9.73668 1.54064 10.0232 1.74802 10.21L3.43224 11.7274C3.42414 11.8752 3.42002 12.021 3.42002 12.1658C3.42002 12.3148 3.42426 12.4647 3.43259 12.6169L1.75098 14.1375C1.54413 14.3246 1.45815 14.611 1.52777 14.881C1.78366 15.8737 2.17609 16.8172 2.69393 17.6904C2.83609 17.9301 3.09945 18.0712 3.37777 18.0568L5.64058 17.9398C5.83997 18.1604 6.05063 18.3705 6.27156 18.5691L6.15796 20.8332C6.144 21.1116 6.2855 21.3747 6.52539 21.5165C7.39937 22.0331 8.34302 22.4235 9.33627 22.6775C9.60636 22.7465 9.89246 22.66 10.0791 22.453L11.5968 20.7692C11.7465 20.7776 11.8915 20.7818 12.035 20.7818C12.1834 20.7818 12.3335 20.7774 12.4873 20.7687L14.0066 22.4497C14.1935 22.6565 14.4796 22.7426 14.7495 22.6733C15.7417 22.4185 16.6856 22.0263 17.5596 21.5079C17.7993 21.3658 17.9404 21.1024 17.926 20.8241L17.809 18.5603C18.0288 18.3617 18.2389 18.1513 18.4382 17.9302L20.7024 18.0439C20.9807 18.0578 21.2439 17.9163 21.3857 17.6764C21.9012 16.8042 22.2921 15.86 22.5474 14.8665ZM12.035 17.4109C14.9319 17.4109 17.28 15.0625 17.28 12.1659C17.28 9.26939 14.9319 6.92092 12.035 6.92092C9.13895 6.92092 6.79102 9.26957 6.79102 12.1659C6.79102 15.0623 9.13895 17.4109 12.035 17.4109Z" fill="#3C94A8"/>
</svg>
