<svg width="24" height="24" viewBox="0 0 24 24" fill="none" xmlns="http://www.w3.org/2000/svg">
<path fill-rule="evenodd" clip-rule="evenodd" d="M22.3232 14.1227C22.5305 14.3096 22.6169 14.5962 22.5474 14.8665C22.2921 15.86 21.9012 16.8042 21.3857 17.6764C21.2439 17.9163 20.9807 18.0578 20.7024 18.0439L18.4382 17.9302C18.2389 18.1513 18.0288 18.3617 17.809 18.5603L17.926 20.8241C17.9404 21.1024 17.7993 21.3658 17.5596 21.5079C16.6856 22.0263 15.7417 22.4185 14.7495 22.6733C14.4796 22.7426 14.1935 22.6565 14.0066 22.4497L12.4873 20.7687C12.3335 20.7774 12.1834 20.7818 12.035 20.7818C11.8915 20.7818 11.7465 20.7776 11.5968 20.7692L10.0791 22.453C9.89246 22.66 9.60636 22.7465 9.33627 22.6775C8.34302 22.4235 7.39937 22.0331 6.52539 21.5165C6.2855 21.3747 6.144 21.1116 6.15796 20.8332L6.27156 18.5691C6.05063 18.3705 5.83997 18.1604 5.64058 17.9398L3.37777 18.0568C3.09945 18.0712 2.83609 17.9301 2.69393 17.6904C2.17609 16.8172 1.78366 15.8737 1.52777 14.881C1.45815 14.611 1.54413 14.3246 1.75098 14.1375L3.43259 12.6169C3.42426 12.4647 3.42002 12.3148 3.42002 12.1658C3.42002 12.021 3.42414 11.8752 3.43224 11.7274L1.74802 10.21C1.54064 10.0232 1.45417 9.73668 1.52358 9.46633C1.77882 8.47205 2.16962 7.52776 2.68538 6.65519C2.82723 6.41521 3.09048 6.2737 3.3689 6.28778L5.63207 6.40223C5.83065 6.18147 6.04086 5.97097 6.26195 5.77136L6.14404 3.50784C6.12953 3.22928 6.27081 2.96568 6.5108 2.82352C7.38384 2.30641 8.32714 1.91472 9.3208 1.65856C9.59093 1.58893 9.87739 1.67497 10.0644 1.88193L11.5841 3.56339C11.7364 3.55507 11.8864 3.55082 12.035 3.55082C12.1791 3.55082 12.3247 3.55489 12.473 3.56285L13.9921 1.87852C14.1789 1.67135 14.4653 1.58501 14.7355 1.65438C15.7292 1.90947 16.6725 2.3001 17.5457 2.81617C17.7855 2.95797 17.927 3.22109 17.9131 3.49942L17.7995 5.7631C18.0205 5.9621 18.2311 6.17228 18.4304 6.39275L20.693 6.27484C20.9716 6.26032 21.2352 6.4016 21.3773 6.6416C21.895 7.51562 22.2874 8.45893 22.5432 9.45041C22.6129 9.72052 22.527 10.007 22.3201 10.1941L20.6381 11.7151C20.6466 11.8692 20.651 12.0183 20.651 12.1658C20.651 12.3092 20.6468 12.4545 20.6384 12.6041L22.3232 14.1227ZM20.9727 14.9249L19.3609 13.4719C19.1849 13.3133 19.0942 13.0809 19.1163 12.845C19.1392 12.5994 19.151 12.3773 19.151 12.1658C19.151 11.9505 19.1393 11.7254 19.1162 11.4733C19.0946 11.2383 19.1849 11.0068 19.36 10.8485L20.9685 9.39398C20.797 8.84039 20.5752 8.30642 20.3058 7.79705L18.1421 7.9098C17.9049 7.92216 17.6759 7.82146 17.5247 7.63833C17.2339 7.28612 16.9091 6.962 16.5554 6.6709C16.3721 6.52004 16.2711 6.29131 16.283 6.05423L16.3916 3.88911C15.8828 3.62072 15.3487 3.39988 14.794 3.22902L13.341 4.84013C13.1824 5.01599 12.95 5.10661 12.7142 5.08456C12.4759 5.06228 12.2514 5.05082 12.035 5.05082C11.8134 5.05082 11.5846 5.06254 11.3454 5.08542C11.1094 5.10798 10.8766 5.01761 10.7176 4.84171L9.2639 3.23325C8.70922 3.40472 8.17514 3.62616 7.66625 3.89515L7.77901 6.05981C7.79136 6.29697 7.69066 6.52597 7.50753 6.67717C7.15325 6.96968 6.82975 7.29363 6.5407 7.64572C6.38979 7.82953 6.16066 7.93087 5.92314 7.91886L3.75826 7.80938C3.49008 8.31808 3.26922 8.8525 3.09828 9.40755L4.71003 10.8596C4.8868 11.0189 4.97752 11.2525 4.95451 11.4894C4.93166 11.7245 4.92002 11.9479 4.92002 12.1658C4.92002 12.388 4.9317 12.6158 4.95462 12.8554C4.97718 13.0914 4.88687 13.3241 4.71107 13.4831L3.10247 14.9377C3.27393 15.4918 3.49572 16.0258 3.76514 16.5348L5.92928 16.4228C6.16635 16.4106 6.39523 16.5113 6.54637 16.6943C6.83758 17.047 7.16222 17.3708 7.51476 17.66C7.69859 17.8108 7.8 18.0399 7.78808 18.2774L7.6794 20.4435C8.18848 20.712 8.72243 20.9326 9.27659 21.1029L10.7289 19.4917C10.8875 19.3158 11.1198 19.2251 11.3556 19.2471C11.603 19.2701 11.8238 19.2818 12.035 19.2818C12.2526 19.2818 12.4795 19.2698 12.7256 19.2462C12.9617 19.2237 13.1945 19.314 13.3534 19.4899L14.8074 21.0987C15.361 20.9278 15.8948 20.7062 16.404 20.4367L16.292 18.2716C16.2798 18.0344 16.3805 17.8055 16.5637 17.6543C16.9143 17.365 17.2387 17.0401 17.5317 16.6853C17.6826 16.5026 17.9109 16.4019 18.1476 16.4138L20.3127 16.5224C20.5808 16.0139 20.8017 15.4796 20.9727 14.9249ZM15.78 12.1659C15.78 10.0978 14.1034 8.42092 12.035 8.42092C9.96748 8.42092 8.29102 10.0979 8.29102 12.1659C8.29102 14.2339 9.96748 15.9109 12.035 15.9109C14.1034 15.9109 15.78 14.2341 15.78 12.1659ZM17.28 12.1659C17.28 15.0625 14.9319 17.4109 12.035 17.4109C9.13895 17.4109 6.79102 15.0623 6.79102 12.1659C6.79102 9.26957 9.13895 6.92092 12.035 6.92092C14.9319 6.92092 17.28 9.26939 17.28 12.1659Z" fill="#151616"/>
</svg>
