<svg width="24" height="24" viewBox="0 0 24 24" fill="none" xmlns="http://www.w3.org/2000/svg">
<path fill-rule="evenodd" clip-rule="evenodd" d="M4.92829 2.96512C4.92829 2.57017 5.24846 2.25 5.64341 2.25C6.03836 2.25 6.35853 2.57017 6.35853 2.96512V12.9767H7.76227C8.15722 12.9767 8.47739 13.2969 8.47739 13.6919C8.47739 14.0868 8.15722 14.407 7.76227 14.407H6.35853V20.1279C6.35853 20.5229 6.03836 20.843 5.64341 20.843C5.24846 20.843 4.92829 20.5229 4.92829 20.1279V14.407H2.46512C2.07017 14.407 1.75 14.0868 1.75 13.6919C1.75 13.2969 2.07017 12.9767 2.46512 12.9767H4.92829V2.96512ZM15.1783 8.68605H12.7151V2.96512C12.7151 2.57017 12.3949 2.25 12 2.25C11.6051 2.25 11.2849 2.57017 11.2849 2.96512V8.68605H9.88114C9.48619 8.68605 9.16602 9.00622 9.16602 9.40116C9.16602 9.79611 9.48619 10.1163 9.88114 10.1163H11.2849V20.1279C11.2849 20.5229 11.6051 20.843 12 20.843C12.3949 20.843 12.7151 20.5229 12.7151 20.1279V10.1163H15.1783C15.5732 10.1163 15.8934 9.79611 15.8934 9.40116C15.8934 9.00622 15.5732 8.68605 15.1783 8.68605ZM18.7009 14.407V20.1279C18.7009 20.5229 19.0211 20.843 19.416 20.843C19.811 20.843 20.1311 20.5229 20.1311 20.1279V14.407H21.5349C21.9298 14.407 22.25 14.0868 22.25 13.6919C22.25 13.2969 21.9298 12.9767 21.5349 12.9767H20.1311V2.96512C20.1311 2.57017 19.811 2.25 19.416 2.25C19.0211 2.25 18.7009 2.57017 18.7009 2.96512V12.9767H16.2377C15.8428 12.9767 15.5226 13.2969 15.5226 13.6919C15.5226 14.0868 15.8428 14.407 16.2377 14.407H18.7009Z" fill="#151616"/>
<mask id="mask0_3403_12336" style="mask-type:alpha" maskUnits="userSpaceOnUse" x="1" y="2" width="22" height="19">
<path fill-rule="evenodd" clip-rule="evenodd" d="M4.92829 2.96512C4.92829 2.57017 5.24846 2.25 5.64341 2.25C6.03836 2.25 6.35853 2.57017 6.35853 2.96512V12.9767H7.76227C8.15722 12.9767 8.47739 13.2969 8.47739 13.6919C8.47739 14.0868 8.15722 14.407 7.76227 14.407H6.35853V20.1279C6.35853 20.5229 6.03836 20.843 5.64341 20.843C5.24846 20.843 4.92829 20.5229 4.92829 20.1279V14.407H2.46512C2.07017 14.407 1.75 14.0868 1.75 13.6919C1.75 13.2969 2.07017 12.9767 2.46512 12.9767H4.92829V2.96512ZM15.1783 8.68605H12.7151V2.96512C12.7151 2.57017 12.3949 2.25 12 2.25C11.6051 2.25 11.2849 2.57017 11.2849 2.96512V8.68605H9.88114C9.48619 8.68605 9.16602 9.00622 9.16602 9.40116C9.16602 9.79611 9.48619 10.1163 9.88114 10.1163H11.2849V20.1279C11.2849 20.5229 11.6051 20.843 12 20.843C12.3949 20.843 12.7151 20.5229 12.7151 20.1279V10.1163H15.1783C15.5732 10.1163 15.8934 9.79611 15.8934 9.40116C15.8934 9.00622 15.5732 8.68605 15.1783 8.68605ZM18.7009 14.407V20.1279C18.7009 20.5229 19.0211 20.843 19.416 20.843C19.811 20.843 20.1311 20.5229 20.1311 20.1279V14.407H21.5349C21.9298 14.407 22.25 14.0868 22.25 13.6919C22.25 13.2969 21.9298 12.9767 21.5349 12.9767H20.1311V2.96512C20.1311 2.57017 19.811 2.25 19.416 2.25C19.0211 2.25 18.7009 2.57017 18.7009 2.96512V12.9767H16.2377C15.8428 12.9767 15.5226 13.2969 15.5226 13.6919C15.5226 14.0868 15.8428 14.407 16.2377 14.407H18.7009Z" fill="white"/>
</mask>
<g mask="url(#mask0_3403_12336)">
</g>
</svg>
