<svg width="24" height="24" viewBox="0 0 24 24" fill="none" xmlns="http://www.w3.org/2000/svg">
<path fill-rule="evenodd" clip-rule="evenodd" d="M9.22861 16.8993L19.851 5.48897C20.1333 5.18579 20.6078 5.16882 20.911 5.45106C21.2142 5.7333 21.2312 6.20787 20.9489 6.51104L9.77759 18.511C9.48098 18.8296 8.97634 18.8297 8.67972 18.5111L3.05106 12.4655C2.76881 12.1624 2.78575 11.6878 3.08891 11.4055C3.39207 11.1233 3.86664 11.1402 4.1489 11.4434L9.22861 16.8993Z" fill="#151616"/>
<mask id="mask0_3403_11429" style="mask-type:alpha" maskUnits="userSpaceOnUse" x="2" y="5" width="20" height="14">
<path fill-rule="evenodd" clip-rule="evenodd" d="M9.22861 16.8993L19.851 5.48897C20.1333 5.18579 20.6078 5.16882 20.911 5.45106C21.2142 5.7333 21.2312 6.20787 20.9489 6.51104L9.77759 18.511C9.48098 18.8296 8.97634 18.8297 8.67972 18.5111L3.05106 12.4655C2.76881 12.1624 2.78575 11.6878 3.08891 11.4055C3.39207 11.1233 3.86664 11.1402 4.1489 11.4434L9.22861 16.8993Z" fill="white"/>
</mask>
<g mask="url(#mask0_3403_11429)">
</g>
</svg>
