<svg width="40" height="40" viewBox="0 0 40 40" fill="none" xmlns="http://www.w3.org/2000/svg">
    <rect width="40" height="40" rx="20" fill="#3C94A8" fill-opacity="0.1"/>
    <path fill-rule="evenodd" clip-rule="evenodd" d="M26.0347 18.0348C26.0347 19.4639 25.5404 20.7721 24.7119 21.8056C24.6032 21.9412 24.5003 22.0824 24.3975 22.2234C24.3355 22.3084 24.2736 22.3933 24.2105 22.4769C23.9171 22.8657 23.5033 23.4117 23.0224 24.0398C22.1261 25.2104 21.0061 26.6539 20.0006 27.8938C18.9982 26.6565 17.8807 25.2153 16.9862 24.0462C16.5062 23.4189 16.093 22.8734 15.8 22.4849C15.7428 22.4091 15.6863 22.3325 15.6298 22.2559C15.5197 22.1066 15.4095 21.9571 15.2936 21.8127L15.2876 21.8053C14.4592 20.7718 13.9651 19.4637 13.9651 18.0348C13.9651 14.7019 16.667 12 19.9999 12C23.3328 12 26.0347 14.7019 26.0347 18.0348ZM26.2724 23.0627L26.2753 23.0589L26.277 23.0565H26.2724L26.2741 23.0543L26.277 23.0507C26.6916 22.5326 27.0434 21.962 27.3208 21.3505C27.7793 20.3396 28.0347 19.217 28.0347 18.0348C28.0347 13.5973 24.4374 10 19.9999 10C15.5624 10 11.9651 13.5973 11.9651 18.0348C11.9651 19.9349 12.6247 21.681 13.7273 23.0565L13.7338 23.0646C13.7338 23.0646 16.5227 26.7985 18.6791 29.4386C19.3688 30.2831 20.6312 30.2834 21.3214 29.4393C22.583 27.8961 24.0586 25.9819 25.0695 24.6544C25.7509 23.7595 26.2212 23.1312 26.2724 23.0627ZM21 18C21 18.5523 20.5523 19 20 19C19.4477 19 19 18.5523 19 18C19 17.4477 19.4477 17 20 17C20.5523 17 21 17.4477 21 18ZM20 21C21.6569 21 23 19.6569 23 18C23 16.3431 21.6569 15 20 15C18.3431 15 17 16.3431 17 18C17 19.6569 18.3431 21 20 21Z" fill="#3C94A8"/>
</svg>
