<svg width="24" height="24" viewBox="0 0 24 24" fill="none" xmlns="http://www.w3.org/2000/svg">
<path fill-rule="evenodd" clip-rule="evenodd" d="M2 4H6.14062V5.17154H3.17188V8.10038H2V4ZM2 19.23H6.14062V18.0585H3.17188V15.1296H2V19.23ZM22 15.1296H20.8281V18.0585H17.8594V19.23H22V15.1296ZM22 4H17.8594V5.17154H20.8281V8.10038H22V4ZM5.55469 6.34308H4.38281V16.8869H5.55469V6.34308ZM6.72656 6.34308H7.89844V14.5438H6.72656V6.34308ZM10.2422 6.34308H9.07031V14.5438H10.2422V6.34308ZM11.4141 6.34308H12.5859V16.8869H11.4141V6.34308ZM14.9297 6.34308H13.7578V14.5438H14.9297V6.34308ZM16.1016 6.34308H17.2734V14.5438H16.1016V6.34308ZM19.6172 6.34308H18.4453V16.8869H19.6172V6.34308ZM6.72656 15.7154H7.89844V16.8869H6.72656V15.7154ZM10.2422 15.7154H9.07031V16.8869H10.2422V15.7154ZM13.7578 15.7154H14.9297V16.8869H13.7578V15.7154ZM17.2734 15.7154H16.1016V16.8869H17.2734V15.7154Z" fill="#151616"/>
</svg>
