<svg width="24" height="24" viewBox="0 0 24 24" fill="none" xmlns="http://www.w3.org/2000/svg">
<path fill-rule="evenodd" clip-rule="evenodd" d="M4.17391 4C3.53023 4 3 4.5162 3 5.14286V8.57143V12.381V18.8571C3 19.4838 3.53023 20 4.17391 20H19.8261C20.4698 20 21 19.4838 21 18.8571V6.66667C21 6.04001 20.4698 5.52381 19.8261 5.52381H9.26087C9.26087 5.52381 9.24873 5.52395 9.15311 5.41667C9.05748 5.30939 8.93977 5.13141 8.81683 4.94048L8.80024 4.9147C8.68226 4.73131 8.55775 4.53779 8.4026 4.36682C8.24015 4.18781 8.01603 4 7.69565 4H4.17391ZM4.17353 4.7619H7.69527C7.69527 4.7619 7.71919 4.76457 7.81602 4.87128C7.91286 4.97798 8.03071 5.15521 8.15307 5.34524L8.18111 5.38886C8.29491 5.56603 8.41425 5.75182 8.56118 5.91666C8.72023 6.0951 8.9392 6.28571 9.26049 6.28571H19.8257C20.0468 6.28571 20.217 6.45141 20.217 6.66666V8.50088C20.0938 8.45762 19.9634 8.42946 19.8257 8.42946H4.17353C4.03585 8.42946 3.90544 8.45762 3.78223 8.50088V5.14285C3.78223 4.9276 3.95243 4.7619 4.17353 4.7619ZM19.8257 9.19135H4.17353C3.95243 9.19135 3.78223 9.35705 3.78223 9.5723V18.8571C3.78223 19.0724 3.95243 19.2381 4.17353 19.2381H19.8257C20.0468 19.2381 20.217 19.0724 20.217 18.8571V9.5723C20.217 9.35705 20.0468 9.19135 19.8257 9.19135Z" fill="#151616"/>
<path d="M9.26087 5.52381V5.22379L9.25744 5.22383L9.26087 5.52381ZM9.15311 5.41667L9.37705 5.21705L9.37705 5.21705L9.15311 5.41667ZM8.81683 4.94048L8.56456 5.10283L8.5646 5.10289L8.81683 4.94048ZM8.80024 4.9147L8.54795 5.07702L8.54797 5.07705L8.80024 4.9147ZM8.4026 4.36682L8.62476 4.16521L8.62476 4.16521L8.4026 4.36682ZM7.69527 4.7619L7.72855 4.46375L7.71196 4.4619H7.69527V4.7619ZM7.81602 4.87128L7.59386 5.07288L7.59386 5.07288L7.81602 4.87128ZM8.15307 5.34524L8.40542 5.18301L8.4053 5.18282L8.15307 5.34524ZM8.18111 5.38886L8.43353 5.22673L8.43347 5.22663L8.18111 5.38886ZM8.56118 5.91666L8.78513 5.71704L8.78513 5.71704L8.56118 5.91666ZM20.217 8.50088L20.1176 8.78395L20.517 8.92416V8.50088H20.217ZM3.78223 8.50088H3.48223V8.92416L3.88161 8.78395L3.78223 8.50088ZM3.3 5.14286C3.3 4.68942 3.68828 4.3 4.17391 4.3V3.7C3.37218 3.7 2.7 4.34299 2.7 5.14286H3.3ZM3.3 8.57143V5.14286H2.7V8.57143H3.3ZM3.3 12.381V8.57143H2.7V12.381H3.3ZM3.3 18.8571V12.381H2.7V18.8571H3.3ZM4.17391 19.7C3.68828 19.7 3.3 19.3106 3.3 18.8571H2.7C2.7 19.657 3.37218 20.3 4.17391 20.3V19.7ZM19.8261 19.7H4.17391V20.3H19.8261V19.7ZM20.7 18.8571C20.7 19.3106 20.3117 19.7 19.8261 19.7V20.3C20.6278 20.3 21.3 19.657 21.3 18.8571H20.7ZM20.7 6.66667V18.8571H21.3V6.66667H20.7ZM19.8261 5.82381C20.3117 5.82381 20.7 6.21323 20.7 6.66667H21.3C21.3 5.86679 20.6278 5.22381 19.8261 5.22381V5.82381ZM9.26087 5.82381H19.8261V5.22381H9.26087V5.82381ZM8.92916 5.61629C8.97966 5.67293 9.01544 5.70962 9.04309 5.73429C9.05641 5.74618 9.07481 5.7616 9.09721 5.77575C9.1086 5.78295 9.12645 5.7933 9.14953 5.80246C9.16143 5.80718 9.17678 5.81241 9.19504 5.81651C9.20429 5.81858 9.21471 5.82046 9.22615 5.8218C9.23189 5.82246 9.23795 5.823 9.2443 5.82335C9.24748 5.82353 9.25073 5.82366 9.25407 5.82373C9.25573 5.82377 9.25742 5.82379 9.25912 5.8238C9.25998 5.82381 9.26126 5.82381 9.2617 5.82381C9.263 5.8238 9.2643 5.82379 9.26087 5.52381C9.25744 5.22383 9.25874 5.22382 9.26004 5.22381C9.26047 5.22381 9.26176 5.22381 9.26261 5.22381C9.26432 5.22382 9.266 5.22385 9.26767 5.22389C9.271 5.22396 9.27425 5.22409 9.27742 5.22427C9.28376 5.22462 9.2898 5.22515 9.29551 5.22582C9.3069 5.22714 9.31724 5.22901 9.32638 5.23106C9.34441 5.23511 9.35941 5.24023 9.3708 5.24475C9.39284 5.2535 9.40899 5.26302 9.41775 5.26856C9.42717 5.27451 9.43385 5.27957 9.43723 5.28222C9.43908 5.28367 9.44045 5.2848 9.44129 5.28552C9.44215 5.28623 9.4426 5.28664 9.44261 5.28664C9.44262 5.28666 9.44228 5.28635 9.44155 5.28567C9.44082 5.28499 9.43976 5.28398 9.43834 5.2826C9.43547 5.27982 9.43138 5.27574 9.42588 5.27006C9.41481 5.25861 9.39896 5.24162 9.37705 5.21705L8.92916 5.61629ZM8.5646 5.10289C8.68395 5.28825 8.81479 5.48798 8.92916 5.61629L9.37705 5.21705C9.30017 5.13079 9.19559 4.97456 9.06906 4.77806L8.5646 5.10289ZM8.54797 5.07705L8.56456 5.10283L9.0691 4.77812L9.05252 4.75235L8.54797 5.07705ZM8.18044 4.56842C8.3162 4.71803 8.42789 4.89041 8.54795 5.07702L9.05254 4.75238C8.93663 4.57222 8.79931 4.35756 8.62476 4.16521L8.18044 4.56842ZM7.69565 4.3C7.88605 4.3 8.03477 4.4079 8.18044 4.56842L8.62476 4.16521C8.44553 3.96771 8.14601 3.7 7.69565 3.7V4.3ZM4.17391 4.3H7.69565V3.7H4.17391V4.3ZM7.69527 4.4619H4.17353V5.0619H7.69527V4.4619ZM8.03819 4.66967C7.98388 4.60983 7.94047 4.56838 7.90303 4.53939C7.88403 4.52468 7.86204 4.50961 7.83694 4.4968C7.82408 4.49023 7.80886 4.48346 7.79145 4.47765C7.78267 4.47472 7.77304 4.47194 7.76263 4.46955C7.75741 4.46835 7.75196 4.46725 7.74628 4.46627C7.74345 4.46578 7.74055 4.46532 7.73759 4.4649C7.73612 4.46469 7.73462 4.46449 7.73312 4.4643C7.73236 4.4642 7.73161 4.46411 7.73084 4.46402C7.73046 4.46397 7.72989 4.46391 7.7297 4.46388C7.72912 4.46382 7.72855 4.46375 7.69527 4.7619C7.66199 5.06005 7.66142 5.05999 7.66084 5.05992C7.66065 5.0599 7.66008 5.05983 7.6597 5.05979C7.65894 5.05969 7.65818 5.0596 7.65743 5.05951C7.65593 5.05932 7.65445 5.05912 7.65298 5.05891C7.65005 5.05849 7.64719 5.05804 7.6444 5.05756C7.63882 5.0566 7.63352 5.05552 7.6285 5.05437C7.61849 5.05207 7.60947 5.04945 7.60152 5.0468C7.5858 5.04155 7.57321 5.03582 7.5641 5.03118C7.54652 5.0222 7.53655 5.01447 7.53565 5.01376C7.53437 5.01278 7.55134 5.02602 7.59386 5.07288L8.03819 4.66967ZM8.4053 5.18282C8.28636 4.99811 8.1549 4.79829 8.03819 4.66967L7.59386 5.07288C7.67081 5.15768 7.77505 5.31231 7.90083 5.50765L8.4053 5.18282ZM8.43347 5.22663L8.40542 5.18301L7.90071 5.50746L7.92876 5.55109L8.43347 5.22663ZM8.78513 5.71704C8.65646 5.5727 8.54934 5.40704 8.43353 5.22673L7.9287 5.55099C8.04048 5.72503 8.17203 5.93095 8.33724 6.11628L8.78513 5.71704ZM9.26049 5.98571C9.07207 5.98571 8.92906 5.87851 8.78513 5.71704L8.33724 6.11628C8.51141 6.31168 8.80633 6.58571 9.26049 6.58571V5.98571ZM19.8257 5.98571H9.26049V6.58571H19.8257V5.98571ZM20.517 6.66666C20.517 6.2782 20.2049 5.98571 19.8257 5.98571V6.58571C19.8598 6.58571 19.8821 6.59784 19.895 6.61043C19.9076 6.62272 19.917 6.64063 19.917 6.66666H20.517ZM20.517 8.50088V6.66666H19.917V8.50088H20.517ZM19.8257 8.72946C19.922 8.72946 20.0183 8.74908 20.1176 8.78395L20.3164 8.21782C20.1693 8.16617 20.0048 8.12946 19.8257 8.12946V8.72946ZM4.17353 8.72946H19.8257V8.12946H4.17353V8.72946ZM3.88161 8.78395C3.98092 8.74908 4.07727 8.72946 4.17353 8.72946V8.12946C3.99444 8.12946 3.82997 8.16617 3.68285 8.21782L3.88161 8.78395ZM3.48223 5.14285V8.50088H4.08223V5.14285H3.48223ZM4.17353 4.4619C3.79438 4.4619 3.48223 4.75439 3.48223 5.14285H4.08223C4.08223 5.11682 4.09161 5.09891 4.10424 5.08662C4.11716 5.07403 4.13939 5.0619 4.17353 5.0619V4.4619ZM4.17353 9.49135H19.8257V8.89135H4.17353V9.49135ZM4.08223 9.5723C4.08223 9.54626 4.09161 9.52836 4.10424 9.51606C4.11716 9.50347 4.13939 9.49135 4.17353 9.49135V8.89135C3.79438 8.89135 3.48223 9.18383 3.48223 9.5723H4.08223ZM4.08223 18.8571V9.5723H3.48223V18.8571H4.08223ZM4.17353 18.9381C4.13939 18.9381 4.11716 18.9259 4.10424 18.9134C4.09161 18.9011 4.08223 18.8832 4.08223 18.8571H3.48223C3.48223 19.2456 3.79438 19.5381 4.17353 19.5381V18.9381ZM19.8257 18.9381H4.17353V19.5381H19.8257V18.9381ZM19.917 18.8571C19.917 18.8832 19.9076 18.9011 19.895 18.9134C19.8821 18.926 19.8598 18.9381 19.8257 18.9381V19.5381C20.2049 19.5381 20.517 19.2456 20.517 18.8571H19.917ZM19.917 9.5723V18.8571H20.517V9.5723H19.917ZM19.8257 9.49135C19.8598 9.49135 19.8821 9.50347 19.895 9.51606C19.9076 9.52836 19.917 9.54626 19.917 9.5723H20.517C20.517 9.18383 20.2049 8.89135 19.8257 8.89135V9.49135Z" fill="#151616"/>
</svg>
