<svg width="24" height="24" viewBox="0 0 24 24" fill="none" xmlns="http://www.w3.org/2000/svg">
<path fill-rule="evenodd" clip-rule="evenodd" d="M18.8668 2.5H5.13315C3.73707 2.5 2.59475 3.58647 2.5056 4.96002L2.5 5.13315V18.8668C2.5 20.2629 3.58648 21.4052 4.96002 21.4944L5.13315 21.5L18.8625 21.5C18.958 21.4987 19.0533 21.4918 19.1443 21.4801L19.2771 21.459L19.6418 21.3823H19.7022L19.9756 21.2819L20.0906 21.2204L20.3411 21.0792C20.3523 21.0723 20.362 21.0659 20.3705 21.0599C20.4506 21.001 20.528 20.9387 20.5937 20.8829L20.6824 20.8054L20.7751 20.6897L20.897 20.5562L21.0057 20.417L21.0863 20.3012C21.1455 20.2069 21.1965 20.1077 21.2564 19.9687L21.2825 19.9178L21.3235 19.8167L21.3934 19.5916L21.4019 19.6026L21.4142 19.3691C21.4467 19.2568 21.4705 19.1423 21.485 19.0309L21.5 18.8668V5.13315C21.5 3.73707 20.4135 2.59475 19.04 2.5056L18.8668 2.5ZM8.07647 10.8016C8.37147 10.8016 8.656 10.9026 8.88341 11.0849L8.99214 11.1827L17.9566 20.1576H5.13353C4.46522 20.1576 3.91554 19.6497 3.84944 18.9988L3.84277 18.8668V14.5108L7.16003 11.1834C7.40239 10.9391 7.7323 10.8016 8.07647 10.8016ZM15.9236 12.7636C16.1617 12.7636 16.3938 12.8294 16.6042 12.9596L16.7278 13.0454L16.8395 13.1448L20.1573 16.4727L20.1573 18.8692C20.1561 19.0283 20.1255 19.1859 20.0594 19.3515C20.0299 19.4144 19.9953 19.4749 19.9623 19.5228L19.9064 19.6038L19.8443 19.6801L19.6261 19.9272L13.9258 14.2268L15.0072 13.1454C15.2496 12.9011 15.5795 12.7636 15.9236 12.7636ZM18.8672 3.84241C19.5355 3.84241 20.0852 4.35032 20.1513 5.00119L20.158 5.13317V14.5669L17.7907 12.2247C16.79 11.2751 15.2456 11.2338 14.2027 12.0959L14.0637 12.2191L12.9814 13.3014L9.94292 10.2628C8.94213 9.31317 7.39782 9.27188 6.35383 10.135L6.21467 10.2583L3.84277 12.6049V5.13317C3.84277 4.46485 4.35069 3.91517 5.00156 3.84907L5.13353 3.84241H18.8672Z" fill="#151616"/>
</svg>
