<svg width="24" height="24" viewBox="0 0 24 24" fill="none" xmlns="http://www.w3.org/2000/svg">
<path fill-rule="evenodd" clip-rule="evenodd" d="M15.9608 2.92224C15.3687 2.33174 14.5655 2 13.728 2H10.272L10.0865 2.00535C8.42886 2.10111 7.11429 3.47184 7.11429 5.14872V6.10256H5.88H3.77143L3.66675 6.10959C3.29022 6.16052 3 6.48236 3 6.8718C3 7.29663 3.34538 7.64103 3.77143 7.64103H5.10857V18.9744L5.11448 19.152C5.21314 20.7384 6.52832 21.9927 8.13937 22L15.9086 22L16.0867 21.9941C17.6777 21.8957 18.9356 20.5843 18.9429 18.9778L18.9429 7.64103H20.2286L20.3333 7.634C20.7098 7.58307 21 7.26123 21 6.8718C21 6.44696 20.6546 6.10256 20.2286 6.10256H18.1714H16.8857V5.14872L16.8788 4.94076C16.8285 4.18161 16.5037 3.46353 15.9608 2.92224ZM15.3429 6.10256V5.14872C15.3429 4.72165 15.1727 4.31208 14.8699 4.01009C14.6049 3.74586 14.2573 3.58294 13.8876 3.54634L13.728 3.53846H10.272C9.42969 3.53846 8.738 4.18152 8.66374 5.00215L8.65714 5.14872V6.10256H15.3429ZM7.88571 7.64103L6.65143 7.64103L6.65142 18.9709C6.65492 19.7443 7.24608 20.379 7.99974 20.4541L8.14286 20.4615L15.9051 20.4615C16.6807 20.4581 17.3173 19.8686 17.3926 19.1171L17.4 18.9744V7.64103L16.1143 7.64103H7.88571ZM9.94286 10.2051C10.3334 10.2051 10.6562 10.4945 10.7072 10.87L10.7143 10.9744V17.1282C10.7143 17.553 10.3689 17.8974 9.94286 17.8974C9.55231 17.8974 9.22955 17.608 9.17847 17.2326L9.17143 17.1282V10.9744C9.17143 10.5495 9.51681 10.2051 9.94286 10.2051ZM14.8215 10.87C14.7704 10.4945 14.4477 10.2051 14.0571 10.2051C13.6311 10.2051 13.2857 10.5495 13.2857 10.9744V17.1282L13.2928 17.2326C13.3438 17.608 13.6666 17.8974 14.0571 17.8974C14.4832 17.8974 14.8286 17.553 14.8286 17.1282V10.9744L14.8215 10.87Z" fill="#151616"/>
</svg>
