<svg width="24" height="24" viewBox="0 0 24 24" fill="none" xmlns="http://www.w3.org/2000/svg">
<path fill-rule="evenodd" clip-rule="evenodd" d="M2.76517 11.8C2.87084 11.9248 2.99822 12.0715 3.14581 12.235C3.63585 12.7778 4.34407 13.5009 5.21572 14.2223C6.98081 15.683 9.31149 17.05 11.8 17.05C14.2886 17.05 16.6193 15.683 18.3844 14.2223C19.256 13.5009 19.9643 12.7778 20.4543 12.235C20.6019 12.0715 20.7293 11.9248 20.8349 11.8C20.7293 11.6753 20.6019 11.5286 20.4543 11.3651C19.9643 10.8223 19.256 10.0992 18.3844 9.37784C16.6193 7.91709 14.2886 6.55005 11.8 6.55005C9.31149 6.55005 6.98081 7.91709 5.21572 9.37784C4.34407 10.0992 3.63585 10.8223 3.14581 11.3651C2.99822 11.5286 2.87084 11.6753 2.76517 11.8ZM21.8 11.8C22.4 11.35 22.3999 11.3499 22.3997 11.3496L22.3982 11.3476L22.3947 11.3429L22.3827 11.3272C22.3726 11.314 22.3581 11.2952 22.3394 11.2712C22.302 11.2233 22.2476 11.1546 22.1772 11.0683C22.0364 10.8956 21.8309 10.6516 21.5677 10.36C21.0421 9.77778 20.2816 9.00088 19.3407 8.22225C17.4808 6.68301 14.8115 5.05005 11.8 5.05005C8.7886 5.05005 6.11929 6.68301 4.25937 8.22225C3.31853 9.00088 2.558 9.77778 2.03241 10.36C1.76918 10.6516 1.56373 10.8956 1.42291 11.0683C1.35247 11.1546 1.29812 11.2233 1.26071 11.2712C1.242 11.2952 1.22752 11.314 1.21738 11.3272L1.20543 11.3429L1.20191 11.3476L1.20077 11.3491C1.20061 11.3493 1.20005 11.35 1.80005 11.8L1.20005 11.35C1.00005 11.6167 1.00005 11.9834 1.20005 12.25L1.80005 11.8C1.20005 12.25 1.19989 12.2498 1.20005 12.25L1.20191 12.2525L1.20543 12.2572L1.21738 12.2729C1.22752 12.2861 1.242 12.3049 1.26071 12.3289C1.29812 12.3768 1.35247 12.4455 1.42291 12.5318C1.56373 12.7045 1.76918 12.9485 2.03241 13.2401C2.558 13.8223 3.31853 14.5992 4.25937 15.3778C6.11929 16.9171 8.7886 18.55 11.8 18.55C14.8115 18.55 17.4808 16.9171 19.3407 15.3778C20.2816 14.5992 21.0421 13.8223 21.5677 13.2401C21.8309 12.9485 22.0364 12.7045 22.1772 12.5318C22.2476 12.4455 22.302 12.3768 22.3394 12.3289C22.3581 12.3049 22.3726 12.2861 22.3827 12.2729L22.3947 12.2572L22.3982 12.2525L22.3993 12.251C22.3995 12.2508 22.4 12.25 21.8 11.8ZM21.8 11.8L22.4 12.25C22.6 11.9834 22.5997 11.6163 22.3997 11.3496L21.8 11.8Z" fill="#151616"/>
<path fill-rule="evenodd" clip-rule="evenodd" d="M11.8 9.55005C10.5574 9.55005 9.55005 10.5574 9.55005 11.8C9.55005 13.0427 10.5574 14.05 11.8 14.05C13.0427 14.05 14.05 13.0427 14.05 11.8C14.05 10.5574 13.0427 9.55005 11.8 9.55005ZM8.05005 11.8C8.05005 9.72898 9.72898 8.05005 11.8 8.05005C13.8711 8.05005 15.55 9.72898 15.55 11.8C15.55 13.8711 13.8711 15.55 11.8 15.55C9.72898 15.55 8.05005 13.8711 8.05005 11.8Z" fill="#151616"/>
<path fill-rule="evenodd" clip-rule="evenodd" d="M20.3304 3.26972C20.6233 3.56261 20.6233 4.03749 20.3304 4.33038L5.33038 19.3304C5.03749 19.6233 4.56261 19.6233 4.26972 19.3304C3.97683 19.0375 3.97683 18.5626 4.26972 18.2697L19.2697 3.26972C19.5626 2.97683 20.0375 2.97683 20.3304 3.26972Z" fill="#151616"/>
</svg>
