<svg width="40" height="40" viewBox="0 0 40 40" fill="none" xmlns="http://www.w3.org/2000/svg">
<mask id="mask0_3145_2583" style="mask-type:alpha" maskUnits="userSpaceOnUse" x="0" y="0" width="40" height="40">
<path fill-rule="evenodd" clip-rule="evenodd" d="M20 40C31.0457 40 40 31.0457 40 20C40 8.9543 31.0457 0 20 0C8.9543 0 0 8.9543 0 20C0 31.0457 8.9543 40 20 40Z" fill="white"/>
</mask>
<g mask="url(#mask0_3145_2583)">
<rect width="40" height="40" fill="#3C94A8" fill-opacity="0.1"/>
</g>
<path fill-rule="evenodd" clip-rule="evenodd" d="M20.05 24.6C16.6534 24.6 13.9 21.8466 13.9 18.45V9.15446C13.9 9.06915 13.9691 9 14.0544 9H26.0455C26.1308 9 26.2 9.06915 26.2 9.15446V18.45C26.2 21.8466 23.4465 24.6 20.05 24.6ZM24.7554 17.7667H15.3217V10.4212H24.7554V17.7667ZM24.7019 19.1882H15.3745C15.7172 21.4559 17.6746 23.194 20.0377 23.194C22.4022 23.194 24.3594 21.4563 24.7019 19.1882ZM19.95 11.4C19.5358 11.4 19.2 11.7358 19.2 12.15V13.4H17.95C17.5358 13.4 17.2 13.7358 17.2 14.15C17.2 14.5642 17.5358 14.9 17.95 14.9H19.2V16.15C19.2 16.5642 19.5358 16.9 19.95 16.9C20.3642 16.9 20.7 16.5642 20.7 16.15V14.9H21.95C22.3642 14.9 22.7 14.5642 22.7 14.15C22.7 13.7358 22.3642 13.4 21.95 13.4H20.7V12.15C20.7 11.7358 20.3642 11.4 19.95 11.4ZM10.7712 31.7633C11.09 32.0277 11.5629 31.9836 11.8273 31.6648C13.7183 29.3847 16.7494 28 20.054 28C23.3433 28 26.3619 29.3714 28.2548 31.6333C28.5207 31.951 28.9937 31.993 29.3113 31.7272C29.629 31.4613 29.671 30.9883 29.4052 30.6707C27.2234 28.0636 23.7817 26.5 20.054 26.5C16.3087 26.5 12.8525 28.0789 10.6727 30.7072C10.4083 31.0261 10.4524 31.4989 10.7712 31.7633Z" fill="#3C94A8"/>
</svg>
