<svg width="24" height="24" viewBox="0 0 24 24" fill="none" xmlns="http://www.w3.org/2000/svg">
<g clip-path="url(#clip0_51_32080)">
<mask id="mask0_51_32080" style="mask-type:alpha" maskUnits="userSpaceOnUse" x="0" y="0" width="24" height="24">
<path fill-rule="evenodd" clip-rule="evenodd" d="M12 24C18.6274 24 24 18.6274 24 12C24 5.37258 18.6274 0 12 0C5.37258 0 0 5.37258 0 12C0 18.6274 5.37258 24 12 24Z" fill="white"/>
</mask>
<g mask="url(#mask0_51_32080)">
<rect width="24" height="24" fill="#EEEEEE"/>
</g>
</g>
<path fill-rule="evenodd" clip-rule="evenodd" d="M12.8071 4H8.15367C7.01595 4 6.08427 4.87778 6.00541 5.98982L6 6.14286V16.8571C6 17.9892 6.88221 18.9162 7.99986 18.9946L8.15367 19H15.8454C16.9831 19 17.9147 18.1222 17.9936 17.0102L17.999 16.8571L18 9.17541L17.9841 9.08074L17.9529 8.95153L17.9674 8.94749L17.9346 8.88614L17.8994 8.8334L17.8518 8.7766L13.2401 4.188C13.1884 4.1396 13.1293 4.09969 13.1086 4.08266L12.9844 4.0639C12.9442 4.04093 12.9011 4.02344 12.862 4.01217L12.8071 4ZM11.9995 5.22449L12.1533 5.37755V7.67347C12.1533 8.80548 13.0356 9.73248 14.1532 9.81095L14.307 9.81633H16.6145L16.7684 9.96939V16.8571C16.7684 17.3253 16.4162 17.7117 15.9611 17.7684L15.8454 17.7755H8.15367C7.68312 17.7755 7.29482 17.4252 7.23786 16.9723L7.23067 16.8571V6.14286C7.23067 5.67467 7.58278 5.28831 8.03789 5.23165L8.15367 5.22449H11.9995ZM14.307 14.7143H9.69201C9.35217 14.7143 9.07667 14.9884 9.07667 15.3265C9.07667 15.6309 9.29982 15.8833 9.5922 15.9308L9.69201 15.9388H14.307C14.6469 15.9388 14.9223 15.6647 14.9223 15.3265C14.9223 15.0222 14.6992 14.7697 14.4068 14.7223L14.307 14.7143ZM14.307 11.6531H9.69201C9.35217 11.6531 9.07667 11.9272 9.07667 12.2653C9.07667 12.5696 9.29982 12.8221 9.5922 12.8695L9.69201 12.8776H14.307C14.6469 12.8776 14.9223 12.6034 14.9223 12.2653C14.9223 11.961 14.6992 11.7085 14.4068 11.6611L14.307 11.6531ZM10.4612 8.59184H9.69201C9.35217 8.59184 9.07667 8.86595 9.07667 9.20408C9.07667 9.5084 9.29982 9.76086 9.5922 9.80831L9.69201 9.81633H10.4612C10.801 9.81633 11.0765 9.54222 11.0765 9.20408C11.0765 8.89976 10.8534 8.6473 10.561 8.59985L10.4612 8.59184ZM13.384 7.67347V6.08711L15.9014 8.59184H14.307C13.8365 8.59184 13.4482 8.24149 13.3912 7.78867L13.384 7.67347Z" fill="#9E9D9D"/>
<defs>
<clipPath id="clip0_51_32080">
<rect width="24" height="24" fill="white"/>
</clipPath>
</defs>
</svg>
