<svg width="24" height="24" viewBox="0 0 24 24" fill="none" xmlns="http://www.w3.org/2000/svg">
<g clip-path="url(#clip0_51_32081)">
<mask id="mask0_51_32081" style="mask-type:alpha" maskUnits="userSpaceOnUse" x="0" y="0" width="24" height="24">
<path fill-rule="evenodd" clip-rule="evenodd" d="M12 24C18.6274 24 24 18.6274 24 12C24 5.37258 18.6274 0 12 0C5.37258 0 0 5.37258 0 12C0 18.6274 5.37258 24 12 24Z" fill="white"/>
</mask>
<g mask="url(#mask0_51_32081)">
<rect width="24" height="24" fill="#EEEEEE"/>
</g>
</g>
<path fill-rule="evenodd" clip-rule="evenodd" d="M6.64286 6.29999H17.3571L17.5102 6.3054C18.6222 6.38441 19.5 7.31776 19.5 8.45752V15.3925L19.4946 15.5465C19.4162 16.6662 18.4892 17.55 17.3571 17.55H6.64286L6.48982 17.5446C5.37778 17.4656 4.5 16.5322 4.5 15.3925V8.45752L4.50538 8.30344C4.58385 7.18378 5.51084 6.29999 6.64286 6.29999ZM18.2755 15.3925V10.6151H5.72449V15.3925L5.73165 15.5084C5.78831 15.9644 6.17467 16.3171 6.64286 16.3171H17.3571L17.4723 16.3099C17.9252 16.2528 18.2755 15.8638 18.2755 15.3925ZM17.3571 7.53286C17.8253 7.53286 18.2117 7.88561 18.2684 8.34153L18.2755 8.45752L18.2684 9.38218H5.72449V8.45752C5.72449 7.98613 6.07483 7.59713 6.52766 7.54007L6.64286 7.53286H17.3571ZM8.17347 12.4644H10.4694L10.5687 12.4724C10.8596 12.5202 11.0816 12.7744 11.0816 13.0808C11.0816 13.4213 10.8075 13.6972 10.4694 13.6972H8.17347L8.07416 13.6892C7.78325 13.6414 7.56122 13.3872 7.56122 13.0808C7.56122 12.7404 7.83534 12.4644 8.17347 12.4644Z" fill="#9E9D9D"/>
<defs>
<clipPath id="clip0_51_32081">
<rect width="24" height="24" fill="white"/>
</clipPath>
</defs>
</svg>
