<svg width="18" height="18" viewBox="0 0 18 18" fill="none" xmlns="http://www.w3.org/2000/svg">
<path fill-rule="evenodd" clip-rule="evenodd" d="M16.7084 9.00001C16.7084 4.74322 13.2571 1.29167 9.00008 1.29167C4.74306 1.29167 1.29175 4.74322 1.29175 9.00001C1.29175 13.2573 4.74276 16.7083 9.00008 16.7083C13.2574 16.7083 16.7084 13.2573 16.7084 9.00001ZM17.9584 9C17.9584 13.9477 13.9478 17.9583 9.00008 17.9583C4.0524 17.9583 0.041748 13.9477 0.041748 9C0.041748 4.05288 4.05268 0.0416718 9.00008 0.0416718C13.9475 0.0416718 17.9584 4.05288 17.9584 9ZM11.8063 4.49756C11.9917 4.20643 12.3781 4.12075 12.6692 4.3062C12.9603 4.49165 13.046 4.87799 12.8606 5.16912L9.67562 10.1691C9.56087 10.3493 9.36207 10.4583 9.14848 10.4583H4.83341C4.48824 10.4583 4.20841 10.1785 4.20841 9.83334C4.20841 9.48816 4.48824 9.20834 4.83341 9.20834H8.80557L11.8063 4.49756Z" fill="#9E9D9D"/>
</svg>
