<svg width="30" height="30" viewBox="0 0 30 30" fill="none" xmlns="http://www.w3.org/2000/svg">
<path fill-rule="evenodd" clip-rule="evenodd" d="M12.2498 5H18.3215L18.5484 5.0045C21.5602 5.12415 24 7.61482 24 10.7189C24 13.872 21.4525 16.438 18.3215 16.438H13.071V19.6777H18.3215L18.4329 19.6853C18.8339 19.74 19.1427 20.086 19.1427 20.5042C19.1427 20.9604 18.7752 21.3306 18.3215 21.3306H13.071V24.1736L13.0635 24.2857C13.0092 24.6889 12.6657 25 12.2498 25C11.7961 25 11.4286 24.6298 11.4286 24.1736V21.3306H9.8212L9.70974 21.323C9.30882 21.2683 9 20.9224 9 20.5042C9 20.0479 9.36752 19.6777 9.8212 19.6777H11.4286V16.438H9.8212L9.70974 16.4304C9.30882 16.3757 9 16.0297 9 15.6115C9 15.1553 9.36752 14.7851 9.8212 14.7851H11.4286V5.82641L11.4361 5.71431C11.4905 5.31106 11.8339 5 12.2498 5ZM22.3576 10.719C22.3576 8.46424 20.547 6.65281 18.3215 6.65281H13.071V14.7851H18.3215L18.5289 14.7798C20.6585 14.6708 22.3576 12.8915 22.3576 10.719Z" fill="#3C94A8"/>
</svg>
