<svg width="20" height="20" viewBox="0 0 20 20" fill="none" xmlns="http://www.w3.org/2000/svg">
<g clip-path="url(#clip0_113_252)">
<path fill-rule="evenodd" clip-rule="evenodd" d="M2 7.76722C2 3.47804 5.45177 6.10352e-05 9.71138 6.10352e-05C13.971 6.10352e-05 17.4228 3.47804 17.4228 7.76722C17.4228 9.07227 16.7808 10.6955 15.6128 12.6162C15.0869 13.4812 14.4641 14.3877 13.7639 15.3219C12.9818 16.3653 12.1452 17.3884 11.3084 18.3495C11.0155 18.686 10.7434 18.9908 10.4989 19.2586C10.3512 19.4204 10.2452 19.5343 10.1875 19.5952C9.92883 19.8683 9.49392 19.8683 9.23526 19.5952C9.17759 19.5343 9.07153 19.4204 8.92386 19.2586C8.67938 18.9908 8.40726 18.686 8.11435 18.3495C7.27755 17.3884 6.44091 16.3653 5.65884 15.3219C4.95869 14.3877 4.33589 13.4812 3.80993 12.6162C2.64199 10.6955 2 9.07227 2 7.76722ZM9.71138 1.3116C6.17734 1.3116 3.31154 4.20118 3.31154 7.76722C3.31154 8.78237 3.89138 10.2259 4.93056 11.9348C5.43306 12.7612 6.03264 13.6338 6.70831 14.5353C7.46965 15.551 8.28667 16.5501 9.10353 17.4883C9.29215 17.705 9.47182 17.9081 9.64054 18.096L9.71138 18.1749L9.78221 18.096C9.95094 17.9081 10.1306 17.705 10.3192 17.4883C11.1361 16.5501 11.9531 15.551 12.7144 14.5353C13.3901 13.6338 13.9897 12.7612 14.4922 11.9348C15.5314 10.2259 16.1112 8.78237 16.1112 7.76722C16.1112 4.20118 13.2454 1.3116 9.71138 1.3116ZM6.69351 7.6961C6.69351 6.03785 8.03779 4.69357 9.69604 4.69357C11.3543 4.69357 12.6986 6.03785 12.6986 7.6961C12.6986 9.35435 11.3543 10.6986 9.69604 10.6986C8.03779 10.6986 6.69351 9.35435 6.69351 7.6961ZM9.69604 6.00511C8.76213 6.00511 8.00505 6.7622 8.00505 7.6961C8.00505 8.63001 8.76213 9.38709 9.69604 9.38709C10.6299 9.38709 11.387 8.63001 11.387 7.6961C11.387 6.7622 10.6299 6.00511 9.69604 6.00511Z" fill="#151616"/>
</g>
<defs>
<clipPath id="clip0_113_252">
<rect width="20" height="20" fill="white"/>
</clipPath>
</defs>
</svg>
