<svg width="16" height="17" viewBox="0 0 16 17" fill="none" xmlns="http://www.w3.org/2000/svg">
<g opacity="0.6">
<path fill-rule="evenodd" clip-rule="evenodd" d="M8.72337 15.1212C10.3821 13.7626 13.4794 10.7538 13.4794 7.22881C13.4794 4.03831 10.893 1.4519 7.70254 1.4519C4.51204 1.4519 1.92563 4.03831 1.92563 7.22881C1.92563 10.7538 5.02293 13.7626 6.6817 15.1212C7.2831 15.6138 8.12197 15.6138 8.72337 15.1212ZM7.70254 8.51257C8.76604 8.51257 9.62817 7.65043 9.62817 6.58693C9.62817 5.52343 8.76604 4.6613 7.70254 4.6613C6.63904 4.6613 5.7769 5.52343 5.7769 6.58693C5.7769 7.65043 6.63904 8.51257 7.70254 8.51257Z" fill="#9E9D9D"/>
</g>
</svg>
