<svg width="20" height="20" viewBox="0 0 20 20" fill="none" xmlns="http://www.w3.org/2000/svg">
    <g opacity="0.87">
        <path fill-rule="evenodd" clip-rule="evenodd" d="M5.91159 2.63512L5.9171 2.55257C5.95621 2.2685 6.19845 2.05001 6.49104 2.05001H11.1445L11.3174 2.05344C13.5989 2.14434 15.4475 4.03132 15.4475 6.38358C15.4475 8.7731 13.517 10.7172 11.145 10.7172H7.07049V13.3005H11.1433L11.2253 13.3061C11.5071 13.3454 11.7244 13.5891 11.7244 13.8839C11.7244 14.2063 11.4648 14.4674 11.145 14.4674H7.07049V16.6949L7.06497 16.7774C7.02587 17.0615 6.78363 17.28 6.49104 17.28C6.17121 17.28 5.91159 17.019 5.91159 16.6966V14.4674H4.63119L4.54917 14.4618C4.26735 14.4225 4.05005 14.1788 4.05005 13.8839C4.05005 13.5616 4.30968 13.3005 4.6295 13.3005H5.91159V10.7172H4.63119L4.54918 10.7116C4.26736 10.6723 4.05005 10.4286 4.05005 10.1338C4.05005 9.81137 4.30968 9.55032 4.6295 9.55032H5.91159V2.63512ZM11.1449 3.21689H7.07047V9.55032L11.1449 9.55033L11.3052 9.54625L11.3065 9.54619C12.9656 9.46121 14.2886 8.07528 14.2886 6.38363C14.2886 4.62798 12.8786 3.21689 11.1449 3.21689Z" fill="#9E9D9D"/>
    </g>
</svg>
