<svg width="40" height="40" viewBox="0 0 40 40" fill="none" xmlns="http://www.w3.org/2000/svg">
<path fill-rule="evenodd" clip-rule="evenodd" d="M20.6188 36.4799C20.2558 36.1939 19.7442 36.1939 19.3812 36.4799L16.5227 38.7319C16.0221 39.1263 15.2854 38.9581 15.0055 38.3856L13.4072 35.1164C13.2042 34.7012 12.7432 34.4792 12.2921 34.5794L8.7396 35.3681C8.1175 35.5062 7.52664 35.035 7.52287 34.3978L7.50132 30.7589C7.49859 30.2968 7.17955 29.8967 6.72963 29.7912L3.18675 28.9605C2.56633 28.815 2.23843 28.1341 2.51152 27.5584L4.07097 24.2705C4.26901 23.8529 4.15515 23.3541 3.79556 23.0638L0.963975 20.7781C0.468119 20.3779 0.468119 19.6221 0.963975 19.2219L3.79556 16.9362C4.15515 16.6459 4.26901 16.1471 4.07097 15.7295L2.51152 12.4416C2.23843 11.8659 2.56633 11.185 3.18675 11.0395L6.72963 10.2088C7.17955 10.1033 7.49859 9.70322 7.50132 9.2411L7.52287 5.60219C7.52664 4.96496 8.1175 4.49376 8.7396 4.63188L12.2921 5.42061C12.7432 5.52077 13.2042 5.29876 13.4072 4.88359L15.0055 1.6144C15.2854 1.04191 16.0221 0.873741 16.5227 1.2681L19.3811 3.52008C19.7442 3.80606 20.2558 3.80606 20.6189 3.52008L23.4773 1.2681C23.9779 0.87374 24.7146 1.04191 24.9945 1.6144L26.5928 4.88359C26.7958 5.29876 27.2568 5.52077 27.7079 5.42061L31.2604 4.63188C31.8825 4.49376 32.4734 4.96496 32.4771 5.60219L32.4987 9.2411C32.5014 9.70322 32.8204 10.1033 33.2704 10.2088L36.8133 11.0395C37.4337 11.185 37.7616 11.8659 37.4885 12.4416L35.929 15.7295C35.731 16.1471 35.8449 16.6459 36.2044 16.9362L39.036 19.2219C39.5319 19.6221 39.5319 20.3779 39.036 20.7781L36.2044 23.0638C35.8449 23.3541 35.731 23.8529 35.929 24.2705L37.4885 27.5584C37.7616 28.1341 37.4337 28.815 36.8133 28.9605L33.2704 29.7912C32.8204 29.8967 32.5014 30.2968 32.4987 30.7589L32.4771 34.3978C32.4734 35.035 31.8825 35.5062 31.2604 35.3681L27.7079 34.5794C27.2568 34.4792 26.7958 34.7012 26.5928 35.1164L24.9945 38.3856C24.7146 38.9581 23.9779 39.1263 23.4773 38.7319L20.6188 36.4799Z" fill="#3C94A8"/>
<path fill-rule="evenodd" clip-rule="evenodd" d="M11.1625 14.6865C11.1625 12.6939 12.7778 11.0786 14.7704 11.0786C16.763 11.0786 18.3783 12.6939 18.3783 14.6865C18.3783 16.6791 16.763 18.2944 14.7704 18.2944C12.7778 18.2944 11.1625 16.6791 11.1625 14.6865ZM14.7704 12.5786C13.6062 12.5786 12.6625 13.5223 12.6625 14.6865C12.6625 15.8507 13.6062 16.7944 14.7704 16.7944C15.9345 16.7944 16.8783 15.8507 16.8783 14.6865C16.8783 13.5223 15.9345 12.5786 14.7704 12.5786ZM28.9784 11.3569C29.2713 11.6498 29.2713 12.1247 28.9784 12.4176L12.3589 29.037C12.0661 29.3299 11.5912 29.3299 11.2983 29.037C11.0054 28.7441 11.0054 28.2692 11.2983 27.9763L27.9177 11.3569C28.2106 11.064 28.6855 11.064 28.9784 11.3569ZM25.741 22.1079C23.7484 22.1079 22.1331 23.7232 22.1331 25.7158C22.1331 27.7084 23.7484 29.3237 25.741 29.3237C27.7336 29.3237 29.3489 27.7084 29.3489 25.7158C29.3489 23.7232 27.7336 22.1079 25.741 22.1079ZM23.6331 25.7158C23.6331 24.5517 24.5768 23.6079 25.741 23.6079C26.9051 23.6079 27.8489 24.5517 27.8489 25.7158C27.8489 26.88 26.9051 27.8237 25.741 27.8237C24.5768 27.8237 23.6331 26.88 23.6331 25.7158Z" fill="white"/>
</svg>
