<svg width="30" height="30" viewBox="0 0 30 30" fill="none" xmlns="http://www.w3.org/2000/svg">
    <path fill-rule="evenodd" clip-rule="evenodd"
        d="M22.7099 6.5C22.5423 6.5 22.3802 6.55328 22.2462 6.6505L22.1513 6.7315L6.73491 22.1479C6.53325 22.3471 6.45373 22.639 6.52651 22.9129C6.5993 23.1868 6.81324 23.4007 7.08715 23.4735C7.32193 23.5359 7.56994 23.4863 7.76228 23.3431L7.85349 23.2637L23.2686 7.84859C23.4168 7.70048 23.5 7.49957 23.5 7.29007C23.5 7.08057 23.4168 6.87966 23.2685 6.73144C23.1204 6.58326 22.9194 6.5 22.7099 6.5ZM19.6734 16.6763C18.0208 16.6763 16.6812 18.016 16.6812 19.6686C16.6812 21.3211 18.0208 22.6608 19.6734 22.6608C21.326 22.6608 22.6657 21.3211 22.6657 19.6689C22.6639 18.0759 21.419 16.7741 19.8488 16.6816L19.6734 16.6763ZM21.0855 19.6688C21.0855 18.8887 20.4533 18.2565 19.6734 18.2565C18.8936 18.2565 18.2614 18.8887 18.2614 19.6686C18.2614 20.4484 18.8936 21.0806 19.6734 21.0806C20.4531 21.0801 21.0849 20.4483 21.0855 19.6688ZM10.3315 7.33438C8.67891 7.33438 7.33923 8.67405 7.33923 10.3263C7.34104 11.9783 8.67981 13.3171 10.3315 13.3189C11.9841 13.3189 13.3237 11.9792 13.3237 10.3266C13.3237 8.67405 11.9841 7.33438 10.3315 7.33438ZM11.7435 10.3266C11.7435 9.54677 11.1113 8.91457 10.3313 8.91457C9.55175 8.91509 8.91995 9.54689 8.91943 10.3264C8.91943 11.1065 9.55163 11.7387 10.3315 11.7387C11.1113 11.7387 11.7435 11.1065 11.7435 10.3266Z"
        fill="#3C94A8" />
</svg>
