<svg width="20" height="20" viewBox="0 0 20 20" fill="none" xmlns="http://www.w3.org/2000/svg">
<path fill-rule="evenodd" clip-rule="evenodd" d="M17.4652 10C17.4652 14.1231 14.123 17.4653 9.99995 17.4653C5.87688 17.4653 2.53467 14.1231 2.53467 10C2.53467 5.8774 5.87711 2.53473 9.99995 2.53473C14.1228 2.53473 17.4652 5.8774 17.4652 10ZM16.4236 10C16.4236 6.45268 13.5475 3.5764 9.99994 3.5764C6.45242 3.5764 3.57633 6.45268 3.57633 10C3.57633 13.5478 6.45218 16.4236 9.99994 16.4236C13.5477 16.4236 16.4236 13.5478 16.4236 10ZM13.0575 6.0885C12.8149 5.93396 12.493 6.00536 12.3384 6.24797L9.83785 10.1736H6.52772C6.24007 10.1736 6.00689 10.4068 6.00689 10.6945C6.00689 10.9821 6.24007 11.2153 6.52772 11.2153H10.1236C10.3016 11.2153 10.4673 11.1244 10.5629 10.9743L13.217 6.8076C13.3715 6.56499 13.3001 6.24304 13.0575 6.0885Z" fill="#9E9D9D"/>
</svg>
