<svg width="40" height="40" viewBox="0 0 40 40" fill="none" xmlns="http://www.w3.org/2000/svg">
<mask id="mask0_3145_2998" style="mask-type:alpha" maskUnits="userSpaceOnUse" x="0" y="0" width="40" height="40">
<path fill-rule="evenodd" clip-rule="evenodd" d="M20 40C31.0457 40 40 31.0457 40 20C40 8.9543 31.0457 0 20 0C8.9543 0 0 8.9543 0 20C0 31.0457 8.9543 40 20 40Z" fill="white"/>
</mask>
<g mask="url(#mask0_3145_2998)">
<rect width="40" height="40" fill="#3C94A8" fill-opacity="0.1"/>
</g>
<path fill-rule="evenodd" clip-rule="evenodd" d="M19.9966 11.3875C15.8828 11.3875 12.4709 14.393 11.837 18.3281H14.6225C15.2176 15.9135 17.3976 14.1228 19.996 14.1228C22.5943 14.1228 24.7743 15.9135 25.3694 18.3281H28.1562C27.5224 14.393 24.1105 11.3875 19.9966 11.3875ZM15.3596 26.4956C13.214 25.0388 11.791 22.6008 11.7333 19.8281H14.4645C14.5091 21.2926 15.1231 22.6141 16.0909 23.5781L15.3596 26.4956ZM14.9751 28.0293C12.1344 26.3229 10.2314 23.2105 10.2314 19.6526C10.2314 14.2595 14.6035 9.88745 19.9966 9.88745C25.3898 9.88745 29.7618 14.2595 29.7618 19.6526C29.7618 23.2197 27.849 26.3389 24.9962 28.0425L25.5059 30.0805C25.5619 30.3046 25.5116 30.542 25.3695 30.724C25.2273 30.9061 25.0092 31.0125 24.7783 31.0125H15.1885C14.9574 31.0125 14.7393 30.906 14.5972 30.7239C14.4551 30.5417 14.4048 30.3042 14.461 30.0801L14.9751 28.0293ZM24.6129 26.5097C26.77 25.0545 28.202 22.6097 28.26 19.8281H25.5274C25.4826 21.3011 24.8616 22.6296 23.884 23.5949L24.6129 26.5097ZM23.42 21.791C23.8069 21.1718 24.03 20.4405 24.03 19.6568C24.03 17.4289 22.2239 15.6228 19.996 15.6228C17.768 15.6228 15.9619 17.4289 15.9619 19.6568C15.9619 20.4327 16.1806 21.1573 16.5604 21.7725C16.6842 21.5194 16.9434 21.3524 17.2341 21.3524H22.7376C23.0353 21.3524 23.3 21.5276 23.42 21.791ZM17.54 12.4046C17.1258 12.4046 16.79 12.7404 16.79 13.1546C16.79 13.5688 17.1258 13.9046 17.54 13.9046H18.3076C18.7218 13.9046 19.0576 13.5688 19.0576 13.1546C19.0576 12.7404 18.7218 12.4046 18.3076 12.4046L17.54 12.4046ZM20.9072 13.1546C20.9072 12.7404 21.243 12.4046 21.6572 12.4046L22.4248 12.4046C22.839 12.4046 23.1748 12.7404 23.1748 13.1546C23.1748 13.5688 22.839 13.9046 22.4248 13.9046H21.6572C21.243 13.9046 20.9072 13.5688 20.9072 13.1546ZM16.1497 29.5125L17.8193 22.8524H22.1521L23.8176 29.5125H16.1497Z" fill="#3C94A8"/>
</svg>
