<svg width="40" height="40" viewBox="0 0 40 40" fill="none" xmlns="http://www.w3.org/2000/svg">
<mask id="mask0_3145_2520" style="mask-type:alpha" maskUnits="userSpaceOnUse" x="0" y="0" width="40" height="40">
<path fill-rule="evenodd" clip-rule="evenodd" d="M20 40C31.0457 40 40 31.0457 40 20C40 8.9543 31.0457 0 20 0C8.9543 0 0 8.9543 0 20C0 31.0457 8.9543 40 20 40Z" fill="white"/>
</mask>
<g mask="url(#mask0_3145_2520)">
<rect width="40" height="40" fill="#3C94A8" fill-opacity="0.1"/>
</g>
<path fill-rule="evenodd" clip-rule="evenodd" d="M10.25 11C10.25 10.5858 10.5858 10.25 11 10.25H14C14.4142 10.25 14.75 10.5858 14.75 11C14.75 11.4142 14.4142 11.75 14 11.75H11.75V17C11.75 19.3472 13.6528 21.25 16 21.25C18.3472 21.25 20.25 19.3472 20.25 17V11.75H18C17.5858 11.75 17.25 11.4142 17.25 11C17.25 10.5858 17.5858 10.25 18 10.25H21C21.4142 10.25 21.75 10.5858 21.75 11V17C21.75 19.9214 19.5713 22.334 16.75 22.7015V23.5C16.75 26.1234 18.8766 28.25 21.5 28.25C24.1234 28.25 26.25 26.1234 26.25 23.5V21.6465C25.0957 21.32 24.25 20.2588 24.25 19C24.25 17.4812 25.4812 16.25 27 16.25C28.5188 16.25 29.75 17.4812 29.75 19C29.75 20.2588 28.9043 21.32 27.75 21.6465V23.5C27.75 26.9518 24.9518 29.75 21.5 29.75C18.0482 29.75 15.25 26.9518 15.25 23.5V22.7015C12.4287 22.334 10.25 19.9214 10.25 17V11ZM25.75 19C25.75 18.3096 26.3096 17.75 27 17.75C27.6904 17.75 28.25 18.3096 28.25 19C28.25 19.6904 27.6904 20.25 27 20.25C26.3096 20.25 25.75 19.6904 25.75 19Z" fill="#3C94A8"/>
</svg>
