<svg width="40" height="40" viewBox="0 0 40 40" fill="none" xmlns="http://www.w3.org/2000/svg">
<mask id="mask0_3145_3071" style="mask-type:alpha" maskUnits="userSpaceOnUse" x="0" y="0" width="40" height="40">
<path fill-rule="evenodd" clip-rule="evenodd" d="M20 40C31.0457 40 40 31.0457 40 20C40 8.9543 31.0457 0 20 0C8.9543 0 0 8.9543 0 20C0 31.0457 8.9543 40 20 40Z" fill="white"/>
</mask>
<g mask="url(#mask0_3145_3071)">
<rect width="40" height="40" fill="#3C94A8" fill-opacity="0.1"/>
</g>
<path fill-rule="evenodd" clip-rule="evenodd" d="M13.9801 18.4175H25.9511L26.0077 18.2458C26.6489 16.3007 25.6657 14.0901 23.6244 13.3478L21.7616 12.6704L21.7218 12.9803C21.5093 14.637 20.0935 15.9175 18.3789 15.9175H15.8096C14.5219 15.9175 13.7047 17.1099 13.9383 18.219L13.9801 18.4175ZM26.8637 19.9175H13.1188C11.3842 17.6978 12.9589 14.4175 15.8096 14.4175H18.3789C19.4119 14.4175 20.2494 13.58 20.2494 12.547V10.5244L24.137 11.9381C27.3932 13.1222 28.7046 17.009 26.8637 19.9175Z" fill="#3C94A8"/>
<path fill-rule="evenodd" clip-rule="evenodd" d="M27 19.9175H13C12.3096 19.9175 11.75 20.4771 11.75 21.1675V24.1675C11.75 26.5147 13.6528 28.4175 16 28.4175H24C26.3472 28.4175 28.25 26.5147 28.25 24.1675V21.1675C28.25 20.4771 27.6904 19.9175 27 19.9175ZM10.25 21.1675C10.25 19.6487 11.4812 18.4175 13 18.4175H27C28.5188 18.4175 29.75 19.6487 29.75 21.1675V24.1675C29.75 27.3431 27.1756 29.9175 24 29.9175H16C12.8244 29.9175 10.25 27.3431 10.25 24.1675V21.1675Z" fill="#3C94A8"/>
</svg>
