<svg width="40" height="40" viewBox="0 0 40 40" fill="none" xmlns="http://www.w3.org/2000/svg">
<mask id="mask0_3145_3026" style="mask-type:alpha" maskUnits="userSpaceOnUse" x="0" y="0" width="40" height="40">
<path fill-rule="evenodd" clip-rule="evenodd" d="M20 40C31.0457 40 40 31.0457 40 20C40 8.9543 31.0457 0 20 0C8.9543 0 0 8.9543 0 20C0 31.0457 8.9543 40 20 40Z" fill="white"/>
</mask>
<g mask="url(#mask0_3145_3026)">
<rect width="40" height="40" fill="#3C94A8" fill-opacity="0.1"/>
</g>
<path fill-rule="evenodd" clip-rule="evenodd" d="M13.7458 11.8468C12.4202 12.3439 11.5908 13.868 11.5908 16.2077C11.5908 18.3817 12.2686 21.5502 13.2194 24.1864C13.6937 25.5014 14.2211 26.642 14.7388 27.4389C14.9986 27.8387 15.2372 28.1227 15.4422 28.2989C15.6541 28.4811 15.7606 28.4898 15.7719 28.4898C15.7817 28.49 15.8317 28.491 15.9363 28.3836C16.0557 28.261 16.1945 28.0474 16.3439 27.7187C16.6438 27.059 16.8922 26.1562 17.1617 25.1681L17.173 25.1267C17.4286 24.189 17.7057 23.1731 18.061 22.3914C18.2418 21.9936 18.4662 21.6018 18.7596 21.3006C19.0639 20.9882 19.4775 20.741 19.9986 20.741C20.5196 20.741 20.9332 20.9882 21.2375 21.3006C21.5309 21.6018 21.7553 21.9936 21.9361 22.3914C22.2914 23.1731 22.5685 24.189 22.8242 25.1267L22.8355 25.1681C23.105 26.1562 23.3533 27.059 23.6532 27.7187C23.8026 28.0474 23.9414 28.261 24.0608 28.3836C24.1654 28.491 24.2145 28.4901 24.2243 28.4899C24.2243 28.4899 24.2304 28.4899 24.2411 28.4872C24.2521 28.4844 24.2703 28.4785 24.296 28.4659C24.3491 28.44 24.4248 28.3904 24.5213 28.3016C24.7179 28.1205 24.9461 27.8272 25.1942 27.4127C25.6886 26.5871 26.1858 25.4114 26.6408 24.0682C27.5501 21.3835 28.2388 18.186 28.4089 16.1454C28.5724 14.183 28.0746 13.1155 27.4517 12.5255C26.8065 11.9142 25.8805 11.6744 24.9296 11.6744C24.0419 11.6744 22.9322 12.0558 21.982 12.4877C21.7611 12.5881 21.5543 12.6887 21.3676 12.7835C21.5295 12.8991 21.6928 13.0187 21.8574 13.1421C22.1888 13.3907 22.256 13.8608 22.0074 14.1921C21.7589 14.5235 21.2888 14.5907 20.9574 14.3421C17.4816 11.7353 15.1274 11.3287 13.7458 11.8468ZM19.945 11.8462C17.2329 10.2159 14.9641 9.78791 13.2191 10.4423C11.0226 11.266 10.0908 13.6162 10.0908 16.2077C10.0908 18.6125 10.8219 21.9602 11.8084 24.6953C12.3027 26.0659 12.876 27.3249 13.4809 28.2561C13.7825 28.7203 14.1107 29.1324 14.4644 29.4364C14.8111 29.7345 15.2549 29.9898 15.7719 29.9898C16.293 29.9898 16.7065 29.7426 17.0109 29.4302C17.3042 29.129 17.5287 28.7372 17.7095 28.3394C18.0648 27.5578 18.3418 26.5418 18.5975 25.6042L18.6088 25.5628C18.8783 24.5746 19.1267 23.6718 19.4265 23.0121C19.5759 22.6834 19.7147 22.4698 19.8341 22.3473C19.9388 22.2398 19.9878 22.2408 19.9976 22.241H19.9995C20.0093 22.2408 20.0583 22.2398 20.163 22.3473C20.2824 22.4698 20.4212 22.6834 20.5706 23.0121C20.8704 23.6718 21.1188 24.5746 21.3883 25.5628L21.3996 25.6042C21.6553 26.5418 21.9323 27.5578 22.2876 28.3394C22.4685 28.7372 22.6929 29.129 22.9863 29.4302C23.2906 29.7426 23.7042 29.9898 24.2252 29.9898C24.7563 29.9898 25.2001 29.7157 25.5375 29.4049C25.8816 29.0879 26.1955 28.6603 26.4812 28.1832C27.0545 27.2257 27.5919 25.9359 28.0615 24.5494C29.0014 21.7746 29.7215 18.456 29.9037 16.27C30.0924 14.0057 29.5336 12.4315 28.4834 11.4366C27.4556 10.4629 26.0921 10.1744 24.9296 10.1744C23.7041 10.1744 22.3483 10.6735 21.3613 11.1222C20.8544 11.3525 20.4178 11.5823 20.1076 11.7547C20.0489 11.7873 19.9946 11.818 19.945 11.8462Z" fill="#3C94A8"/>
</svg>
