<svg width="40" height="40" viewBox="0 0 40 40" fill="none" xmlns="http://www.w3.org/2000/svg">
<mask id="mask0_3145_3122" style="mask-type:alpha" maskUnits="userSpaceOnUse" x="0" y="0" width="40" height="40">
<path fill-rule="evenodd" clip-rule="evenodd" d="M20 40C31.0457 40 40 31.0457 40 20C40 8.9543 31.0457 0 20 0C8.9543 0 0 8.9543 0 20C0 31.0457 8.9543 40 20 40Z" fill="white"/>
</mask>
<g mask="url(#mask0_3145_3122)">
<rect width="40" height="40" fill="#3C94A8" fill-opacity="0.1"/>
</g>
<path fill-rule="evenodd" clip-rule="evenodd" d="M17.3413 11.7291C17.6894 11.7291 17.9917 11.9686 18.0714 12.3075L21.0349 24.9136L22.1547 20.1506C22.2342 19.8122 22.5359 19.5728 22.8835 19.5722C23.2311 19.5716 23.5335 19.8099 23.6143 20.148L24.1032 22.1958L25.1361 17.8021C25.2158 17.4633 25.5181 17.2238 25.8662 17.2238C26.2143 17.2238 26.5166 17.4633 26.5963 17.8021L27.6736 22.3846H30.0186C30.4328 22.3846 30.7686 22.7204 30.7686 23.1346C30.7686 23.5488 30.4328 23.8846 30.0186 23.8846H27.0794C26.7313 23.8846 26.429 23.6451 26.3493 23.3063L25.8662 21.251L24.8389 25.6206C24.7594 25.959 24.4577 26.1984 24.1101 26.199C23.7625 26.1996 23.4601 25.9613 23.3793 25.6232L22.8904 23.5754L21.765 28.3625C21.6854 28.7013 21.383 28.9409 21.0349 28.9409C20.6868 28.9409 20.3845 28.7013 20.3048 28.3625L17.3413 15.7564L15.69 22.7807C15.6113 23.1153 15.3152 23.3537 14.9715 23.359C14.6278 23.3644 14.3245 23.1354 14.2355 22.8034L13.586 20.3819L13.1768 22.1577C13.0984 22.4981 12.7953 22.7393 12.446 22.7393H9.98242C9.56821 22.7393 9.23242 22.4035 9.23242 21.9893C9.23242 21.5751 9.56821 21.2393 9.98242 21.2393H11.8491L12.8001 17.1128C12.8774 16.7773 13.1733 16.5375 13.5176 16.5313C13.8619 16.5252 14.1661 16.7543 14.2553 17.0869L14.912 19.5354L16.6112 12.3075C16.6908 11.9686 16.9932 11.7291 17.3413 11.7291Z" fill="#3C94A8"/>
</svg>
