<svg width="40" height="40" viewBox="0 0 40 40" fill="none" xmlns="http://www.w3.org/2000/svg">
<mask id="mask0_3145_3047" style="mask-type:alpha" maskUnits="userSpaceOnUse" x="0" y="0" width="40" height="40">
<path fill-rule="evenodd" clip-rule="evenodd" d="M20 40C31.0457 40 40 31.0457 40 20C40 8.9543 31.0457 0 20 0C8.9543 0 0 8.9543 0 20C0 31.0457 8.9543 40 20 40Z" fill="white"/>
</mask>
<g mask="url(#mask0_3145_3047)">
<rect width="40" height="40" fill="#3C94A8" fill-opacity="0.1"/>
</g>
<path fill-rule="evenodd" clip-rule="evenodd" d="M18.6035 11.5602C18.6035 10.7832 19.2334 10.1533 20.0104 10.1533C20.7874 10.1533 21.4173 10.7832 21.4173 11.5602C21.4173 12.3372 20.7874 12.9671 20.0104 12.9671C19.2334 12.9671 18.6035 12.3372 18.6035 11.5602ZM20.0104 8.65332C18.405 8.65332 17.1035 9.95477 17.1035 11.5602C17.1035 13.1656 18.405 14.4671 20.0104 14.4671C21.6158 14.4671 22.9173 13.1656 22.9173 11.5602C22.9173 9.95477 21.6158 8.65332 20.0104 8.65332ZM10.9199 16.7757C10.9199 15.7553 11.7471 14.9281 12.7676 14.9281H27.2313C28.2518 14.9281 29.079 15.7553 29.079 16.7757C29.079 17.7962 28.2518 18.6234 27.2313 18.6234H23.0337V21.4415H24.406C25.7736 21.4415 26.8823 22.5502 26.8823 23.9179V28.2806C26.8823 29.4244 25.9551 30.3516 24.8113 30.3516C23.6675 30.3516 22.7402 29.4244 22.7402 28.2806V25.5791H20.2848L15.7423 29.7743C14.913 30.5403 13.6197 30.4889 12.8537 29.6595C12.0877 28.8302 12.1391 27.5369 12.9685 26.7709L17.0126 23.0359C16.985 22.8711 16.9706 22.7017 16.9706 22.5291V18.6234H12.7676C11.7471 18.6234 10.9199 17.7962 10.9199 16.7757ZM17.6691 24.4715C17.9031 24.7545 18.1873 24.9946 18.508 25.1781L14.7246 28.6724C14.5038 28.8763 14.1596 28.8626 13.9557 28.6418C13.7517 28.421 13.7654 28.0768 13.9862 27.8728L17.6691 24.4715ZM21.5337 21.4415V17.9027C21.5337 17.4723 21.8826 17.1234 22.313 17.1234H27.2313C27.4233 17.1234 27.579 16.9677 27.579 16.7757C27.579 16.5838 27.4233 16.4281 27.2313 16.4281H12.7676C12.5756 16.4281 12.4199 16.5837 12.4199 16.7757C12.4199 16.9677 12.5756 17.1234 12.7676 17.1234H17.6952C18.1235 17.1234 18.4706 17.4706 18.4706 17.8988V22.5291C18.4706 23.3851 19.1646 24.0791 20.0206 24.0791H23.488C23.9035 24.0791 24.2402 24.4158 24.2402 24.8313V28.2806C24.2402 28.5959 24.4959 28.8516 24.8113 28.8516C25.1267 28.8516 25.3823 28.5959 25.3823 28.2806V23.9179C25.3823 23.3786 24.9452 22.9415 24.406 22.9415H20.3051C19.8909 22.9415 19.5551 22.6057 19.5551 22.1915C19.5551 21.7773 19.8909 21.4415 20.3051 21.4415H21.5337Z" fill="#3C94A8"/>
</svg>
