<svg width="40" height="40" viewBox="0 0 40 40" fill="none" xmlns="http://www.w3.org/2000/svg">
<mask id="mask0_3145_2230" style="mask-type:alpha" maskUnits="userSpaceOnUse" x="0" y="0" width="40" height="40">
<path fill-rule="evenodd" clip-rule="evenodd" d="M20 40C31.0457 40 40 31.0457 40 20C40 8.9543 31.0457 0 20 0C8.9543 0 0 8.9543 0 20C0 31.0457 8.9543 40 20 40Z" fill="white"/>
</mask>
<g mask="url(#mask0_3145_2230)">
<rect width="40" height="40" fill="#3C94A8" fill-opacity="0.1"/>
</g>
<path fill-rule="evenodd" clip-rule="evenodd" d="M19.9499 10.25C14.6958 10.25 10.4424 14.5034 10.4424 19.7575C10.4424 20.3101 10.4927 20.8124 10.5925 21.3614L10.5934 21.3657C10.6676 21.7368 11.0341 22.0249 11.4644 21.9532L11.4723 21.9516C11.8434 21.8774 12.1317 21.5108 12.06 21.0806L12.0571 21.0675C11.9666 20.6606 11.9656 20.2017 11.9656 19.7575C11.9656 15.3155 15.5567 11.7245 19.9986 11.7245C24.4406 11.7245 28.0316 15.3155 28.0316 19.7575C28.0316 20.1907 27.992 20.5839 27.9475 21.0254L27.9475 21.0255L27.9365 21.135C27.9015 21.3319 27.9631 21.527 28.0614 21.6746C28.162 21.8255 28.3234 21.96 28.5249 22.0003L28.5492 22.0052H28.6714C29.0252 22.0052 29.33 21.7835 29.4038 21.4144C29.5049 20.9091 29.5549 20.3566 29.5549 19.8062L29.5548 19.8015C29.4548 14.5042 25.2056 10.25 19.9499 10.25ZM20.0004 13.9531C16.7928 13.9531 14.1472 16.5987 14.1472 19.8063C14.1472 20.0093 14.216 20.1979 14.3544 20.3364C14.4929 20.4748 14.6815 20.5436 14.8845 20.5436C15.0874 20.5436 15.276 20.4748 15.4145 20.3364C15.5529 20.1979 15.6217 20.0093 15.6217 19.8063C15.6217 17.4108 17.6049 15.4276 20.0004 15.4276C22.396 15.4276 24.3792 17.4108 24.3792 19.8063C24.3792 20.0093 24.4479 20.1979 24.5864 20.3364C24.7249 20.4748 24.9134 20.5436 25.1164 20.5436C25.3194 20.5436 25.508 20.4748 25.6464 20.3364C25.7849 20.1979 25.8537 20.0093 25.8537 19.8063C25.8537 16.5987 23.2081 13.9531 20.0004 13.9531ZM18.4408 19.0691C17.6112 19.0691 16.8517 19.6235 16.7319 20.4017L15.6084 28.2665V30.0383C15.6084 31.0047 16.3537 31.75 17.3201 31.75H22.7284C23.6948 31.75 24.4401 31.0047 24.4401 30.0383V28.2665L23.317 20.4044L23.3166 20.4017C23.1969 19.6235 22.4374 19.0691 21.6078 19.0691H18.4408ZM17.1712 27.5957L18.2009 20.5751C18.2076 20.5689 18.2184 20.5603 18.2347 20.5506C18.288 20.5186 18.3655 20.4949 18.441 20.4949H21.608C21.6836 20.4949 21.7611 20.5186 21.8144 20.5506C21.8306 20.5603 21.8415 20.5689 21.8481 20.5751L22.831 27.5957H17.1712ZM17.0837 30.0384V29.0703H22.9665V30.0384C22.9665 30.1278 22.9378 30.1828 22.9057 30.2149C22.8736 30.2469 22.8186 30.2756 22.7292 30.2756H17.3209C17.2315 30.2756 17.1765 30.2469 17.1444 30.2149C17.1124 30.1828 17.0837 30.1278 17.0837 30.0384Z" fill="#3C94A8"/>
</svg>
