<svg width="40" height="40" viewBox="0 0 40 40" fill="none" xmlns="http://www.w3.org/2000/svg">
<mask id="mask0_3145_2361" style="mask-type:alpha" maskUnits="userSpaceOnUse" x="0" y="0" width="40" height="40">
<path fill-rule="evenodd" clip-rule="evenodd" d="M20 40C31.0457 40 40 31.0457 40 20C40 8.9543 31.0457 0 20 0C8.9543 0 0 8.9543 0 20C0 31.0457 8.9543 40 20 40Z" fill="white"/>
</mask>
<g mask="url(#mask0_3145_2361)">
<rect width="40" height="40" fill="#3C94A8" fill-opacity="0.1"/>
</g>
<path fill-rule="evenodd" clip-rule="evenodd" d="M20.9104 19.0899C19.0578 18.7635 17.6504 17.1461 17.6504 15.1999C17.6504 13.0184 19.4189 11.2499 21.6004 11.2499H23.2737C23.5708 11.2499 23.8619 11.1697 24.1164 11.0185L25.8427 9.09848C26.1196 8.79046 26.5938 8.76526 26.9018 9.04219C27.2098 9.31913 27.235 9.79334 26.9581 10.1014L25.0996 12.1685L25.021 12.2209C24.5036 12.5658 23.8956 12.7499 23.2737 12.7499H21.6004C20.2473 12.7499 19.1504 13.8468 19.1504 15.1999C19.1504 16.553 20.2473 17.6499 21.6004 17.6499C22.0146 17.6499 22.3504 17.9857 22.3504 18.3999C22.3504 18.4 22.3504 18.4 22.3504 18.4C22.3504 18.4001 22.3504 18.4001 22.3504 18.4001C22.3504 19.7532 23.4473 20.8501 24.8004 20.8501C26.1535 20.8501 27.2504 19.7532 27.2504 18.4001V16.7268C27.2504 16.1049 27.4345 15.4969 27.7794 14.9795L27.8318 14.9009L29.8989 13.0424C30.207 12.7655 30.6812 12.7907 30.9581 13.0987C31.235 13.4067 31.2098 13.8809 30.9018 14.1578L28.9818 15.8841C28.8306 16.1386 28.7504 16.4297 28.7504 16.7268V18.4001C28.7504 20.5816 26.9819 22.3501 24.8004 22.3501C22.8541 22.3501 21.2367 20.9425 20.9104 19.0899ZM12.7503 21.5999C12.7503 20.2468 13.8473 19.1499 15.2003 19.1499C16.5534 19.1499 17.6503 20.2468 17.6503 21.5999V21.6001C17.6503 22.0143 17.9861 22.3501 18.4003 22.3501C19.7534 22.3501 20.8503 23.447 20.8503 24.8001C20.8503 26.1532 19.7534 27.2501 18.4003 27.2501H16.727C16.1051 27.2501 15.4971 27.4342 14.9797 27.7792L14.9011 27.8315L13.0426 29.8987C12.7657 30.2067 12.7909 30.6809 13.0989 30.9578C13.4069 31.2348 13.8811 31.2096 14.1581 30.9016L15.8843 28.9815C16.1388 28.8303 16.4299 28.7501 16.727 28.7501H18.4003C20.5819 28.7501 22.3503 26.9816 22.3503 24.8001C22.3503 22.854 20.9429 21.2365 19.0903 20.9102C18.7641 19.0575 17.1466 17.6499 15.2003 17.6499C13.0188 17.6499 11.2503 19.4184 11.2503 21.5999V23.2733C11.2503 23.5704 11.1701 23.8614 11.0189 24.116L9.09891 25.8422C8.79089 26.1191 8.76568 26.5933 9.04262 26.9014C9.31956 27.2094 9.79376 27.2346 10.1018 26.9576L12.1689 25.0991L12.2213 25.0206C12.5663 24.5031 12.7503 23.8951 12.7503 23.2733V21.5999Z" fill="#3C94A8"/>
</svg>
