<svg width="40" height="40" viewBox="0 0 40 40" fill="none" xmlns="http://www.w3.org/2000/svg">
<mask id="mask0_3145_2482" style="mask-type:alpha" maskUnits="userSpaceOnUse" x="0" y="0" width="40" height="40">
<path fill-rule="evenodd" clip-rule="evenodd" d="M20 40C31.0457 40 40 31.0457 40 20C40 8.9543 31.0457 0 20 0C8.9543 0 0 8.9543 0 20C0 31.0457 8.9543 40 20 40Z" fill="white"/>
</mask>
<g mask="url(#mask0_3145_2482)">
<rect width="40" height="40" fill="#3C94A8" fill-opacity="0.1"/>
</g>
<path fill-rule="evenodd" clip-rule="evenodd" d="M22.9435 8.79558C23.0581 8.39753 23.4737 8.16774 23.8717 8.28233L23.8734 8.28281L23.8759 8.28357L23.8839 8.28589L23.9105 8.29386C23.9329 8.30064 23.9645 8.31038 24.0044 8.32314C24.0843 8.34864 24.1978 8.38623 24.3381 8.4363C24.6182 8.53627 25.0075 8.68682 25.4506 8.89123C26.3269 9.29549 27.4586 9.9307 28.3638 10.836C29.2691 11.7412 29.9043 12.8729 30.3086 13.7492C30.513 14.1923 30.6635 14.5816 30.7635 14.8617C30.8136 15.002 30.8512 15.1155 30.8767 15.1954C30.8894 15.2353 30.8992 15.2669 30.906 15.2893L30.9139 15.3159L30.9162 15.3239L30.9175 15.3281C31.0321 15.7262 30.8023 16.1417 30.4042 16.2563C30.0064 16.3709 29.5909 16.1407 29.476 15.7431L29.4753 15.7406L29.4703 15.7241C29.4656 15.7085 29.4581 15.6841 29.4477 15.6515C29.4269 15.5863 29.3947 15.4889 29.3508 15.3659C29.2628 15.1194 29.1288 14.7726 28.9465 14.3775C28.5774 13.5775 28.031 12.6245 27.3032 11.8966C26.5753 11.1688 25.6223 10.6224 24.8223 10.2533C24.4272 10.071 24.0804 9.93698 23.8339 9.84902C23.7109 9.80512 23.6135 9.77292 23.5483 9.75211C23.5157 9.74171 23.4913 9.73418 23.4757 9.72947L23.4592 9.72452L23.4565 9.72371C23.0586 9.60901 22.8289 9.19354 22.9435 8.79558ZM22.7555 12.3438L22.7664 12.3469C22.7765 12.3498 22.793 12.3546 22.8153 12.3613C22.8598 12.3747 22.9272 12.3958 23.0128 12.4249C23.1844 12.4833 23.4265 12.5728 23.7018 12.6956C24.2629 12.9458 24.9144 13.3133 25.4009 13.7997C25.8874 14.2862 26.2548 14.9377 26.505 15.4988C26.6278 15.7741 26.7173 16.0162 26.7757 16.1878C26.8048 16.2734 26.8259 16.3408 26.8393 16.3853C26.8461 16.4076 26.8508 16.4241 26.8537 16.4342L26.8566 16.4445L26.857 16.4457C26.9654 16.845 27.3768 17.0812 27.7763 16.9733C28.1762 16.8653 28.4128 16.4536 28.3048 16.0537L28.3044 16.0521L28.3038 16.0499L28.302 16.0435L28.2962 16.0228L28.288 15.9946L28.2754 15.952C28.2574 15.8924 28.231 15.8084 28.1959 15.705C28.1258 15.4988 28.0199 15.2128 27.875 14.8879C27.5898 14.2484 27.1324 13.4099 26.4615 12.7391C25.7907 12.0682 24.9522 11.6109 24.3128 11.3257C23.9878 11.1807 23.7019 11.0749 23.4956 11.0047C23.3922 10.9696 23.3082 10.9432 23.2486 10.9252C23.2188 10.9162 23.195 10.9093 23.1778 10.9044L23.1572 10.8986L23.1507 10.8968L23.1485 10.8962L23.1472 10.8959C22.7474 10.7879 22.3353 11.0244 22.2273 11.4243C22.1193 11.8241 22.3558 12.2357 22.7555 12.3438ZM20.8733 14.9826C20.2855 14.3949 19.3326 14.3949 18.7449 14.9826L18.6102 15.1173L24.0438 20.5508L24.1785 20.4162C24.7662 19.8284 24.7662 18.8755 24.1785 18.2878L20.8733 14.9826ZM17.5049 18.6388C18.1124 18.0314 18.2084 17.0812 17.7366 16.365L22.8156 21.4439C22.1098 20.9828 21.1766 21.079 20.5798 21.6758L15.6223 26.6333C14.7785 27.4771 13.4103 27.4771 12.5664 26.6333C11.7225 25.7894 11.7225 24.4212 12.5664 23.5774L17.5049 18.6388ZM17.6842 13.922C18.8578 12.7484 20.7604 12.7484 21.9339 13.922L25.2391 17.2271C26.4126 18.4007 26.4126 20.3033 25.2391 21.4768L24.2413 22.4746C23.6419 23.074 22.7034 23.1685 21.9966 22.7006C21.8844 22.6264 21.7355 22.6414 21.6404 22.7365L16.683 27.6939C15.4504 28.9265 13.5577 29.0964 12.1431 28.2038L10.9317 29.4152C10.6388 29.708 10.164 29.708 9.87107 29.4152C9.57817 29.1223 9.57817 28.6474 9.87107 28.3545L11.0644 27.1611C10.0955 25.7365 10.2426 23.7799 11.5057 22.5167L16.4443 17.5782C16.5486 17.4738 16.5646 17.3102 16.4824 17.1877C16.0008 16.47 16.0942 15.5119 16.7054 14.9008L17.6842 13.922Z" fill="#3C94A8"/>
</svg>
