<svg width="7" height="12" viewBox="0 0 7 12" fill="none" xmlns="http://www.w3.org/2000/svg">
<g clip-path="url(#clip0_3266_9173)">
<path fill-rule="evenodd" clip-rule="evenodd" d="M6.50982 10.6992C6.80272 10.9921 6.80272 11.4669 6.50982 11.7598C6.21693 12.0527 5.74206 12.0527 5.44916 11.7598L0.21967 6.53033C-0.0732236 6.23744 -0.0732236 5.76256 0.21967 5.46967L5.44916 0.240178C5.74206 -0.0527153 6.21693 -0.0527153 6.50982 0.240178C6.80272 0.533072 6.80272 1.00794 6.50982 1.30084L1.81066 6L6.50982 10.6992Z" fill="#9E9D9D"/>
<mask id="mask0_3266_9173" style="mask-type:alpha" maskUnits="userSpaceOnUse" x="0" y="0" width="7" height="12">
<path fill-rule="evenodd" clip-rule="evenodd" d="M6.50982 10.6992C6.80272 10.9921 6.80272 11.4669 6.50982 11.7598C6.21693 12.0527 5.74206 12.0527 5.44916 11.7598L0.21967 6.53033C-0.0732236 6.23744 -0.0732236 5.76256 0.21967 5.46967L5.44916 0.240178C5.74206 -0.0527153 6.21693 -0.0527153 6.50982 0.240178C6.80272 0.533072 6.80272 1.00794 6.50982 1.30084L1.81066 6L6.50982 10.6992Z" fill="white"/>
</mask>
<g mask="url(#mask0_3266_9173)">
</g>
</g>
<defs>
<clipPath id="clip0_3266_9173">
<rect width="6.72949" height="11.959" fill="white" transform="translate(6.72949 11.9795) rotate(-180)"/>
</clipPath>
</defs>
</svg>
