<svg width="130" height="130" viewBox="0 0 130 130" fill="none" xmlns="http://www.w3.org/2000/svg">
<mask id="mask0_71_32397" style="mask-type:luminance" maskUnits="userSpaceOnUse" x="30" y="101" width="9" height="10">
<path fill-rule="evenodd" clip-rule="evenodd" d="M32.9311 109.892C32.2548 109.506 31.7221 108.976 31.3313 108.301C30.9404 107.629 30.745 106.886 30.745 106.072C30.745 105.26 30.9404 104.515 31.3313 103.843C31.7221 103.171 32.2548 102.64 32.9311 102.249C33.6056 101.863 34.3509 101.667 35.1689 101.667C35.7426 101.667 36.3074 101.785 36.8632 102.024C37.4197 102.262 37.8902 102.58 38.2701 102.977L37.9931 103.242C37.7976 103.437 37.5809 103.536 37.3449 103.536C37.2242 103.536 37.1104 103.507 37.0032 103.445C36.741 103.263 36.4536 103.117 36.1375 103.011C35.8199 102.908 35.4977 102.857 35.1689 102.857C34.5719 102.857 34.0264 102.999 33.5343 103.28C33.0408 103.563 32.6517 103.95 32.3643 104.442C32.0782 104.932 31.9346 105.475 31.9346 106.072C31.9346 106.669 32.0782 107.213 32.3643 107.702C32.6517 108.196 33.0408 108.583 33.5343 108.864C34.0264 109.145 34.5719 109.287 35.1689 109.287C35.4997 109.287 35.8259 109.233 36.1461 109.128C36.4639 109.023 36.756 108.87 37.0204 108.675C37.1317 108.606 37.2584 108.574 37.3984 108.574C37.5099 108.574 37.6217 108.598 37.7315 108.645C37.8427 108.692 37.9439 108.759 38.0365 108.842L38.3176 109.113C37.9329 109.525 37.4587 109.854 36.898 110.101C36.3355 110.348 35.7578 110.473 35.1689 110.473C34.3509 110.473 33.6056 110.279 32.9311 109.892Z" fill="white"/>
</mask>
<g mask="url(#mask0_71_32397)">
<path fill-rule="evenodd" clip-rule="evenodd" d="M32.9311 109.892C32.2548 109.506 31.7221 108.976 31.3313 108.301C30.9404 107.629 30.745 106.886 30.745 106.072C30.745 105.26 30.9404 104.515 31.3313 103.843C31.7221 103.171 32.2548 102.64 32.9311 102.249C33.6056 101.863 34.3509 101.667 35.1689 101.667C35.7426 101.667 36.3074 101.785 36.8632 102.024C37.4197 102.262 37.8902 102.58 38.2701 102.977L37.9931 103.242C37.7976 103.437 37.5809 103.536 37.3449 103.536C37.2242 103.536 37.1104 103.507 37.0032 103.445C36.741 103.263 36.4536 103.117 36.1375 103.011C35.8199 102.908 35.4977 102.857 35.1689 102.857C34.5719 102.857 34.0264 102.999 33.5343 103.28C33.0408 103.563 32.6517 103.95 32.3643 104.442C32.0782 104.932 31.9346 105.475 31.9346 106.072C31.9346 106.669 32.0782 107.213 32.3643 107.702C32.6517 108.196 33.0408 108.583 33.5343 108.864C34.0264 109.145 34.5719 109.287 35.1689 109.287C35.4997 109.287 35.8259 109.233 36.1461 109.128C36.4639 109.023 36.756 108.87 37.0204 108.675C37.1317 108.606 37.2584 108.574 37.3984 108.574C37.5099 108.574 37.6217 108.598 37.7315 108.645C37.8427 108.692 37.9439 108.759 38.0365 108.842L38.3176 109.113C37.9329 109.525 37.4587 109.854 36.898 110.101C36.3355 110.348 35.7578 110.473 35.1689 110.473C34.3509 110.473 33.6056 110.279 32.9311 109.892Z" fill="url(#paint0_linear_71_32397)"/>
</g>
<mask id="mask1_71_32397" style="mask-type:luminance" maskUnits="userSpaceOnUse" x="45" y="101" width="6" height="10">
<path fill-rule="evenodd" clip-rule="evenodd" d="M45.7545 101.774H46.9447V109.264H50.6814V110.366H45.7545V101.774Z" fill="white"/>
</mask>
<g mask="url(#mask1_71_32397)">
<path fill-rule="evenodd" clip-rule="evenodd" d="M45.7545 101.774H46.9447V109.264H50.6814V110.366H45.7545V101.774Z" fill="url(#paint1_linear_71_32397)"/>
</g>
<mask id="mask2_71_32397" style="mask-type:luminance" maskUnits="userSpaceOnUse" x="58" y="101" width="2" height="10">
<path fill-rule="evenodd" clip-rule="evenodd" d="M58.0655 101.781H59.2548V110.366H58.0655V101.781Z" fill="white"/>
</mask>
<g mask="url(#mask2_71_32397)">
<path fill-rule="evenodd" clip-rule="evenodd" d="M58.0655 110.366H59.2548V101.781H58.0655V110.366Z" fill="url(#paint2_linear_71_32397)"/>
</g>
<mask id="mask3_71_32397" style="mask-type:luminance" maskUnits="userSpaceOnUse" x="67" y="101" width="8" height="10">
<path fill-rule="evenodd" clip-rule="evenodd" d="M74.5463 101.774V110.366H73.6245C73.5582 110.366 73.4834 110.339 73.4078 110.288C73.3331 110.238 73.2661 110.174 73.21 110.093L68.5887 103.289H68.5582C68.6577 103.542 68.7088 103.811 68.7088 104.094V110.366H67.5192V101.774H68.4384C68.6059 101.774 68.7496 101.8 68.8675 101.857C68.9856 101.91 69.0934 102.006 69.1877 102.148L73.5472 108.529H73.5668C73.4877 108.366 73.436 108.218 73.4061 108.083C73.3756 107.949 73.3604 107.814 73.3604 107.676V101.774H74.5463Z" fill="white"/>
</mask>
<g mask="url(#mask3_71_32397)">
<path fill-rule="evenodd" clip-rule="evenodd" d="M74.5463 101.774V110.366H73.6245C73.5582 110.366 73.4834 110.339 73.4078 110.288C73.3331 110.238 73.2661 110.174 73.21 110.093L68.5887 103.289H68.5582C68.6577 103.542 68.7088 103.811 68.7088 104.094V110.366H67.5192V101.774H68.4384C68.6059 101.774 68.7496 101.8 68.8675 101.857C68.9856 101.91 69.0934 102.006 69.1877 102.148L73.5472 108.529H73.5668C73.4877 108.366 73.436 108.218 73.4061 108.083C73.3756 107.949 73.3604 107.814 73.3604 107.676V101.774H74.5463Z" fill="url(#paint3_linear_71_32397)"/>
</g>
<mask id="mask4_71_32397" style="mask-type:luminance" maskUnits="userSpaceOnUse" x="82" y="101" width="2" height="10">
<path fill-rule="evenodd" clip-rule="evenodd" d="M82.8081 101.781H83.9983V110.366H82.8081V101.781Z" fill="white"/>
</mask>
<g mask="url(#mask4_71_32397)">
<path fill-rule="evenodd" clip-rule="evenodd" d="M82.8081 110.366H83.9983V101.781H82.8081V110.366Z" fill="url(#paint4_linear_71_32397)"/>
</g>
<mask id="mask5_71_32397" style="mask-type:luminance" maskUnits="userSpaceOnUse" x="91" y="101" width="9" height="10">
<path fill-rule="evenodd" clip-rule="evenodd" d="M93.9117 109.892C93.2371 109.506 92.7045 108.976 92.3136 108.301C91.9227 107.629 91.7273 106.886 91.7273 106.072C91.7273 105.26 91.9227 104.515 92.3136 103.843C92.7045 103.171 93.2371 102.64 93.9117 102.249C94.588 101.863 95.3332 101.667 96.1495 101.667C96.7249 101.667 97.2874 101.785 97.8462 102.024C98.402 102.262 98.8728 102.58 99.2507 102.977L98.9756 103.242C98.7802 103.437 98.5635 103.536 98.3272 103.536C98.2068 103.536 98.091 103.507 97.9858 103.445C97.724 103.263 97.436 103.117 97.1181 103.011C96.8022 102.908 96.4777 102.857 96.1495 102.857C95.5542 102.857 95.0087 102.999 94.515 103.28C94.0231 103.563 93.6323 103.95 93.3468 104.442C93.0612 104.932 92.9169 105.475 92.9169 106.072C92.9169 106.669 93.0612 107.213 93.3468 107.702C93.6323 108.196 94.0231 108.583 94.515 108.864C95.0087 109.145 95.5542 109.287 96.1495 109.287C96.482 109.287 96.8089 109.233 97.1267 109.128C97.4463 109.023 97.7366 108.87 98.0008 108.675C98.1148 108.606 98.2413 108.574 98.3807 108.574C98.4922 108.574 98.6043 108.598 98.7138 108.645C98.8234 108.692 98.9245 108.759 99.0164 108.842L99.3001 109.113C98.9153 109.525 98.4428 109.854 97.8803 110.101C97.3155 110.348 96.7401 110.473 96.1495 110.473C95.3332 110.473 94.588 110.279 93.9117 109.892Z" fill="white"/>
</mask>
<g mask="url(#mask5_71_32397)">
<path fill-rule="evenodd" clip-rule="evenodd" d="M93.9117 109.892C93.2371 109.506 92.7045 108.976 92.3136 108.301C91.9227 107.629 91.7273 106.886 91.7273 106.072C91.7273 105.26 91.9227 104.515 92.3136 103.843C92.7045 103.171 93.2371 102.64 93.9117 102.249C94.588 101.863 95.3332 101.667 96.1495 101.667C96.7249 101.667 97.2874 101.785 97.8462 102.024C98.402 102.262 98.8728 102.58 99.2507 102.977L98.9756 103.242C98.7802 103.437 98.5635 103.536 98.3272 103.536C98.2068 103.536 98.091 103.507 97.9858 103.445C97.724 103.263 97.436 103.117 97.1181 103.011C96.8022 102.908 96.4777 102.857 96.1495 102.857C95.5542 102.857 95.0087 102.999 94.515 103.28C94.0231 103.563 93.6323 103.95 93.3468 104.442C93.0612 104.932 92.9169 105.475 92.9169 106.072C92.9169 106.669 93.0612 107.213 93.3468 107.702C93.6323 108.196 94.0231 108.583 94.515 108.864C95.0087 109.145 95.5542 109.287 96.1495 109.287C96.482 109.287 96.8089 109.233 97.1267 109.128C97.4463 109.023 97.7366 108.87 98.0008 108.675C98.1148 108.606 98.2413 108.574 98.3807 108.574C98.4922 108.574 98.6043 108.598 98.7138 108.645C98.8234 108.692 98.9245 108.759 99.0164 108.842L99.3001 109.113C98.9153 109.525 98.4428 109.854 97.8803 110.101C97.3155 110.348 96.7401 110.473 96.1495 110.473C95.3332 110.473 94.588 110.279 93.9117 109.892Z" fill="url(#paint5_linear_71_32397)"/>
</g>
<mask id="mask6_71_32397" style="mask-type:luminance" maskUnits="userSpaceOnUse" x="25" y="6" width="80" height="81">
<path fill-rule="evenodd" clip-rule="evenodd" d="M27.1532 6H102.846C103.778 6.17718 104.536 6.84059 104.847 7.71619V7.71791H104.848C104.947 7.99495 105 8.29391 105 8.60489V62.0475C105 63.4411 104.88 64.8059 104.651 66.1342H104.632V66.2476C104.471 67.1595 104.257 68.0525 103.996 68.9262H103.988V68.9517C103.86 69.3778 103.722 69.7992 103.571 70.215H103.559V70.2491C103.043 71.6657 102.396 73.019 101.634 74.2957H101.626V74.3097C101.232 74.9707 100.806 75.6107 100.351 76.2286H100.337V76.2479C98.891 78.2096 97.1523 79.9415 95.1859 81.3825H95.1829V81.3843C94.7761 81.6819 94.3597 81.9689 93.9342 82.2414H93.8947V82.2659C91.8023 83.5985 89.4894 84.6152 87.0233 85.2483H87.022C86.3507 85.4206 85.6675 85.5636 84.9742 85.6781H84.8744V85.6946C84.3581 85.7773 83.8364 85.8437 83.3098 85.893H83.1562V85.9064C82.4617 85.9678 81.7579 86.0002 81.0468 86.0002H27.6523C26.1853 86.0002 25 84.8123 25 83.3476V8.60489C25 7.31071 25.9252 6.23302 27.1532 6ZM81.352 28.2473C81.352 29.0144 81.2489 29.6974 81.0408 30.2983C80.8344 30.8979 80.4734 31.553 79.9644 32.2591L73.9211 40.5763V40.577H73.9205L59.1088 60.961H59.1971C59.7851 60.4324 60.3628 60.0415 60.9235 59.7944C61.4843 59.5497 62.1071 59.4273 62.7963 59.4273H81.0833V67.1266H48.695V63.7052C48.695 62.8979 48.8089 62.1954 49.0365 61.5941C49.2618 60.9949 49.6593 60.3119 50.2285 59.5454L70.9958 30.9626H70.938C70.3451 31.5121 69.7613 31.905 69.1811 32.141C68.6016 32.3772 67.9575 32.5046 67.2507 32.5258H49.6976V24.8265H81.352V28.2473Z" fill="white"/>
</mask>
<g mask="url(#mask6_71_32397)">
<path fill-rule="evenodd" clip-rule="evenodd" d="M27.1532 6H102.846C103.778 6.17718 104.536 6.84059 104.847 7.71619V7.71791H104.848C104.947 7.99495 105 8.29391 105 8.60489V62.0475C105 63.4411 104.88 64.8059 104.651 66.1342H104.632V66.2476C104.471 67.1595 104.257 68.0525 103.996 68.9262H103.988V68.9517C103.86 69.3778 103.722 69.7992 103.571 70.215H103.559V70.2491C103.043 71.6657 102.396 73.019 101.634 74.2957H101.626V74.3097C101.232 74.9707 100.806 75.6107 100.351 76.2286H100.337V76.2479C98.891 78.2096 97.1523 79.9415 95.1859 81.3825H95.1829V81.3843C94.7761 81.6819 94.3597 81.9689 93.9342 82.2414H93.8947V82.2659C91.8023 83.5985 89.4894 84.6152 87.0233 85.2483H87.022C86.3507 85.4206 85.6675 85.5636 84.9742 85.6781H84.8744V85.6946C84.3581 85.7773 83.8364 85.8437 83.3098 85.893H83.1562V85.9064C82.4617 85.9678 81.7579 86.0002 81.0468 86.0002H27.6523C26.1853 86.0002 25 84.8123 25 83.3476V8.60489C25 7.31071 25.9252 6.23302 27.1532 6ZM81.352 28.2473C81.352 29.0144 81.2489 29.6974 81.0408 30.2983C80.8344 30.8979 80.4734 31.553 79.9644 32.2591L73.9211 40.5763V40.577H73.9205L59.1088 60.961H59.1971C59.7851 60.4324 60.3628 60.0415 60.9235 59.7944C61.4843 59.5497 62.1071 59.4273 62.7963 59.4273H81.0833V67.1266H48.695V63.7052C48.695 62.8979 48.8089 62.1954 49.0365 61.5941C49.2618 60.9949 49.6593 60.3119 50.2285 59.5454L70.9958 30.9626H70.938C70.3451 31.5121 69.7613 31.905 69.1811 32.141C68.6016 32.3772 67.9575 32.5046 67.2507 32.5258H49.6976V24.8265H81.352V28.2473Z" fill="url(#paint6_linear_71_32397)"/>
</g>
<defs>
<linearGradient id="paint0_linear_71_32397" x1="-54.6555" y1="77.6104" x2="27.2513" y2="168.938" gradientUnits="userSpaceOnUse">
<stop stop-color="#56C8D4"/>
<stop offset="1" stop-color="#2B7A92"/>
</linearGradient>
<linearGradient id="paint1_linear_71_32397" x1="-32.0218" y1="92.3185" x2="64.1168" y2="139.999" gradientUnits="userSpaceOnUse">
<stop stop-color="#56C8D4"/>
<stop offset="1" stop-color="#2B7A92"/>
</linearGradient>
<linearGradient id="paint2_linear_71_32397" x1="-6.76809" y1="163.865" x2="70.8261" y2="171.189" gradientUnits="userSpaceOnUse">
<stop stop-color="#56C8D4"/>
<stop offset="1" stop-color="#2B7A92"/>
</linearGradient>
<linearGradient id="paint3_linear_71_32397" x1="-27.5064" y1="63.0999" x2="58.1233" y2="149.472" gradientUnits="userSpaceOnUse">
<stop stop-color="#56C8D4"/>
<stop offset="1" stop-color="#2B7A92"/>
</linearGradient>
<linearGradient id="paint4_linear_71_32397" x1="10.4158" y1="152.483" x2="88.0063" y2="159.805" gradientUnits="userSpaceOnUse">
<stop stop-color="#56C8D4"/>
<stop offset="1" stop-color="#2B7A92"/>
</linearGradient>
<linearGradient id="paint5_linear_71_32397" x1="-12.2928" y1="49.5055" x2="69.5922" y2="140.862" gradientUnits="userSpaceOnUse">
<stop stop-color="#56C8D4"/>
<stop offset="1" stop-color="#2B7A92"/>
</linearGradient>
<linearGradient id="paint6_linear_71_32397" x1="24.9296" y1="5.88362" x2="39.3404" y2="61.5078" gradientUnits="userSpaceOnUse">
<stop stop-color="#56C8D4"/>
<stop offset="1" stop-color="#2B7A92"/>
</linearGradient>
</defs>
</svg>
