<svg width="16" height="17" viewBox="0 0 16 17" fill="none" xmlns="http://www.w3.org/2000/svg">
<g opacity="0.6">
<path fill-rule="evenodd" clip-rule="evenodd" d="M8 15.3571C11.7871 15.3571 14.8571 12.2871 14.8571 8.5C14.8571 4.71291 11.7871 1.64286 8 1.64286C4.2129 1.64286 1.14285 4.71291 1.14285 8.5C1.14285 12.2871 4.2129 15.3571 8 15.3571ZM8.68571 5.07143C8.68571 4.69272 8.37871 4.38572 8 4.38572C7.62129 4.38572 7.31428 4.69272 7.31428 5.07143V8.5C7.31428 8.68187 7.38653 8.85628 7.51512 8.98488L9.22941 10.6992C9.4972 10.9669 9.93137 10.9669 10.1992 10.6992C10.4669 10.4314 10.4669 9.9972 10.1992 9.72942L8.68571 8.21597V5.07143Z" fill="#999999"/>
</g>
</svg>
