<svg width="17" height="16" viewBox="0 0 17 16" fill="none" xmlns="http://www.w3.org/2000/svg">
<g opacity="0.6">
<path fill-rule="evenodd" clip-rule="evenodd" d="M8.75021 14.8571C12.5373 14.8571 15.6074 11.7871 15.6074 7.99996C15.6074 4.21287 12.5373 1.14282 8.75021 1.14282C4.96311 1.14282 1.89307 4.21287 1.89307 7.99996C1.89307 11.7871 4.96311 14.8571 8.75021 14.8571ZM9.43592 4.57139C9.43592 4.19268 9.12892 3.88568 8.75021 3.88568C8.3715 3.88568 8.06449 4.19268 8.06449 4.57139V7.99996C8.06449 8.18183 8.13674 8.35624 8.26534 8.48484L9.97962 10.1991C10.2474 10.4669 10.6816 10.4669 10.9494 10.1991C11.2172 9.93134 11.2172 9.49716 10.9494 9.22938L9.43592 7.71593V4.57139Z" fill="#9E9D9D"/>
</g>
</svg>
