<svg width="17" height="16" viewBox="0 0 17 16" fill="none" xmlns="http://www.w3.org/2000/svg">
<g opacity="0.6">
<path fill-rule="evenodd" clip-rule="evenodd" d="M9.77886 5.20154C9.57745 5.38868 9.33553 5.48225 9.0514 5.48225C8.7684 5.48225 8.5242 5.38868 8.32108 5.20154C8.1191 5.0144 8.01697 4.78674 8.01697 4.52086C8.01697 4.25555 8.11967 4.02733 8.32108 3.83847C8.5242 3.64905 8.7684 3.55491 9.0514 3.55491C9.33553 3.55491 9.57802 3.64905 9.77886 3.83847C9.98084 4.02733 10.0813 4.25555 10.0813 4.52086C10.0813 4.78731 9.98084 5.0144 9.77886 5.20154ZM9.85613 11.4076C9.50866 11.5451 9.23251 11.6484 9.0254 11.7208C8.81886 11.7927 8.57865 11.8287 8.30535 11.8287C7.88542 11.8287 7.55849 11.726 7.3257 11.5211C7.09292 11.3163 6.97709 11.0567 6.97709 10.7406C6.97709 10.6185 6.98565 10.493 7.00277 10.3646C7.02045 10.2374 7.04841 10.0936 7.08664 9.93213L7.52083 8.39847C7.55906 8.25126 7.59215 8.11148 7.6184 7.98139C7.64465 7.85016 7.6572 7.72977 7.6572 7.62022C7.6572 7.42509 7.61669 7.28816 7.53624 7.21113C7.45465 7.13411 7.30117 7.09645 7.07237 7.09645C6.96055 7.09645 6.84529 7.113 6.72719 7.1478C6.61022 7.18375 6.50866 7.21627 6.42536 7.24822L6.54004 6.7758C6.82418 6.65997 7.09634 6.5607 7.35594 6.47854C7.61555 6.39524 7.86089 6.35415 8.09196 6.35415C8.50904 6.35415 8.83084 6.45571 9.05735 6.65655C9.28272 6.85796 9.39626 7.11984 9.39626 7.44164C9.39626 7.5084 9.38827 7.62593 9.37287 7.79367C9.35803 7.96199 9.32836 8.11547 9.28671 8.2564L8.85423 9.7855C8.81886 9.90817 8.78747 10.0485 8.75895 10.2054C8.73099 10.3618 8.7173 10.4816 8.7173 10.5626C8.7173 10.7651 8.76237 10.9044 8.85366 10.978C8.94381 11.051 9.10185 11.0887 9.32551 11.0887C9.43164 11.0887 9.54974 11.0698 9.68268 11.0333C9.81505 10.9968 9.9109 10.9643 9.97138 10.9363L9.85613 11.4076ZM8.45233 0.962891C4.73058 0.962891 1.71289 3.98058 1.71289 7.70233C1.71289 11.4241 4.73058 14.4423 8.45233 14.4423C12.1741 14.4423 15.1923 11.4241 15.1923 7.70233C15.1923 3.98058 12.1741 0.962891 8.45233 0.962891Z" fill="#9E9D9D"/>
</g>
</svg>
