<svg width="17" height="16" viewBox="0 0 17 16" fill="none" xmlns="http://www.w3.org/2000/svg">
<g opacity="0.6">
<path fill-rule="evenodd" clip-rule="evenodd" d="M1.39282 7.99996C1.39282 4.21295 4.46295 1.14282 8.24996 1.14282C12.037 1.14282 15.1071 4.21295 15.1071 7.99996C15.1071 11.787 12.037 14.8571 8.24996 14.8571C4.46295 14.8571 1.39282 11.787 1.39282 7.99996ZM7.00321 4.25971C6.83788 4.25971 6.67932 4.32538 6.56242 4.44229C6.44551 4.55919 6.37984 4.71775 6.37984 4.88308V6.75321H5.75646C5.59113 6.75321 5.43257 6.81889 5.31566 6.93579C5.19876 7.0527 5.13308 7.21126 5.13308 7.37659C5.13308 7.54192 5.19876 7.70048 5.31566 7.81738C5.43257 7.93429 5.59113 7.99996 5.75646 7.99996H6.37984V8.62334H5.75646C5.59113 8.62334 5.43257 8.68902 5.31566 8.80592C5.19876 8.92283 5.13308 9.08139 5.13308 9.24672C5.13308 9.41205 5.19876 9.57061 5.31566 9.68751C5.43257 9.80442 5.59113 9.87009 5.75646 9.87009H6.37984V11.1168C6.37984 11.2822 6.44551 11.4407 6.56242 11.5576C6.67932 11.6745 6.83788 11.7402 7.00321 11.7402C7.16854 11.7402 7.3271 11.6745 7.44401 11.5576C7.56091 11.4407 7.62659 11.2822 7.62659 11.1168V9.87009H8.87334C9.03867 9.87009 9.19723 9.80442 9.31414 9.68751C9.43104 9.57061 9.49672 9.41205 9.49672 9.24672C9.49672 9.08139 9.43104 8.92283 9.31414 8.80592C9.19723 8.68902 9.03867 8.62334 8.87334 8.62334H7.62659V7.99996H9.49672C9.99271 7.99996 10.4684 7.80293 10.8191 7.45222C11.1698 7.1015 11.3668 6.62582 11.3668 6.12984C11.3668 5.63385 11.1698 5.15817 10.8191 4.80745C10.4684 4.45674 9.99271 4.25971 9.49672 4.25971H7.00321ZM9.49672 6.75321H7.62659V5.50646H9.49672C9.66205 5.50646 9.82061 5.57214 9.93751 5.68904C10.0544 5.80595 10.1201 5.96451 10.1201 6.12984C10.1201 6.29517 10.0544 6.45372 9.93751 6.57063C9.82061 6.68753 9.66205 6.75321 9.49672 6.75321Z" fill="#9E9D9D"/>
</g>
</svg>
