<svg width="17" height="16" viewBox="0 0 17 16" fill="none" xmlns="http://www.w3.org/2000/svg">
<g opacity="0.6">
<path fill-rule="evenodd" clip-rule="evenodd" d="M15.0549 8.10755C15.0549 11.7538 12.099 14.7097 8.45277 14.7097C4.80648 14.7097 1.85059 11.7538 1.85059 8.10755C1.85059 4.46127 4.80648 1.50537 8.45277 1.50537C12.099 1.50537 15.0549 4.46127 15.0549 8.10755ZM10.8838 12.3427C11.0937 12.4545 11.3352 12.2665 11.2925 12.0247L10.8076 9.27583L12.7016 7.30001C12.8682 7.12619 12.7716 6.82837 12.5381 6.796L9.88399 6.42804L8.66982 3.93704C8.56299 3.71786 8.2618 3.72172 8.16015 3.94356L7.00483 6.46494L4.36001 6.90109C4.12735 6.93946 4.03781 7.23971 4.20851 7.40918L6.14875 9.33552L5.72847 12.0963C5.69149 12.3392 5.93736 12.5209 6.1445 12.4038L8.49892 11.0725L10.8838 12.3427Z" fill="#9E9D9D"/>
</g>
</svg>
