<svg width="16" height="17" viewBox="0 0 16 17" fill="none" xmlns="http://www.w3.org/2000/svg">
<g opacity="0.6">
<path fill-rule="evenodd" clip-rule="evenodd" d="M8 15.1667C11.6819 15.1667 14.6667 12.1819 14.6667 8.5C14.6667 4.8181 11.6819 1.83333 8 1.83333C4.3181 1.83333 1.33333 4.8181 1.33333 8.5C1.33333 12.1819 4.3181 15.1667 8 15.1667ZM7.33333 5.83333C7.33333 5.46514 7.6318 5.16666 8 5.16666C8.36819 5.16666 8.66666 5.46514 8.66666 5.83333C8.66666 6.20152 8.36819 6.5 8 6.5C7.6318 6.5 7.33333 6.20152 7.33333 5.83333ZM7.33333 8.5C7.33333 8.13181 7.6318 7.83333 8 7.83333C8.36819 7.83333 8.66666 8.13181 8.66666 8.5V11.1667C8.66666 11.5349 8.36819 11.8333 8 11.8333C7.6318 11.8333 7.33333 11.5349 7.33333 11.1667V8.5Z" fill="#999999"/>
</g>
</svg>
