<svg width="16" height="17" viewBox="0 0 16 17" fill="none" xmlns="http://www.w3.org/2000/svg">
<g opacity="0.6">
<path fill-rule="evenodd" clip-rule="evenodd" d="M1.14285 8.5C1.14285 4.71298 4.21298 1.64285 8 1.64285C11.787 1.64285 14.8571 4.71298 14.8571 8.5C14.8571 12.287 11.787 15.3571 8 15.3571C4.21298 15.3571 1.14285 12.287 1.14285 8.5ZM6.75324 4.75974C6.58791 4.75974 6.42935 4.82541 6.31245 4.94232C6.19554 5.05922 6.12987 5.21778 6.12987 5.38311V7.25324H5.50649C5.34116 7.25324 5.1826 7.31892 5.0657 7.43583C4.94879 7.55273 4.88311 7.71129 4.88311 7.87662C4.88311 8.04195 4.94879 8.20051 5.0657 8.31741C5.1826 8.43432 5.34116 8.5 5.50649 8.5H6.12987V9.12337H5.50649C5.34116 9.12337 5.1826 9.18905 5.0657 9.30595C4.94879 9.42286 4.88311 9.58142 4.88311 9.74675C4.88311 9.91208 4.94879 10.0706 5.0657 10.1875C5.1826 10.3044 5.34116 10.3701 5.50649 10.3701H6.12987V11.6169C6.12987 11.7822 6.19554 11.9408 6.31245 12.0577C6.42935 12.1746 6.58791 12.2403 6.75324 12.2403C6.91857 12.2403 7.07713 12.1746 7.19404 12.0577C7.31094 11.9408 7.37662 11.7822 7.37662 11.6169V10.3701H8.62337C8.7887 10.3701 8.94726 10.3044 9.06417 10.1875C9.18107 10.0706 9.24675 9.91208 9.24675 9.74675C9.24675 9.58142 9.18107 9.42286 9.06417 9.30595C8.94726 9.18905 8.7887 9.12337 8.62337 9.12337H7.37662V8.5H9.24675C9.74274 8.5 10.2184 8.30296 10.5691 7.95225C10.9198 7.60153 11.1169 7.12585 11.1169 6.62987C11.1169 6.13388 10.9198 5.6582 10.5691 5.30748C10.2184 4.95677 9.74274 4.75974 9.24675 4.75974H6.75324ZM9.24675 7.25324H7.37662V6.00649H9.24675C9.41208 6.00649 9.57064 6.07217 9.68754 6.18907C9.80445 6.30598 9.87012 6.46454 9.87012 6.62987C9.87012 6.7952 9.80445 6.95375 9.68754 7.07066C9.57064 7.18757 9.41208 7.25324 9.24675 7.25324Z" fill="#999999"/>
</g>
</svg>
