<svg width="16" height="17" viewBox="0 0 16 17" fill="none" xmlns="http://www.w3.org/2000/svg">
<g opacity="0.6">
<path fill-rule="evenodd" clip-rule="evenodd" d="M1.14285 8.5C1.14285 4.71299 4.21298 1.64286 8 1.64286C11.787 1.64286 14.8571 4.71299 14.8571 8.5C14.8571 12.287 11.787 15.3571 8 15.3571C4.21298 15.3571 1.14285 12.287 1.14285 8.5ZM6.75324 4.75974C6.58791 4.75974 6.42935 4.82542 6.31245 4.94233C6.19554 5.05923 6.12987 5.21779 6.12987 5.38312V7.25325H5.50649C5.34116 7.25325 5.1826 7.31893 5.0657 7.43583C4.94879 7.55274 4.88311 7.7113 4.88311 7.87663C4.88311 8.04196 4.94879 8.20051 5.0657 8.31742C5.1826 8.43433 5.34116 8.5 5.50649 8.5H6.12987V9.12338H5.50649C5.34116 9.12338 5.1826 9.18906 5.0657 9.30596C4.94879 9.42287 4.88311 9.58143 4.88311 9.74676C4.88311 9.91209 4.94879 10.0706 5.0657 10.1875C5.1826 10.3045 5.34116 10.3701 5.50649 10.3701H6.12987V11.6169C6.12987 11.7822 6.19554 11.9408 6.31245 12.0577C6.42935 12.1746 6.58791 12.2403 6.75324 12.2403C6.91857 12.2403 7.07713 12.1746 7.19404 12.0577C7.31094 11.9408 7.37662 11.7822 7.37662 11.6169V10.3701H8.62337C8.7887 10.3701 8.94726 10.3045 9.06417 10.1875C9.18107 10.0706 9.24675 9.91209 9.24675 9.74676C9.24675 9.58143 9.18107 9.42287 9.06417 9.30596C8.94726 9.18906 8.7887 9.12338 8.62337 9.12338H7.37662V8.5H9.24675C9.74274 8.5 10.2184 8.30297 10.5691 7.95225C10.9198 7.60154 11.1169 7.12586 11.1169 6.62987C11.1169 6.13388 10.9198 5.65821 10.5691 5.30749C10.2184 4.95677 9.74274 4.75974 9.24675 4.75974H6.75324ZM9.24675 7.25325H7.37662V6.0065H9.24675C9.41208 6.0065 9.57064 6.07217 9.68754 6.18908C9.80445 6.30599 9.87012 6.46454 9.87012 6.62987C9.87012 6.7952 9.80445 6.95376 9.68754 7.07067C9.57064 7.18757 9.41208 7.25325 9.24675 7.25325Z" fill="#999999"/>
</g>
</svg>
