<svg width="16" height="16" viewBox="0 0 16 16" fill="none" xmlns="http://www.w3.org/2000/svg">
<g opacity="0.6">
<path fill-rule="evenodd" clip-rule="evenodd" d="M9.06026 14.8638C10.7831 13.4527 14 10.3277 14 6.66663C14 3.35292 11.3137 0.666626 8 0.666626C4.68629 0.666626 2 3.35292 2 6.66663C2 10.3277 5.21692 13.4527 6.93974 14.8638C7.56437 15.3754 8.43563 15.3754 9.06026 14.8638ZM8 7.99996C9.10457 7.99996 10 7.10453 10 5.99996C10 4.89539 9.10457 3.99996 8 3.99996C6.89543 3.99996 6 4.89539 6 5.99996C6 7.10453 6.89543 7.99996 8 7.99996Z" fill="#999999"/>
</g>
</svg>
