<svg width="16" height="17" viewBox="0 0 16 17" fill="none" xmlns="http://www.w3.org/2000/svg">
<g opacity="0.6">
<path fill-rule="evenodd" clip-rule="evenodd" d="M9.06026 15.3638C10.7831 13.9528 14 10.8278 14 7.16667C14 3.85296 11.3137 1.16667 8 1.16667C4.68629 1.16667 2 3.85296 2 7.16667C2 10.8278 5.21692 13.9528 6.93974 15.3638C7.56437 15.8754 8.43563 15.8754 9.06026 15.3638ZM8 8.50001C9.10457 8.50001 10 7.60458 10 6.50001C10 5.39544 9.10457 4.50001 8 4.50001C6.89543 4.50001 6 5.39544 6 6.50001C6 7.60458 6.89543 8.50001 8 8.50001Z" fill="#999999"/>
</g>
</svg>
