<svg width="37" height="26" viewBox="0 0 37 26" fill="none" xmlns="http://www.w3.org/2000/svg">
<path fill-rule="evenodd" clip-rule="evenodd" d="M36.69 2C36.69 0.89543 35.7946 0 34.69 0H11.6263C11.033 0 10.4703 0.263403 10.0903 0.719027L0.232031 12.5396C-0.0808192 12.9147 -0.0768936 13.4609 0.241315 13.8315L10.0914 25.3029C10.4714 25.7454 11.0256 26 11.6088 26H34.69C35.7946 26 36.69 25.1046 36.69 24V2ZM11.6263 1H34.69L34.8066 1.00673C35.304 1.06449 35.69 1.48716 35.69 2V24L35.6833 24.1166C35.6255 24.614 35.2029 25 34.69 25H11.6088L11.4849 24.9923C11.2398 24.9617 11.013 24.8411 10.8501 24.6515L1 13.18L10.8583 1.35951L10.9451 1.26787C11.129 1.09676 11.372 1 11.6263 1ZM15.7929 7.54952C16.0012 7.34124 16.3245 7.31809 16.5584 7.48009L16.6415 7.54952L21.5586 12.4667L26.4757 7.54952L26.5588 7.48009C26.7927 7.31809 27.116 7.34124 27.3243 7.54952C27.5586 7.78383 27.5586 8.16373 27.3243 8.39804L22.4071 13.3152L27.2517 18.1598C27.486 18.3941 27.486 18.774 27.2517 19.0083C27.0434 19.2166 26.7201 19.2397 26.4863 19.0777L26.4032 19.0083L21.5586 14.1637L16.714 19.0083L16.6309 19.0777C16.3971 19.2397 16.0738 19.2166 15.8655 19.0083C15.6312 18.774 15.6312 18.3941 15.8655 18.1598L20.7101 13.3152L15.7929 8.39804C15.5586 8.16373 15.5586 7.78383 15.7929 7.54952Z" fill="#151616"/>
</svg>
