<svg width="35" height="38" viewBox="0 0 35 38" fill="none" xmlns="http://www.w3.org/2000/svg">
<path d="M17.5 14.5647C11.3811 14.5647 6.77419 19.1545 6.77419 25.251C6.77419 29.7508 8.38146 33.4696 12.0026 37.3322C12.1048 37.4411 12.2438 37.5 12.3901 37.5C12.5239 37.5 12.6524 37.4505 12.7516 37.3573C12.9659 37.1582 12.9775 36.824 12.7775 36.6108C9.36422 32.9693 7.83496 29.4592 7.83496 25.2511C7.83496 19.6784 11.9067 15.6217 17.5 15.6217C23.3523 15.6217 27.165 19.1035 27.165 24.4697C27.165 24.7619 27.4021 24.9982 27.6954 24.9982C27.9887 24.9982 28.2259 24.7619 28.2259 24.4697C28.2259 18.5384 23.9306 14.5647 17.5 14.5647ZM17.5 9.87651C8.54906 9.87651 2.06861 16.01 2.06861 24.4697C2.06861 26.4277 2.58229 28.2918 3.67773 30.9234C3.78872 31.1917 4.10142 31.3197 4.37038 31.209C4.64088 31.097 4.76942 30.7877 4.65765 30.5185C3.6205 28.0294 3.12938 26.2757 3.12938 24.4697C3.12938 16.5055 9.05129 10.9334 17.5 10.9334C25.6881 10.9334 31.8706 17.0932 31.8706 25.2511C31.8706 27.5451 29.9982 29.4109 27.6954 29.4109C25.4624 29.4109 23.6341 27.6565 23.5254 25.4584L23.5203 25.2511C23.5203 21.7102 21.0541 19.253 17.5 19.253C13.9459 19.253 11.4798 21.7102 11.4798 25.251C11.4798 30.2512 14.3199 34.4595 19.7194 37.4337C19.7999 37.4779 19.8875 37.5 19.9769 37.5C20.1684 37.5 20.3468 37.3973 20.441 37.2268C20.5827 36.9717 20.4898 36.6501 20.2339 36.5092C15.1398 33.7036 12.5405 29.9102 12.5405 25.2511C12.5405 22.1659 14.678 20.3099 17.5 20.3099C20.2457 20.3099 22.3434 22.0669 22.4548 25.0036L22.4594 25.2511C22.4594 28.127 24.8089 30.4677 27.6954 30.4677C30.582 30.4677 32.9314 28.127 32.9314 25.251C32.9314 16.4813 26.3022 9.87651 17.5 9.87651ZM17.5 23.9412C17.2067 23.9412 16.9696 24.1775 16.9696 24.4697C16.9696 30.1494 22.7126 35.156 29.2639 35.156C29.5572 35.156 29.7944 34.9197 29.7944 34.6275C29.7944 34.3353 29.5572 34.0991 29.2639 34.0991C23.2831 34.0991 18.0304 29.6135 18.0304 24.4697C18.0304 24.1775 17.7933 23.9412 17.5 23.9412ZM17.5 5.18827C10.2037 5.18827 3.55678 8.67468 0.566358 14.0559C0.424591 14.311 0.517552 14.6328 0.773039 14.774C1.03062 14.9152 1.35164 14.8233 1.49462 14.5678C4.30671 9.50611 10.5895 6.24521 17.5 6.24521C24.4105 6.24521 30.6933 9.50613 33.5051 14.5673C33.6005 14.7383 33.778 14.8403 33.9695 14.8403C34.0589 14.8403 34.1465 14.8181 34.2263 14.7744C34.4825 14.6328 34.5754 14.3111 34.4336 14.0559C31.4432 8.67468 24.7962 5.18827 17.5 5.18827ZM17.4997 0.5C13.2856 0.507313 9.08596 1.67896 5.46084 3.86932C5.21103 4.02116 5.13112 4.34681 5.28195 4.59534C5.38039 4.7562 5.55175 4.85031 5.73603 4.85031C5.83293 4.85031 5.92797 4.82439 6.0118 4.77405C12.7042 0.727603 21.4047 0.555338 28.2229 4.30978C28.4797 4.45164 28.8015 4.35914 28.9438 4.10251C29.0856 3.84737 28.9926 3.52581 28.7369 3.38495C25.4509 1.57645 21.7412 0.582083 18.0088 0.504839L17.4997 0.5Z" fill="#151616"/>
</svg>
