<svg width="89" height="18" viewBox="0 0 89 18" fill="none" xmlns="http://www.w3.org/2000/svg">
<g clip-path="url(#clip0_6273_18185)">
<path d="M39.7395 9.2375C39.7459 6.08759 40.8784 4.54904 43.463 4.17942C44.624 4.01346 45.9099 4.09215 47.2599 4.41201C47.634 4.50057 47.9185 4.61714 47.9185 4.68174C47.9185 4.81056 47.1493 6.34184 46.9615 6.58714C46.8465 6.73716 46.8088 6.7379 46.3693 6.59875C45.6931 6.38469 44.0502 6.38386 43.5538 6.59728C42.6648 6.97943 42.4385 7.52496 42.4394 9.28357C42.4403 11.0168 42.6884 11.6674 43.5027 12.0711C43.8474 12.242 44.075 12.2785 44.7969 12.2785C45.2788 12.2785 45.9987 12.2102 46.3967 12.1268C47.5275 11.8899 47.4202 11.8277 47.8259 12.9543L48.1856 13.9526L47.8714 14.0814C46.8776 14.489 44.0155 14.6459 42.8952 14.3545C40.6489 13.7699 39.7333 12.2853 39.7395 9.2375Z" fill="#EF2854"/>
<path d="M30.8307 9.45866C29.85 6.82821 29.0472 4.62423 29.0468 4.56083C29.046 4.47421 29.3659 4.44574 30.3369 4.44601L31.6279 4.44647L32.8374 7.71738C33.5026 9.51644 34.073 10.9883 34.1049 10.9882C34.2392 10.9878 35.6541 6.95999 36.0877 5.34412L36.3041 4.5378H37.6577H39.0113L38.9458 4.74514C37.7819 8.43578 36.0543 12.9096 34.542 16.1488C33.6336 18.0949 33.8846 17.8997 32.2885 17.8997C31.544 17.8997 30.9136 17.866 30.8876 17.8248C30.8616 17.7836 31.238 17.0267 31.7239 16.143C32.2097 15.2593 32.6087 14.4698 32.6105 14.3887C32.6123 14.3076 31.8114 12.0891 30.8307 9.45866Z" fill="#EF2854"/>
<path d="M49.367 14.0063C50.0454 11.736 50.6254 8.71463 50.8885 6.08077L51.0518 4.44565H54.7901H58.5285V9.32965V14.2137H57.214H55.8995V10.4327V6.65174L54.7024 6.67754L53.5052 6.70335L53.4798 6.9798C53.3086 8.836 52.7274 11.8497 52.1779 13.7299L52.0365 14.2137H50.6707H49.305L49.367 14.0063Z" fill="#EF2854"/>
<path d="M62.0965 9.43138C61.1153 6.79927 60.3125 4.60074 60.3125 4.54572C60.3125 4.47854 60.7383 4.44565 61.607 4.44565H62.9015L64.1106 7.71701C64.7757 9.51625 65.3462 10.9884 65.3784 10.9884C65.5246 10.9884 67.1205 6.38183 67.4455 5.02159L67.5611 4.5378H68.8663C69.8123 4.5378 70.1714 4.56793 70.1714 4.64736C70.1714 4.863 69.3876 7.28565 68.7907 8.91497C67.6371 12.0639 65.5784 16.897 65.0597 17.6739C64.9113 17.8962 64.8883 17.8997 63.5553 17.8997C62.8107 17.8997 62.1816 17.8682 62.1574 17.8296C62.133 17.791 62.5093 17.0342 62.9934 16.1478C63.4776 15.2614 63.8752 14.4644 63.8771 14.3767C63.879 14.2888 63.0777 12.0635 62.0965 9.43138Z" fill="#EF2854"/>
<path d="M71.8615 14.2137V9.32965V4.44565H75.4764C78.495 4.44565 79.0913 4.46675 79.0913 4.57337C79.0913 4.64359 78.8958 5.16194 78.6566 5.72525L78.222 6.74942H76.3562H74.4905V10.4815V14.2137H73.176H71.8615Z" fill="#EF2854"/>
<path d="M86.6968 11.9907V8.21564V4.44048L87.9878 4.4661L89.2788 4.49172L89.3032 9.07255C89.326 13.3646 89.3171 13.6587 89.1623 13.7393C88.9342 13.858 87.1658 14.2794 86.3681 14.4051C86.0066 14.4622 85.2038 14.5086 84.5841 14.5084C83.0141 14.5076 82.3594 14.3027 81.6253 13.5822C80.6597 12.6346 80.5015 11.7675 80.5005 7.41752L80.4997 4.5378H81.8088H83.1178L83.1468 7.78612C83.1743 10.8765 83.1853 11.0524 83.3727 11.403C83.6722 11.9637 84.039 12.1286 84.9991 12.1341C85.4422 12.1366 86.0055 12.1054 86.2508 12.0647L86.6968 11.9907Z" fill="#EF2854"/>
<path fill-rule="evenodd" clip-rule="evenodd" d="M11.6464 4.2591C9.94218 4.56347 8.96061 5.36113 8.52494 6.79546C8.17397 7.95095 8.12993 10.2065 8.43321 11.4952C8.82043 13.1405 9.75139 14.0698 11.3467 14.4036C12.1507 14.5719 14.0288 14.5522 14.749 14.3679C16.3329 13.9627 17.0875 13.1966 17.5608 11.5138C17.7932 10.6873 17.7897 7.9597 17.555 7.12352C16.9806 5.0762 15.8154 4.28416 13.2716 4.21183C12.626 4.19349 11.8947 4.21477 11.6464 4.2591ZM22.7287 4.30785C21.9082 4.51159 21.1993 4.8907 20.7422 5.37026C19.8708 6.28458 19.5472 7.35685 19.5472 9.32962C19.5472 10.8058 19.714 11.6664 20.1724 12.5542C20.9169 13.9961 22.5406 14.6733 24.961 14.5514C26.0481 14.4965 27.7781 14.2079 27.9255 14.0567C27.9649 14.0162 27.822 13.5137 27.6081 12.9398C27.2352 11.9397 27.2092 11.8986 26.9823 11.9497C25.7777 12.2209 25.1582 12.2947 24.3512 12.2629C23.2182 12.2182 22.8799 12.0408 22.509 11.2968C22.2832 10.8438 22.2492 10.6519 22.2112 9.6198C22.1194 7.11882 22.6775 6.41248 24.7266 6.43598C25.42 6.444 25.7743 6.49865 26.5337 6.71492C26.6646 6.75215 26.8023 6.55255 27.2161 5.72495C27.5012 5.15481 27.7019 4.65636 27.662 4.61729C27.3047 4.26656 23.7841 4.04568 22.7287 4.30785ZM0.336819 9.35265L0.361137 14.2597H1.62871H2.89628L2.92078 10.5065L2.94529 6.75317L4.83378 6.72829L6.72218 6.70331L7.12986 5.73573C7.35399 5.20356 7.53896 4.69562 7.54074 4.60688C7.54384 4.45603 7.31052 4.44561 3.92827 4.44561H0.3125L0.336819 9.35265ZM14.2257 6.53007C14.9101 6.86826 15.0881 7.54806 15.0406 9.64201C15.0107 10.9655 14.9835 11.1735 14.7909 11.5588C14.4882 12.1642 14.0339 12.3706 13.0042 12.3706C11.3107 12.3706 10.9271 11.809 10.9271 9.32962C10.9271 7.15135 11.2236 6.51459 12.2988 6.38373C12.9902 6.2996 13.899 6.36853 14.2257 6.53007Z" fill="#2864B8"/>
</g>
<defs>
<clipPath id="clip0_6273_18185">
<rect width="89" height="18" fill="white"/>
</clipPath>
</defs>
</svg>
