<svg width="24" height="24" viewBox="0 0 24 24" fill="none" xmlns="http://www.w3.org/2000/svg">
<path fill-rule="evenodd" clip-rule="evenodd" d="M2.96521 12C3.07088 12.1248 3.19827 12.2714 3.34586 12.4349C3.83589 12.9777 4.54411 13.7008 5.41577 14.4222C7.18085 15.883 9.51154 17.25 12.0001 17.25C14.4886 17.25 16.8193 15.883 18.5844 14.4222C19.4561 13.7008 20.1643 12.9777 20.6543 12.4349C20.8019 12.2714 20.9293 12.1248 21.035 12C20.9293 11.8752 20.8019 11.7286 20.6543 11.5651C20.1643 11.0223 19.4561 10.2992 18.5844 9.5778C16.8193 8.11704 14.4886 6.75 12.0001 6.75C9.51154 6.75 7.18085 8.11704 5.41577 9.5778C4.54411 10.2992 3.83589 11.0223 3.34586 11.5651C3.19827 11.7286 3.07088 11.8752 2.96521 12ZM22.0001 12C22.6001 11.55 22.5999 11.5498 22.5998 11.5496L22.5982 11.5475L22.5947 11.5429L22.5828 11.5272C22.5726 11.5139 22.5581 11.4951 22.5394 11.4711C22.502 11.4232 22.4477 11.3546 22.3772 11.2682C22.2364 11.0955 22.031 10.8515 21.7677 10.5599C21.2421 9.97773 20.4816 9.20083 19.5408 8.4222C17.6808 6.88296 15.0115 5.25 12.0001 5.25C8.98865 5.25 6.31933 6.88296 4.45942 8.4222C3.51858 9.20083 2.75804 9.97773 2.23245 10.5599C1.96922 10.8515 1.76378 11.0955 1.62296 11.2682C1.55252 11.3546 1.49816 11.4232 1.46075 11.4711C1.44205 11.4951 1.42757 11.5139 1.41742 11.5272L1.40547 11.5429L1.40195 11.5475L1.40081 11.549C1.40065 11.5493 1.40009 11.55 2.00009 12L1.40009 11.55C1.20009 11.8167 1.20009 12.1833 1.40009 12.45L2.00009 12C1.40009 12.45 1.39993 12.4498 1.40009 12.45L1.40195 12.4525L1.40547 12.4571L1.41742 12.4728C1.42757 12.4861 1.44205 12.5049 1.46075 12.5289C1.49816 12.5768 1.55252 12.6454 1.62296 12.7318C1.76378 12.9045 1.96922 13.1485 2.23245 13.4401C2.75804 14.0223 3.51858 14.7992 4.45942 15.5778C6.31933 17.117 8.98865 18.75 12.0001 18.75C15.0115 18.75 17.6808 17.117 19.5408 15.5778C20.4816 14.7992 21.2421 14.0223 21.7677 13.4401C22.031 13.1485 22.2364 12.9045 22.3772 12.7318C22.4477 12.6454 22.502 12.5768 22.5394 12.5289C22.5581 12.5049 22.5726 12.4861 22.5828 12.4728L22.5947 12.4571L22.5982 12.4525L22.5994 12.451C22.5995 12.4507 22.6001 12.45 22.0001 12ZM22.0001 12L22.6001 12.45C22.8001 12.1833 22.7998 11.8163 22.5998 11.5496L22.0001 12Z" fill="#151616"/>
<path fill-rule="evenodd" clip-rule="evenodd" d="M12.0001 9.75C10.7575 9.75 9.75009 10.7574 9.75009 12C9.75009 13.2426 10.7575 14.25 12.0001 14.25C13.2427 14.25 14.2501 13.2426 14.2501 12C14.2501 10.7574 13.2427 9.75 12.0001 9.75ZM8.25009 12C8.25009 9.92893 9.92902 8.25 12.0001 8.25C14.0712 8.25 15.7501 9.92893 15.7501 12C15.7501 14.0711 14.0712 15.75 12.0001 15.75C9.92902 15.75 8.25009 14.0711 8.25009 12Z" fill="#151616"/>
</svg>
