<svg width="18" height="16" viewBox="0 0 18 16" fill="none" xmlns="http://www.w3.org/2000/svg">
<path fill-rule="evenodd" clip-rule="evenodd" d="M11.3605 2.5394C14.6407 3.20296 16.7631 6.3636 16.1106 9.59312C15.4588 12.8231 12.2765 14.9107 8.99564 14.2478C8.57159 14.1621 8.15836 14.4364 8.07268 14.8604C7.98699 15.2845 8.26129 15.6977 8.68534 15.7834C12.8077 16.6164 16.8219 13.9881 17.6463 9.90324C18.4714 5.81923 15.7926 1.83756 11.671 1.00381C7.85847 0.233187 4.11284 2.42776 2.93447 6.03277L1.63329 3.25051C1.45001 2.85862 0.983757 2.68951 0.591872 2.87278C0.199987 3.05605 0.0308741 3.52231 0.214147 3.9142L2.32384 8.42526C2.49934 8.80052 2.93668 8.97425 3.32185 8.82171L8.05121 6.94872C8.45344 6.78943 8.65037 6.33422 8.49108 5.93199C8.33178 5.52976 7.87657 5.33283 7.47435 5.49213L4.36046 6.72533C5.21465 3.75398 8.25455 1.91161 11.3605 2.5394Z" fill="#9E9D9D" fill-opacity="0.4"/>
</svg>
