<svg width="24" height="24" viewBox="0 0 24 24" fill="none" xmlns="http://www.w3.org/2000/svg">
<path fill-rule="evenodd" clip-rule="evenodd" d="M4.85967 10.0969C6.05573 5.65261 10.5516 2.89044 15.1336 3.81662C19.9202 4.78488 23.0281 9.40779 22.0708 14.1461C21.1143 18.8855 16.4558 21.9379 11.6684 20.9705C11.2624 20.8885 10.9998 20.4929 11.0818 20.0868C11.1639 19.6808 11.5595 19.4182 11.9655 19.5003C15.9447 20.3043 19.8086 17.7725 20.6004 13.8492C21.393 9.92656 18.8148 6.09166 14.8363 5.28686C11.0155 4.51455 7.2733 6.82398 6.29822 10.524C6.28128 10.588 6.26554 10.6506 6.25093 10.7121L10.2639 9.12281C10.6491 8.97029 11.0849 9.15884 11.2374 9.54395C11.3899 9.92907 11.2014 10.3649 10.8163 10.5174L5.2157 12.7354C4.84693 12.8815 4.4282 12.7151 4.26017 12.3559L1.76184 7.0138C1.58637 6.6386 1.74829 6.19218 2.12349 6.0167C2.4987 5.84123 2.94512 6.00315 3.12059 6.37836L4.85967 10.0969Z" fill="#151616"/>
<mask id="mask0_3337_1137" style="mask-type:alpha" maskUnits="userSpaceOnUse" x="1" y="3" width="22" height="19">
<path fill-rule="evenodd" clip-rule="evenodd" d="M4.85967 10.0969C6.05573 5.65261 10.5516 2.89044 15.1336 3.81662C19.9202 4.78488 23.0281 9.40779 22.0708 14.1461C21.1143 18.8855 16.4558 21.9379 11.6684 20.9705C11.2624 20.8885 10.9998 20.4929 11.0818 20.0868C11.1639 19.6808 11.5595 19.4182 11.9655 19.5003C15.9447 20.3043 19.8086 17.7725 20.6004 13.8492C21.393 9.92656 18.8148 6.09166 14.8363 5.28686C11.0155 4.51455 7.2733 6.82398 6.29822 10.524C6.28128 10.588 6.26554 10.6506 6.25093 10.7121L10.2639 9.12281C10.6491 8.97029 11.0849 9.15884 11.2374 9.54395C11.3899 9.92907 11.2014 10.3649 10.8163 10.5174L5.2157 12.7354C4.84693 12.8815 4.4282 12.7151 4.26017 12.3559L1.76184 7.0138C1.58637 6.6386 1.74829 6.19218 2.12349 6.0167C2.4987 5.84123 2.94512 6.00315 3.12059 6.37836L4.85967 10.0969Z" fill="white"/>
</mask>
<g mask="url(#mask0_3337_1137)">
</g>
</svg>
