<svg width="30" height="30" viewBox="0 0 30 30" fill="none" xmlns="http://www.w3.org/2000/svg">
<path fill-rule="evenodd" clip-rule="evenodd" d="M15 1.75C22.3178 1.75 28.25 7.68223 28.25 15C28.25 22.3178 22.3178 28.25 15 28.25C7.68223 28.25 1.75 22.3178 1.75 15C1.75 7.68222 7.68223 1.75 15 1.75ZM15 3.25C8.51066 3.25 3.25 8.51065 3.25 15C3.25 21.4893 8.51065 26.75 15 26.75C21.4893 26.75 26.75 21.4893 26.75 15C26.75 8.51065 21.4893 3.25 15 3.25ZM14.955 8C14.3061 8 13.78 8.52606 13.78 9.175C13.78 9.82393 14.3061 10.35 14.955 10.35C15.6039 10.35 16.13 9.82393 16.13 9.175C16.13 8.52606 15.6039 8 14.955 8ZM15.75 20.6099C15.75 21.0241 15.4142 21.3599 15 21.3599C14.5858 21.3599 14.25 21.0241 14.25 20.6099L14.25 13.3392C14.25 12.925 14.5858 12.5892 15 12.5892C15.4142 12.5892 15.75 12.925 15.75 13.3392L15.75 20.6099Z" fill="#151616"/>
<mask id="mask0_51_32004" style="mask-type:alpha" maskUnits="userSpaceOnUse" x="1" y="1" width="28" height="28">
<path fill-rule="evenodd" clip-rule="evenodd" d="M15 28.25C7.68223 28.25 1.75 22.3178 1.75 15C1.75 7.68223 7.68223 1.75 15 1.75C22.3178 1.75 28.25 7.68223 28.25 15C28.25 22.3178 22.3178 28.25 15 28.25ZM15 26.75C21.4893 26.75 26.75 21.4893 26.75 15C26.75 8.51065 21.4893 3.25 15 3.25C8.51065 3.25 3.25 8.51065 3.25 15C3.25 21.4893 8.51065 26.75 15 26.75ZM15.045 22C15.6939 22 16.22 21.4739 16.22 20.825C16.22 20.1761 15.6939 19.65 15.045 19.65C14.3961 19.65 13.87 20.1761 13.87 20.825C13.87 21.4739 14.3961 22 15.045 22ZM14.25 9.39012C14.25 8.9759 14.5858 8.64012 15 8.64012C15.4142 8.64012 15.75 8.9759 15.75 9.39012V16.6608C15.75 17.075 15.4142 17.4108 15 17.4108C14.5858 17.4108 14.25 17.075 14.25 16.6608V9.39012Z" fill="white"/>
</mask>
<g mask="url(#mask0_51_32004)">
</g>
</svg>
