<svg width="18" height="18" viewBox="0 0 18 18" fill="none" xmlns="http://www.w3.org/2000/svg">
<path fill-rule="evenodd" clip-rule="evenodd" d="M12.5654 0.830014C12.0324 0.298565 11.3096 0 10.5559 0H7.44546L7.27847 0.00481064C5.78664 0.0910034 4.60352 1.32465 4.60352 2.83385V3.69231H3.49223H1.59468L1.50047 3.69863C1.16158 3.74447 0.900391 4.03413 0.900391 4.38462C0.900391 4.76697 1.21123 5.07693 1.59468 5.07693H2.79795V15.2769L2.80327 15.4368C2.89206 16.8646 4.07572 17.9935 5.52567 18L12.5179 18L12.6782 17.9947C14.1101 17.9062 15.2423 16.7259 15.2488 15.2801L15.2488 5.07693H16.4061L16.5003 5.07061C16.8392 5.02477 17.1004 4.73511 17.1004 4.38462C17.1004 4.00227 16.7895 3.69231 16.4061 3.69231H14.5545H13.3978V2.83385L13.3916 2.64668C13.3463 1.96344 13.054 1.31718 12.5654 0.830014ZM12.0092 3.69231V2.83385C12.0092 2.44949 11.8561 2.08087 11.5835 1.80909C11.3451 1.57127 11.0322 1.42465 10.6995 1.39171L10.5559 1.38462H7.44546C6.68738 1.38462 6.06486 1.96337 5.99803 2.70194L5.99209 2.83385V3.69231H12.0092ZM4.18652 5.07693H13.8602V15.2769L13.8535 15.4054C13.7858 16.0817 13.2129 16.6123 12.5148 16.6154L5.52881 16.6154L5.4 16.6087C4.7217 16.5411 4.18967 15.9699 4.18651 15.2738L4.18652 5.07693ZM7.14936 7.38461C7.50085 7.38461 7.79134 7.64506 7.83731 7.98298L7.84365 8.07692V13.6154C7.84365 13.9977 7.53281 14.3077 7.14936 14.3077C6.79787 14.3077 6.50739 14.0472 6.46142 13.7093L6.45508 13.6154V8.07692C6.45508 7.69457 6.76592 7.38461 7.14936 7.38461ZM11.5404 7.98295C11.4945 7.64503 11.204 7.38458 10.8525 7.38458C10.469 7.38458 10.1582 7.69454 10.1582 8.07689V13.6154L10.1645 13.7093C10.2105 14.0472 10.501 14.3077 10.8525 14.3077C11.2359 14.3077 11.5468 13.9977 11.5468 13.6154V8.07689L11.5404 7.98295Z" fill="white"/>
</svg>
