<svg width="30" height="30" viewBox="0 0 30 30" fill="none" xmlns="http://www.w3.org/2000/svg">
<path fill-rule="evenodd" clip-rule="evenodd" d="M19.9511 3.6528C19.2108 2.91467 18.2068 2.5 17.16 2.5H12.84L12.6081 2.50668C10.5361 2.62639 8.89286 4.33979 8.89286 6.4359V7.62821H7.35H4.71429L4.58344 7.63698C4.11277 7.70065 3.75 8.10295 3.75 8.58974C3.75 9.12079 4.18173 9.55128 4.71429 9.55128H6.38571V23.7179L6.3931 23.9399C6.51642 25.923 8.1604 27.4909 10.1742 27.5L19.8857 27.5L20.1083 27.4926C22.0971 27.3697 23.6695 25.7304 23.6786 23.7223L23.6786 9.55128H25.2857L25.4166 9.5425C25.8872 9.47883 26.25 9.07653 26.25 8.58974C26.25 8.0587 25.8183 7.62821 25.2857 7.62821H22.7143H21.1071V6.4359L21.0985 6.17595C21.0356 5.22701 20.6296 4.32941 19.9511 3.6528ZM19.1786 7.62821V6.4359C19.1786 5.90206 18.9659 5.3901 18.5873 5.01262C18.2561 4.68233 17.8216 4.47868 17.3595 4.43293L17.16 4.42308H12.84C11.7871 4.42308 10.9225 5.2269 10.8297 6.25269L10.8214 6.4359V7.62821H19.1786ZM9.85714 9.55128H8.31429L8.31428 23.7136C8.31865 24.6803 9.05759 25.4738 9.99968 25.5677L10.1786 25.5769L19.8814 25.5769C20.8509 25.5726 21.6466 24.8357 21.7407 23.8963L21.75 23.7179V9.55128H20.1429H9.85714ZM12.4286 12.7564C12.9168 12.7564 13.3202 13.1181 13.3841 13.5875L13.3929 13.7179V21.4103C13.3929 21.9413 12.9611 22.3718 12.4286 22.3718C11.9404 22.3718 11.5369 22.0101 11.4731 21.5407L11.4643 21.4103V13.7179C11.4643 13.1869 11.896 12.7564 12.4286 12.7564ZM18.5269 13.5875C18.4631 13.1181 18.0596 12.7564 17.5714 12.7564C17.0389 12.7564 16.6071 13.1869 16.6071 13.7179V21.4103L16.6159 21.5407C16.6798 22.0101 17.0832 22.3718 17.5714 22.3718C18.104 22.3718 18.5357 21.9413 18.5357 21.4103V13.7179L18.5269 13.5875Z" fill="#FF5752"/>
</svg>
