<svg width="30" height="30" viewBox="0 0 30 30" fill="none" xmlns="http://www.w3.org/2000/svg">
<path d="M28.5 24.9839H5.55C4.47587 24.9839 3.44574 24.5318 2.68622 23.7271C1.9267 22.9223 1.5 21.8309 1.5 20.6928V9.30719C1.5 8.16912 1.9267 7.07767 2.68622 6.27294C3.44574 5.46821 4.47587 5.01611 5.55 5.01611H19.05C20.1241 5.01611 21.1543 5.46821 21.9138 6.27294C22.6733 7.07767 23.1 8.16912 23.1 9.30719V19.3197L28.5 24.9839Z" stroke="#303030" stroke-width="1.5" stroke-linecap="round" stroke-linejoin="round"/>
<g clip-path="url(#clip0_7465_6755)">
<path d="M12.5294 21.3571C13.0492 21.3571 13.4706 20.9106 13.4706 20.3599C13.4706 19.8091 13.0492 19.3627 12.5294 19.3627C12.0096 19.3627 11.5883 19.8091 11.5883 20.3599C11.5883 20.9106 12.0096 21.3571 12.5294 21.3571Z" fill="#303030"/>
<path d="M9.70587 12.3823C9.70587 11.5889 10.0033 10.8279 10.5329 10.2669C11.0624 9.70587 11.7806 9.39069 12.5294 9.39069C13.2782 9.39069 13.9964 9.70587 14.5259 10.2669C15.0555 10.8279 15.3529 11.5889 15.3529 12.3823V12.5119C15.3504 13.2701 15.0651 13.9966 14.559 14.5327C14.053 15.0689 13.3674 15.3713 12.6518 15.3739V17.3683" stroke="#303030" stroke-width="1.5" stroke-linecap="round" stroke-linejoin="round"/>
</g>
<defs>
<clipPath id="clip0_7465_6755">
<rect width="7.05882" height="12.7143" fill="white" transform="translate(9 8.64276)"/>
</clipPath>
</defs>
</svg>
